<svg id="Layer_1" data-name="Layer 1" xmlns="http://www.w3.org/2000/svg" xmlns:xlink="http://www.w3.org/1999/xlink" viewBox="0 0 379.03 368.5"><defs><style>.cls-1{fill:url(#linear-gradient);}.cls-2,.cls-21,.cls-23,.cls-24,.cls-29{fill:#fff;}.cls-23,.cls-3{font-size:7px;}.cls-23,.cls-3,.cls-56{font-family:MyriadPro-Regular, Myriad Pro;}.cls-4{letter-spacing:-0.01em;}.cls-5{letter-spacing:0.02em;}.cls-6{letter-spacing:0.01em;}.cls-7{letter-spacing:-0.02em;}.cls-8{letter-spacing:-0.01em;}.cls-9{letter-spacing:0em;}.cls-10{letter-spacing:0.01em;}.cls-11{letter-spacing:0em;}.cls-12{letter-spacing:0em;}.cls-13{letter-spacing:0em;}.cls-14{letter-spacing:0em;}.cls-15{letter-spacing:-0.01em;}.cls-16{letter-spacing:0.01em;}.cls-17{letter-spacing:-0.01em;}.cls-18{letter-spacing:0em;}.cls-19{letter-spacing:-0.01em;}.cls-20{letter-spacing:0em;}.cls-21,.cls-22,.cls-36{stroke:#f15a24;}.cls-21,.cls-22,.cls-24,.cls-25,.cls-27,.cls-28,.cls-29,.cls-36,.cls-39,.cls-42,.cls-43,.cls-45,.cls-47,.cls-49{stroke-miterlimit:10;}.cls-22,.cls-37{fill:#f15a24;}.cls-22,.cls-25,.cls-28,.cls-30{opacity:0.3;}.cls-24,.cls-25,.cls-45{stroke:#0071bc;}.cls-25,.cls-46{fill:#0071bc;}.cls-26{letter-spacing:-0.03em;}.cls-27,.cls-36,.cls-43,.cls-45,.cls-47,.cls-49{fill:none;}.cls-27,.cls-28,.cls-39,.cls-43{stroke:#006837;}.cls-27,.cls-28{stroke-width:0.82px;}.cls-28,.cls-39,.cls-44{fill:#006837;}.cls-29{stroke:#1b1464;}.cls-30,.cls-48{fill:#662d91;}.cls-31{fill:url(#linear-gradient-2);}.cls-32{fill:url(#linear-gradient-3);}.cls-33{fill:url(#linear-gradient-4);}.cls-34{fill:url(#linear-gradient-5);}.cls-35{fill:url(#linear-gradient-6);}.cls-38{mask:url(#mask);}.cls-39{stroke-width:1.18px;}.cls-40,.cls-42{fill:red;}.cls-41{fill:url(#linear-gradient-7);}.cls-42{stroke:red;}.cls-47{stroke:#662d91;}.cls-49{stroke:#000;}.cls-50{letter-spacing:0.01em;}.cls-51{letter-spacing:0.03em;}.cls-52{letter-spacing:0em;}.cls-53{letter-spacing:0.02em;}.cls-54{letter-spacing:-0.01em;}.cls-55{letter-spacing:-0.01em;}.cls-56{font-size:9.55px;letter-spacing:-0.01em;}.cls-57{letter-spacing:0em;}.cls-58{letter-spacing:-0.01em;}.cls-59{letter-spacing:0em;}</style><linearGradient id="linear-gradient" x1="88.02" y1="173.3" x2="297.02" y2="173.3" gradientTransform="matrix(1, 0, 0, -1, 1.63, 346.59)" gradientUnits="userSpaceOnUse"><stop offset="0" stop-color="#fff"/><stop offset="0.08" stop-color="#939392"/><stop offset="0.24" stop-color="#4f4f4d"/><stop offset="0.31" stop-color="#4d4d4b"/><stop offset="0.42" stop-color="#4b4b49"/><stop offset="0.53" stop-color="#3f3f3d"/><stop offset="0.72" stop-color="#2a2a28"/><stop offset="0.87"/></linearGradient><linearGradient id="linear-gradient-2" x1="281.5" y1="206.5" x2="320.66" y2="206.5" gradientTransform="translate(-15 22)" gradientUnits="userSpaceOnUse"><stop offset="0.11" stop-color="#fff"/><stop offset="0.7"/></linearGradient><linearGradient id="linear-gradient-3" x1="263.5" y1="234.5" x2="299.79" y2="234.5" gradientTransform="translate(32.5 13.5)" xlink:href="#linear-gradient-2"/><linearGradient id="linear-gradient-4" x1="299.93" y1="223.16" x2="299.91" y2="207.63" gradientTransform="matrix(1, 0, 0, 1, 0, 0)" xlink:href="#linear-gradient-2"/><linearGradient id="linear-gradient-5" x1="249.5" y1="67" x2="290.57" y2="67" gradientTransform="translate(-123.5 192.5)" xlink:href="#linear-gradient-2"/><linearGradient id="linear-gradient-6" x1="233.5" y1="136" x2="275.53" y2="136" gradientTransform="translate(-39 139)" xlink:href="#linear-gradient-2"/><mask id="mask" x="71.82" y="126.41" width="210.74" height="56.39" maskUnits="userSpaceOnUse"><g transform="translate(-16.09 -16.5)"><rect class="cls-1" x="89.65" y="147.3" width="209" height="52" rx="12" transform="translate(388.3 346.59) rotate(-180)"/></g></mask><linearGradient id="linear-gradient-7" x1="202.28" y1="2.68" x2="202.28" y2="119.43" gradientUnits="userSpaceOnUse"><stop offset="0" stop-color="#fff"/><stop offset="0.34"/></linearGradient></defs><rect class="cls-2" x="22.91" y="286.5" width="323" height="82"/><text class="cls-3" transform="translate(316.21 344.98)">Sha<tspan class="cls-4" x="10.71" y="0">r</tspan><tspan x="12.93" y="0">ed Neande</tspan><tspan class="cls-5" x="44.69" y="0">r</tspan><tspan x="47.15" y="0">thal </tspan><tspan class="cls-6" x="0" y="8.4">G</tspan><tspan x="4.56" y="8.4">ene </tspan><tspan class="cls-7" x="16.94" y="8.4">F</tspan><tspan x="20.23" y="8.4">l</tspan><tspan class="cls-8" x="21.88" y="8.4">o</tspan><tspan class="cls-9" x="25.68" y="8.4">w (50-60</tspan><tspan class="cls-10" x="50.81" y="8.4">k</tspan><tspan class="cls-11" x="54.19" y="8.4">y</tspan><tspan x="57.46" y="8.4">a)</tspan></text><text class="cls-3" transform="translate(218.19 343.13)"><tspan class="cls-12">D</tspan><tspan class="cls-13" x="4.69" y="0">enis</tspan><tspan class="cls-8" x="16.49" y="0">o</tspan><tspan class="cls-14" x="20.29" y="0">v</tspan><tspan x="23.63" y="0">an </tspan><tspan class="cls-15" x="32.37" y="0">A</tspan><tspan x="36.57" y="0">dmi</tspan><tspan class="cls-16" x="47.99" y="0">x</tspan><tspan x="51.32" y="0">tu</tspan><tspan class="cls-4" x="57.5" y="0">r</tspan><tspan class="cls-13" x="59.72" y="0">e</tspan><tspan class="cls-17" x="0" y="8.4">t</tspan><tspan x="2.28" y="8.4">o </tspan><tspan class="cls-18" x="7.6" y="8.4">O</tspan><tspan class="cls-17" x="12.45" y="8.4">c</tspan><tspan x="15.55" y="8.4">eania (31-50</tspan><tspan class="cls-16" x="51.31" y="8.4">k</tspan><tspan class="cls-11" x="54.68" y="8.4">y</tspan><tspan x="57.95" y="8.4">a)</tspan></text><text class="cls-3" transform="translate(18.99 343.29)"><tspan class="cls-17">A</tspan><tspan class="cls-9" x="4.24" y="0">symmet</tspan><tspan class="cls-18" x="27.81" y="0">r</tspan><tspan x="30.13" y="0">ic </tspan><tspan class="cls-15" x="36.39" y="0">A</tspan><tspan class="cls-9" x="40.59" y="0">dxmitu</tspan><tspan class="cls-4" x="61.42" y="0">r</tspan><tspan x="63.64" y="0">e </tspan><tspan x="0" y="8.4">f</tspan><tspan class="cls-4" x="2.04" y="8.4">r</tspan><tspan x="4.26" y="8.4">om the an</tspan><tspan class="cls-17" x="33.88" y="8.4">c</tspan><tspan x="36.97" y="8.4">es</tspan><tspan class="cls-19" x="43.25" y="8.4">t</tspan><tspan x="45.53" y="8.4">ors of </tspan><tspan x="0" y="16.8">non</tspan><tspan class="cls-20" x="11.61" y="16.8">-</tspan><tspan class="cls-8" x="13.73" y="16.8">A</tspan><tspan x="17.97" y="16.8">f</tspan><tspan class="cls-18" x="20.01" y="16.8">r</tspan><tspan x="22.33" y="16.8">icans (30-70 </tspan><tspan class="cls-16" x="58.6" y="16.8">k</tspan><tspan class="cls-11" x="61.98" y="16.8">y</tspan><tspan x="65.25" y="16.8">a)</tspan></text><rect class="cls-21" x="98.18" y="337" width="10" height="15" rx="5"/><rect class="cls-22" x="98.18" y="337" width="10" height="15" rx="5"/><text class="cls-23" transform="translate(100.7 346.54)">2.</text><rect class="cls-24" x="293.73" y="339" width="10" height="15" rx="5"/><rect class="cls-25" x="293.73" y="339" width="10" height="15" rx="5"/><text class="cls-23" transform="translate(296.25 348.54)">2.</text><text class="cls-3" transform="translate(123.37 342.9)"><tspan class="cls-26">W</tspan><tspan x="5.69" y="0">es</tspan><tspan class="cls-17" x="11.97" y="0">t</tspan><tspan x="14.25" y="0">e</tspan><tspan class="cls-12" x="17.75" y="0">r</tspan><tspan class="cls-13" x="20.07" y="0">n </tspan><tspan class="cls-8" x="25.44" y="0">A</tspan><tspan x="29.67" y="0">f</tspan><tspan class="cls-12" x="31.72" y="0">r</tspan><tspan class="cls-13" x="34.03" y="0">ican </tspan><tspan class="cls-15" x="0" y="8.4">A</tspan><tspan x="4.2" y="8.4">dmi</tspan><tspan class="cls-16" x="15.62" y="8.4">x</tspan><tspan class="cls-9" x="18.96" y="8.4">tu</tspan><tspan class="cls-4" x="25.13" y="8.4">r</tspan><tspan x="27.35" y="8.4">e </tspan><tspan class="cls-19" x="32.34" y="8.4">t</tspan><tspan class="cls-13" x="34.61" y="8.4">o </tspan><tspan class="cls-18" x="39.94" y="8.4">C</tspan><tspan x="44.03" y="8.4">AHG</tspan></text><rect class="cls-27" x="0.41" y="337.23" width="10" height="15" rx="5"/><rect class="cls-28" x="0.41" y="337.23" width="10" height="15" rx="5"/><text class="cls-23" transform="translate(2.76 346.48)">1.</text><rect class="cls-29" x="195.96" y="337.15" width="10" height="15" rx="5"/><rect class="cls-30" x="195.96" y="337.15" width="10" height="15" rx="5"/><text class="cls-23" transform="translate(198.48 346.69)">3.</text><rect class="cls-31" x="266.5" y="206.5" width="41" height="44" transform="translate(42.41 499) rotate(-90)"/><rect class="cls-32" x="296" y="226" width="38" height="44" transform="translate(50.91 546.5) rotate(-90)"/><rect class="cls-33" x="292.41" y="191.49" width="15" height="29.52"/><rect class="cls-34" x="126" y="235" width="43" height="49" transform="translate(-128.09 390.5) rotate(-90)"/><rect class="cls-35" x="194.5" y="250.5" width="44" height="49" transform="translate(-74.59 475) rotate(-90)"/><line class="cls-36" x1="172.41" y1="272.6" x2="127.46" y2="272.6"/><path class="cls-37" d="M137.52,289.1a30.31,30.31,0,0,0,8.55-4.75l-1.73,4.75,1.73,4.76A30.34,30.34,0,0,0,137.52,289.1Z" transform="translate(-16.09 -16.5)"/><g class="cls-38"><rect class="cls-39" x="72.41" y="127" width="209" height="52" rx="12"/></g><polygon class="cls-40" points="276.91 139.11 269.41 124.8 276.91 110.5 284.41 124.8 276.91 139.11"/><rect class="cls-41" x="194.66" y="0.5" width="15.25" height="237"/><rect class="cls-42" x="273.16" y="110.5" width="7.5" height="25"/><rect x="139" y="100" width="15" height="138" transform="translate(276.91 321.5) rotate(180)"/><rect x="253.51" y="83.51" width="15" height="71.98" transform="translate(364.42 -158.01) rotate(90)"/><path d="M300.5,141.3h-15v72.26a105.34,105.34,0,0,0,15,2.24Z" transform="translate(-16.09 -16.5)"/><rect x="285.5" y="185.5" width="15" height="60" transform="translate(492.41 -94) rotate(90)"/><rect x="209.83" y="234.17" width="15.12" height="52.79" transform="translate(461.86 26.67) rotate(90)"/><line class="cls-43" x1="251.91" y1="138.5" x2="226.94" y2="138.5"/><path class="cls-44" d="M237,155a30.1,30.1,0,0,0,8.55-4.76L243.83,155l1.72,4.75A30.31,30.31,0,0,0,237,155Z" transform="translate(-16.09 -16.5)"/><line class="cls-43" x1="251.91" y1="154.5" x2="226.94" y2="154.5"/><path class="cls-44" d="M237,171a30.1,30.1,0,0,0,8.55-4.76L243.83,171l1.72,4.75A30.31,30.31,0,0,0,237,171Z" transform="translate(-16.09 -16.5)"/><line class="cls-43" x1="252.91" y1="170.5" x2="227.94" y2="170.5"/><path class="cls-44" d="M238,187a30.1,30.1,0,0,0,8.55-4.76L244.83,187l1.72,4.75A30.31,30.31,0,0,0,238,187Z" transform="translate(-16.09 -16.5)"/><line class="cls-45" x1="312.41" y1="172" x2="295.44" y2="172"/><path class="cls-46" d="M305.5,188.5a30.1,30.1,0,0,0,8.55-4.76l-1.72,4.76,1.72,4.75A30.31,30.31,0,0,0,305.5,188.5Z" transform="translate(-16.09 -16.5)"/><rect x="139.88" y="219.12" width="15" height="52.75" transform="translate(376.78 81.62) rotate(90)"/><line class="cls-47" x1="350.41" y1="222" x2="335.44" y2="222"/><path class="cls-48" d="M345.5,238.5a30.1,30.1,0,0,0,8.55-4.76l-1.72,4.76,1.72,4.75A30.31,30.31,0,0,0,345.5,238.5Z" transform="translate(-16.09 -16.5)"/><rect class="cls-24" x="301.41" y="154" width="10" height="15" rx="5"/><rect class="cls-25" x="301.41" y="154" width="10" height="15" rx="5"/><text class="cls-23" transform="translate(303.93 163.54)">3.</text><line class="cls-36" x1="172.41" y1="279" x2="165.94" y2="279"/><path class="cls-37" d="M176,295.5a30.1,30.1,0,0,0,8.55-4.76l-1.72,4.76,1.72,4.75A30.31,30.31,0,0,0,176,295.5Z" transform="translate(-16.09 -16.5)"/><rect class="cls-29" x="337.41" y="203" width="10" height="15" rx="5"/><rect class="cls-30" x="337.41" y="203" width="10" height="15" rx="5"/><text class="cls-23" transform="translate(339.93 212.54)">4.</text><rect class="cls-21" x="161.41" y="243" width="10" height="15" rx="5"/><rect class="cls-22" x="161.41" y="243" width="10" height="15" rx="5"/><text class="cls-23" transform="translate(163.93 252.54)">2.</text><line class="cls-49" x1="42.41" y1="6.04" x2="42.41" y2="305.5"/><path d="M58.5,16.5a30.1,30.1,0,0,1-4.76,8.55l4.76-1.72,4.75,1.72A30.31,30.31,0,0,1,58.5,16.5Z" transform="translate(-16.09 -16.5)"/><text class="cls-3" transform="translate(66.64 312.49)"><tspan class="cls-50">K</tspan><tspan x="3.86" y="0">ho</tspan><tspan class="cls-51" x="11.59" y="0">e</tspan><tspan class="cls-9" x="15.29" y="0">-</tspan><tspan class="cls-52" x="17.44" y="0">S</tspan><tspan x="20.92" y="0">an</tspan></text><text class="cls-3" transform="translate(105.63 312.78)">Mbuti</text><text class="cls-3" transform="translate(142.58 313.56)">Bia<tspan class="cls-53" x="8.81" y="0">k</tspan><tspan x="12.21" y="0">a</tspan></text><text class="cls-3" transform="translate(170.38 312.64)"><tspan class="cls-26">W</tspan><tspan x="5.69" y="0">es</tspan><tspan class="cls-17" x="11.97" y="0">t</tspan><tspan x="14.25" y="0">e</tspan><tspan class="cls-12" x="17.75" y="0">r</tspan><tspan class="cls-13" x="20.07" y="0">n </tspan><tspan class="cls-8" x="0" y="8.4">A</tspan><tspan x="4.24" y="8.4">f</tspan><tspan class="cls-12" x="6.28" y="8.4">r</tspan><tspan class="cls-13" x="8.6" y="8.4">ican</tspan></text><text class="cls-3" transform="translate(242.77 313.78)"><tspan class="cls-26">W</tspan><tspan x="5.69" y="0">es</tspan><tspan class="cls-17" x="11.97" y="0">t</tspan><tspan x="14.25" y="0">e</tspan><tspan class="cls-12" x="17.75" y="0">r</tspan><tspan class="cls-13" x="20.07" y="0">n</tspan><tspan class="cls-54" x="-1.68" y="8.4">E</tspan><tspan x="1.71" y="8.4">u</tspan><tspan class="cls-55" x="5.57" y="8.4">r</tspan><tspan x="7.82" y="8.4">asians</tspan></text><text class="cls-3" transform="translate(278.78 313.78)">Eas<tspan class="cls-17" x="9.59" y="0">t</tspan><tspan x="11.87" y="0">e</tspan><tspan class="cls-12" x="15.37" y="0">r</tspan><tspan x="17.69" y="0">n</tspan><tspan class="cls-54" x="-2.87" y="8.4">E</tspan><tspan x="0.52" y="8.4">u</tspan><tspan class="cls-55" x="4.38" y="8.4">r</tspan><tspan x="6.63" y="8.4">asians</tspan></text><line class="cls-49" x1="50.92" y1="305.73" x2="41.86" y2="305.73"/><text class="cls-56" transform="translate(18.34 158.87) rotate(-90)">T<tspan class="cls-57" x="4.63" y="0">ime</tspan></text><rect class="cls-27" x="91.41" y="131" width="10" height="15" rx="5"/><rect class="cls-28" x="91.41" y="131" width="10" height="15" rx="5"/><text class="cls-23" transform="translate(93.76 140.25)">1.</text><rect x="246.91" y="191.5" width="15" height="108"/><text class="cls-3" transform="translate(210.11 312.44)">Eas<tspan class="cls-17" x="9.59" y="0">t</tspan><tspan x="11.87" y="0">e</tspan><tspan class="cls-12" x="15.37" y="0">r</tspan><tspan x="17.69" y="0">n </tspan><tspan class="cls-8" x="0" y="8.4">A</tspan><tspan x="4.24" y="8.4">f</tspan><tspan class="cls-12" x="6.28" y="8.4">r</tspan><tspan class="cls-13" x="8.6" y="8.4">ican</tspan></text><text class="cls-3" transform="translate(305.16 314.44)"><tspan class="cls-12">O</tspan><tspan class="cls-58" x="4.85" y="0">c</tspan><tspan x="7.95" y="0">eanian</tspan></text><rect x="167.49" y="60.02" width="15" height="72.03" transform="translate(254.93 -95.45) rotate(90)"/><rect x="142.5" y="3.5" width="15" height="122" transform="translate(198.41 -102) rotate(90)"/><rect x="308.5" y="209.5" width="15" height="50" transform="translate(534.41 -98) rotate(90)"/><line class="cls-36" x1="172.42" y1="266.2" x2="165.96" y2="266.2"/><path class="cls-37" d="M176,282.7a30.18,30.18,0,0,0,8.55-4.75l-1.72,4.75,1.72,4.76A30.45,30.45,0,0,0,176,282.7Z" transform="translate(-16.09 -16.5)"/><text class="cls-3" transform="translate(287.74 119)"><tspan class="cls-59">O</tspan><tspan x="4.84" y="0">ut of </tspan><tspan class="cls-54" x="19.87" y="0">A</tspan><tspan x="24.11" y="0">f</tspan><tspan class="cls-18" x="26.15" y="0">r</tspan><tspan x="28.47" y="0">ica </tspan><tspan class="cls-18" x="0" y="8.4">B</tspan><tspan x="3.82" y="8.4">ottleneck</tspan></text><rect x="309.91" y="212.5" width="15" height="87"/><rect x="274.91" y="213.5" width="15" height="86"/><rect x="212.91" y="236.5" width="15" height="63"/><rect x="174.91" y="236.5" width="15" height="63"/><rect x="142.91" y="221.5" width="15" height="78"/><rect x="104.91" y="221.5" width="15" height="78"/><rect x="72.91" y="40.5" width="15" height="259"/></svg>