<svg id="Layer_1" data-name="Layer 1" xmlns="http://www.w3.org/2000/svg" xmlns:xlink="http://www.w3.org/1999/xlink" viewBox="0 0 367.81 214.43"><defs><style>.cls-1,.cls-10,.cls-14,.cls-15,.cls-17,.cls-24,.cls-30,.cls-31,.cls-5,.cls-6,.cls-7,.cls-8,.cls-9{fill:none;}.cls-2{clip-path:url(#clip-path);}.cls-3{fill:#fff;}.cls-4{fill:#d3d3d3;opacity:0.05;}.cls-5,.cls-6{stroke:#e52521;}.cls-10,.cls-14,.cls-15,.cls-17,.cls-24,.cls-30,.cls-31,.cls-5,.cls-6,.cls-7,.cls-8,.cls-9{stroke-linejoin:round;stroke-width:1.07px;}.cls-30,.cls-5,.cls-7,.cls-9{stroke-dasharray:4.27 4.27;}.cls-7,.cls-8{stroke:#2b4b9b;}.cls-10,.cls-9{stroke:#67b32e;}.cls-11{fill:#e52521;}.cls-11,.cls-12,.cls-13{opacity:0.3;}.cls-12{fill:#2b4b9b;}.cls-13{fill:#67b32e;}.cls-14,.cls-30,.cls-31{stroke:#010101;}.cls-14,.cls-15,.cls-24{stroke-linecap:round;}.cls-15,.cls-17{stroke:#343434;}.cls-16,.cls-26{font-size:9px;}.cls-16{fill:#4e4d4d;}.cls-16,.cls-18,.cls-20,.cls-22,.cls-26{font-family:Helvetica;}.cls-18{font-size:11px;}.cls-18,.cls-20,.cls-22,.cls-26{fill:#010101;}.cls-19{letter-spacing:-0.01em;}.cls-20{font-size:8px;}.cls-21{letter-spacing:-0.14em;}.cls-22{font-size:13px;}.cls-23{clip-path:url(#clip-path-2);}.cls-24{stroke:#fff;}.cls-25{clip-path:url(#clip-path-3);}.cls-27{letter-spacing:-0.14em;}.cls-28{letter-spacing:0.01em;}.cls-29{letter-spacing:-0.02em;}</style><clipPath id="clip-path" transform="translate(-21.41 0.54)"><rect class="cls-1" x="69.75" y="28.51" width="116.52" height="116.52"/></clipPath><clipPath id="clip-path-2" transform="translate(-21.41 0.54)"><rect class="cls-1" x="191.75" width="170.21" height="187.77"/></clipPath><clipPath id="clip-path-3" transform="translate(-21.41 0.54)"><rect class="cls-1" x="239.96" y="28.51" width="116.52" height="116.52"/></clipPath></defs><g class="cls-2"><rect class="cls-3" x="48.34" y="29.05" width="116.52" height="116.52"/><rect class="cls-4" x="125.35" y="34.34" width="34.21" height="105.93"/><rect class="cls-4" x="125.35" y="34.34" width="34.21" height="105.93"/><rect class="cls-4" x="125.35" y="34.34" width="34.21" height="105.93"/><rect class="cls-4" x="125.35" y="34.34" width="34.21" height="105.93"/><rect class="cls-4" x="125.35" y="34.34" width="34.21" height="105.93"/><rect class="cls-4" x="125.35" y="34.34" width="34.21" height="105.93"/><rect class="cls-4" x="125.35" y="34.34" width="34.21" height="105.93"/><rect class="cls-4" x="125.35" y="34.34" width="34.21" height="105.93"/><rect class="cls-4" x="125.35" y="34.34" width="34.21" height="105.93"/><rect class="cls-4" x="125.35" y="34.34" width="34.21" height="105.93"/><rect class="cls-4" x="125.35" y="34.34" width="34.21" height="105.93"/><rect class="cls-4" x="125.35" y="34.34" width="34.21" height="105.93"/><rect class="cls-4" x="125.35" y="34.34" width="34.21" height="105.93"/><rect class="cls-4" x="125.35" y="34.34" width="34.21" height="105.93"/><rect class="cls-4" x="125.35" y="34.34" width="34.21" height="105.93"/><rect class="cls-4" x="125.35" y="34.34" width="34.21" height="105.93"/><rect class="cls-4" x="125.35" y="34.34" width="34.21" height="105.93"/><rect class="cls-4" x="125.35" y="34.34" width="34.21" height="105.93"/><rect class="cls-4" x="125.35" y="34.34" width="34.21" height="105.93"/><rect class="cls-4" x="125.35" y="34.34" width="34.21" height="105.93"/><rect class="cls-4" x="125.35" y="34.34" width="34.21" height="105.93"/><rect class="cls-4" x="125.35" y="34.34" width="34.21" height="105.93"/><rect class="cls-4" x="125.35" y="34.34" width="34.21" height="105.93"/><rect class="cls-4" x="125.35" y="34.34" width="34.21" height="105.93"/><rect class="cls-4" x="125.35" y="34.34" width="34.21" height="105.93"/><rect class="cls-4" x="125.35" y="34.34" width="34.21" height="105.93"/><rect class="cls-4" x="125.35" y="34.34" width="34.21" height="105.93"/><rect class="cls-4" x="125.35" y="34.34" width="34.21" height="105.93"/><rect class="cls-4" x="125.35" y="34.34" width="34.21" height="105.93"/><rect class="cls-4" x="125.35" y="34.34" width="34.21" height="105.93"/><rect class="cls-4" x="125.35" y="34.34" width="34.21" height="105.93"/><rect class="cls-4" x="125.35" y="34.34" width="34.21" height="105.93"/><rect class="cls-4" x="125.35" y="34.34" width="34.21" height="105.93"/><rect class="cls-4" x="125.35" y="34.34" width="34.21" height="105.93"/><rect class="cls-4" x="125.35" y="34.34" width="34.21" height="105.93"/><rect class="cls-4" x="125.35" y="34.34" width="34.21" height="105.93"/><rect class="cls-4" x="125.35" y="34.34" width="34.21" height="105.93"/><rect class="cls-4" x="125.35" y="34.34" width="34.21" height="105.93"/><rect class="cls-4" x="125.35" y="34.34" width="34.21" height="105.93"/><rect class="cls-4" x="125.35" y="34.34" width="34.21" height="105.93"/><rect class="cls-4" x="125.35" y="34.34" width="34.21" height="105.93"/><rect class="cls-4" x="125.35" y="34.34" width="34.21" height="105.93"/><rect class="cls-4" x="125.35" y="34.34" width="34.21" height="105.93"/><rect class="cls-4" x="125.35" y="34.34" width="34.21" height="105.93"/><rect class="cls-4" x="125.35" y="34.34" width="34.21" height="105.93"/><rect class="cls-4" x="125.35" y="34.34" width="34.21" height="105.93"/><rect class="cls-4" x="125.35" y="34.34" width="34.21" height="105.93"/><rect class="cls-4" x="125.35" y="34.34" width="34.21" height="105.93"/><rect class="cls-4" x="125.35" y="34.34" width="34.21" height="105.93"/><rect class="cls-4" x="125.35" y="34.34" width="34.21" height="105.93"/><rect class="cls-4" x="125.35" y="34.34" width="34.21" height="105.93"/><rect class="cls-4" x="125.35" y="34.34" width="34.21" height="105.93"/><rect class="cls-4" x="125.35" y="34.34" width="34.21" height="105.93"/><rect class="cls-4" x="125.35" y="34.34" width="34.21" height="105.93"/><rect class="cls-4" x="125.35" y="34.34" width="34.21" height="105.93"/><rect class="cls-4" x="125.35" y="34.34" width="34.21" height="105.93"/><rect class="cls-4" x="125.35" y="34.34" width="34.21" height="105.93"/><rect class="cls-4" x="125.35" y="34.34" width="34.21" height="105.93"/><rect class="cls-4" x="125.35" y="34.34" width="34.21" height="105.93"/><rect class="cls-4" x="125.35" y="34.34" width="34.21" height="105.93"/><rect class="cls-4" x="125.35" y="34.34" width="34.21" height="105.93"/><rect class="cls-4" x="125.35" y="34.34" width="34.21" height="105.93"/><rect class="cls-4" x="125.35" y="34.34" width="34.21" height="105.93"/><rect class="cls-4" x="125.35" y="34.34" width="34.21" height="105.93"/><rect class="cls-4" x="125.35" y="34.34" width="34.21" height="105.93"/><rect class="cls-4" x="125.35" y="34.34" width="34.21" height="105.93"/><rect class="cls-4" x="125.35" y="34.34" width="34.21" height="105.93"/><rect class="cls-4" x="125.35" y="34.34" width="34.21" height="105.93"/><rect class="cls-4" x="125.35" y="34.34" width="34.21" height="105.93"/><rect class="cls-4" x="125.35" y="34.34" width="34.21" height="105.93"/><rect class="cls-4" x="125.35" y="34.34" width="34.21" height="105.93"/><rect class="cls-4" x="125.35" y="34.34" width="34.21" height="105.93"/><rect class="cls-4" x="125.35" y="34.34" width="34.21" height="105.93"/><rect class="cls-4" x="125.35" y="34.34" width="34.21" height="105.93"/><rect class="cls-4" x="125.35" y="34.34" width="34.21" height="105.93"/><rect class="cls-4" x="125.35" y="34.34" width="34.21" height="105.93"/><rect class="cls-4" x="125.35" y="34.34" width="34.21" height="105.93"/><rect class="cls-4" x="125.35" y="34.34" width="34.21" height="105.93"/><rect class="cls-4" x="125.35" y="34.34" width="34.21" height="105.93"/><rect class="cls-4" x="125.35" y="34.34" width="34.21" height="105.93"/><rect class="cls-4" x="125.35" y="34.34" width="34.21" height="105.93"/><rect class="cls-4" x="125.35" y="34.34" width="34.21" height="105.93"/><rect class="cls-4" x="125.35" y="34.34" width="34.21" height="105.93"/><rect class="cls-4" x="125.35" y="34.34" width="34.21" height="105.93"/><rect class="cls-4" x="125.35" y="34.34" width="34.21" height="105.93"/><rect class="cls-4" x="125.35" y="34.34" width="34.21" height="105.93"/><rect class="cls-4" x="125.35" y="34.34" width="34.21" height="105.93"/><rect class="cls-4" x="125.35" y="34.34" width="34.21" height="105.93"/><rect class="cls-4" x="125.35" y="34.34" width="34.21" height="105.93"/><rect class="cls-4" x="125.35" y="34.34" width="34.21" height="105.93"/><rect class="cls-4" x="125.35" y="34.34" width="34.21" height="105.93"/><rect class="cls-4" x="125.35" y="34.34" width="34.21" height="105.93"/><rect class="cls-4" x="125.35" y="34.34" width="34.21" height="105.93"/><rect class="cls-4" x="125.35" y="34.34" width="34.21" height="105.93"/><rect class="cls-4" x="125.35" y="34.34" width="34.21" height="105.93"/><rect class="cls-4" x="125.35" y="34.34" width="34.21" height="105.93"/><rect class="cls-4" x="125.35" y="34.34" width="34.21" height="105.93"/><rect class="cls-4" x="125.35" y="34.34" width="34.21" height="105.93"/><rect class="cls-4" x="125.35" y="34.34" width="34.21" height="105.93"/><rect class="cls-4" x="125.35" y="34.34" width="34.21" height="105.93"/><rect class="cls-4" x="125.35" y="34.34" width="34.21" height="105.93"/><rect class="cls-4" x="125.35" y="34.34" width="34.21" height="105.93"/><rect class="cls-4" x="125.35" y="34.34" width="34.21" height="105.93"/><rect class="cls-4" x="125.35" y="34.34" width="34.21" height="105.93"/><rect class="cls-4" x="125.35" y="34.34" width="34.21" height="105.93"/><rect class="cls-4" x="125.35" y="34.34" width="34.21" height="105.93"/><rect class="cls-4" x="125.35" y="34.34" width="34.21" height="105.93"/><rect class="cls-4" x="125.35" y="34.34" width="34.21" height="105.93"/><rect class="cls-4" x="125.35" y="34.34" width="34.21" height="105.93"/><rect class="cls-4" x="125.35" y="34.34" width="34.21" height="105.93"/><rect class="cls-4" x="125.35" y="34.34" width="34.21" height="105.93"/><rect class="cls-4" x="125.35" y="34.34" width="34.21" height="105.93"/><rect class="cls-4" x="125.35" y="34.34" width="34.21" height="105.93"/><rect class="cls-4" x="125.35" y="34.34" width="34.21" height="105.93"/><rect class="cls-4" x="125.35" y="34.34" width="34.21" height="105.93"/><rect class="cls-4" x="125.35" y="34.34" width="34.21" height="105.93"/><rect class="cls-4" x="125.35" y="34.34" width="34.21" height="105.93"/><rect class="cls-4" x="125.35" y="34.34" width="34.21" height="105.93"/><rect class="cls-4" x="125.35" y="34.34" width="34.21" height="105.93"/><rect class="cls-4" x="125.35" y="34.34" width="34.21" height="105.93"/><rect class="cls-4" x="125.35" y="34.34" width="34.21" height="105.93"/><rect class="cls-4" x="125.35" y="34.34" width="34.21" height="105.93"/><rect class="cls-4" x="125.35" y="34.34" width="34.21" height="105.93"/><rect class="cls-4" x="125.35" y="34.34" width="34.21" height="105.93"/><rect class="cls-4" x="125.35" y="34.34" width="34.21" height="105.93"/><rect class="cls-4" x="125.35" y="34.34" width="34.21" height="105.93"/><rect class="cls-4" x="125.35" y="34.34" width="34.21" height="105.93"/><rect class="cls-4" x="125.35" y="34.34" width="34.21" height="105.93"/><rect class="cls-4" x="125.35" y="34.34" width="34.21" height="105.93"/><rect class="cls-4" x="125.35" y="34.34" width="34.21" height="105.93"/><rect class="cls-4" x="125.35" y="34.34" width="34.21" height="105.93"/><rect class="cls-4" x="125.35" y="34.34" width="34.21" height="105.93"/><rect class="cls-4" x="125.35" y="34.34" width="34.21" height="105.93"/><rect class="cls-4" x="125.35" y="34.34" width="34.21" height="105.93"/><rect class="cls-4" x="125.35" y="34.34" width="34.21" height="105.93"/><rect class="cls-4" x="125.35" y="34.34" width="34.21" height="105.93"/><rect class="cls-4" x="125.35" y="34.34" width="34.21" height="105.93"/><rect class="cls-4" x="125.35" y="34.34" width="34.21" height="105.93"/><rect class="cls-4" x="125.35" y="34.34" width="34.21" height="105.93"/><rect class="cls-4" x="125.35" y="34.34" width="34.21" height="105.93"/><rect class="cls-4" x="125.35" y="34.34" width="34.21" height="105.93"/><rect class="cls-4" x="125.35" y="34.34" width="34.21" height="105.93"/><rect class="cls-4" x="125.35" y="34.34" width="34.21" height="105.93"/><rect class="cls-4" x="125.35" y="34.34" width="34.21" height="105.93"/><rect class="cls-4" x="125.35" y="34.34" width="34.21" height="105.93"/><rect class="cls-4" x="125.35" y="34.34" width="34.21" height="105.93"/><rect class="cls-4" x="125.35" y="34.34" width="34.21" height="105.93"/><rect class="cls-4" x="125.35" y="34.34" width="34.21" height="105.93"/><rect class="cls-4" x="125.35" y="34.34" width="34.21" height="105.93"/><rect class="cls-4" x="125.35" y="34.34" width="34.21" height="105.93"/><rect class="cls-4" x="125.35" y="34.34" width="34.21" height="105.93"/><rect class="cls-4" x="125.35" y="34.34" width="34.21" height="105.93"/><rect class="cls-4" x="125.35" y="34.34" width="34.21" height="105.93"/><rect class="cls-4" x="125.35" y="34.34" width="34.21" height="105.93"/><rect class="cls-4" x="125.35" y="34.34" width="34.21" height="105.93"/><rect class="cls-4" x="125.35" y="34.34" width="34.21" height="105.93"/><rect class="cls-4" x="125.35" y="34.34" width="34.21" height="105.93"/><rect class="cls-4" x="125.35" y="34.34" width="34.21" height="105.93"/><rect class="cls-4" x="125.35" y="34.34" width="34.21" height="105.93"/><rect class="cls-4" x="125.35" y="34.34" width="34.21" height="105.93"/><rect class="cls-4" x="125.35" y="34.34" width="34.21" height="105.93"/><rect class="cls-4" x="125.35" y="34.34" width="34.21" height="105.93"/><rect class="cls-4" x="125.35" y="34.34" width="34.21" height="105.93"/><rect class="cls-4" x="125.35" y="34.34" width="34.21" height="105.93"/><rect class="cls-4" x="125.35" y="34.34" width="34.21" height="105.93"/><rect class="cls-4" x="125.35" y="34.34" width="34.21" height="105.93"/><rect class="cls-4" x="125.35" y="34.34" width="34.21" height="105.93"/><rect class="cls-4" x="125.35" y="34.34" width="34.21" height="105.93"/><rect class="cls-4" x="125.35" y="34.34" width="34.21" height="105.93"/><rect class="cls-4" x="125.35" y="34.34" width="34.21" height="105.93"/><rect class="cls-4" x="125.35" y="34.34" width="34.21" height="105.93"/><rect class="cls-4" x="125.35" y="34.34" width="34.21" height="105.93"/><rect class="cls-4" x="125.35" y="34.34" width="34.21" height="105.93"/><rect class="cls-4" x="125.35" y="34.34" width="34.21" height="105.93"/><rect class="cls-4" x="125.35" y="34.34" width="34.21" height="105.93"/><rect class="cls-4" x="125.35" y="34.34" width="34.21" height="105.93"/><rect class="cls-4" x="125.35" y="34.34" width="34.21" height="105.93"/><rect class="cls-4" x="125.35" y="34.34" width="34.21" height="105.93"/><rect class="cls-4" x="125.35" y="34.34" width="34.21" height="105.93"/><rect class="cls-4" x="125.35" y="34.34" width="34.21" height="105.93"/><rect class="cls-4" x="125.35" y="34.34" width="34.21" height="105.93"/><rect class="cls-4" x="125.35" y="34.34" width="34.21" height="105.93"/><rect class="cls-4" x="125.35" y="34.34" width="34.21" height="105.93"/><rect class="cls-4" x="125.35" y="34.34" width="34.21" height="105.93"/><rect class="cls-4" x="125.35" y="34.34" width="34.21" height="105.93"/><rect class="cls-4" x="125.35" y="34.34" width="34.21" height="105.93"/><rect class="cls-4" x="125.35" y="34.34" width="34.21" height="105.93"/><rect class="cls-4" x="125.35" y="34.34" width="34.21" height="105.93"/><rect class="cls-4" x="125.35" y="34.34" width="34.21" height="105.93"/><rect class="cls-4" x="125.35" y="34.34" width="34.21" height="105.93"/><rect class="cls-4" x="125.35" y="34.34" width="34.21" height="105.93"/><rect class="cls-4" x="125.35" y="34.34" width="34.21" height="105.93"/><rect class="cls-4" x="125.35" y="34.34" width="34.21" height="105.93"/><rect class="cls-4" x="125.35" y="34.34" width="34.21" height="105.93"/><rect class="cls-4" x="125.35" y="34.34" width="34.21" height="105.93"/><rect class="cls-4" x="125.35" y="34.34" width="34.21" height="105.93"/><rect class="cls-4" x="125.35" y="34.34" width="34.21" height="105.93"/><rect class="cls-4" x="125.35" y="34.34" width="34.21" height="105.93"/><polyline class="cls-5" points="48.34 140.12 58.67 140.12 58.67 140.1 65.61 140.1 65.61 139.57 72.55 139.57 72.55 140.12 79.49 140.12 79.49 139.28 86.43 139.28 86.43 137.72 93.37 137.72 93.37 135.51 100.31 135.51 100.31 131.91 107.25 131.91 107.25 128.63 114.19 128.63 114.19 125.97 121.13 125.97 121.13 127.14 128.07 127.14 128.07 129.21 135.01 129.21 135.01 132.13 141.95 132.13 141.95 134.56 148.89 134.56 148.89 135.16 155.83 135.16 155.83 135.78"/><polyline class="cls-6" points="48.34 115.39 58.67 115.39 58.67 134.47 65.61 134.47 65.61 128.38 72.55 128.38 72.55 119.95 79.49 119.95 79.49 102.25 86.43 102.25 86.43 75.19 93.37 75.19 93.37 45.03 100.31 45.03 100.31 44.83 107.25 44.83 107.25 49.15 114.19 49.15 114.19 67.55 121.13 67.55 121.13 89.67 128.07 89.67 128.07 112.44 135.01 112.44 135.01 126 141.95 126 141.95 132.25 148.89 132.25 148.89 134.13 155.83 134.13 155.83 135.41"/><polyline class="cls-7" points="48.34 140.26 58.67 140.26 58.67 140.13 65.61 140.13 65.61 140.26 72.55 140.26 72.55 140.25 79.49 140.25 79.49 139.97 86.43 139.97 86.43 139.59 93.37 139.59 93.37 137.79 100.31 137.79 100.31 135.13 107.25 135.13 107.25 132.32 114.19 132.32 114.19 130.94 121.13 130.94 121.13 129.53 128.07 129.53 128.07 131 135.01 131 135.01 133.09 141.95 133.09 141.95 134.53 148.89 134.53 148.89 135.53 155.83 135.53 155.83 136.13"/><polyline class="cls-8" points="48.34 138.85 58.67 138.85 58.67 140.25 65.61 140.25 65.61 139.43 72.55 139.43 72.55 133.9 79.49 133.9 79.49 129.91 86.43 129.91 86.43 113.08 93.37 113.08 93.37 96.64 100.31 96.64 100.31 86.86 107.25 86.86 107.25 85.77 114.19 85.77 114.19 88.17 121.13 88.17 121.13 99.22 128.07 99.22 128.07 117.09 135.01 117.09 135.01 126.78 141.95 126.78 141.95 131.82 148.89 131.82 148.89 134.44 155.83 134.44 155.83 135.51"/><polyline class="cls-9" points="48.34 140.26 58.67 140.26 58.67 140.13 65.61 140.13 65.61 140.16 72.55 140.16 72.55 140.25 79.49 140.25 86.43 140.25 86.43 139.81 93.37 139.81 93.37 139.49 100.31 139.49 100.31 138.13 107.25 138.13 107.25 135.63 114.19 135.63 114.19 134.38 121.13 134.38 121.13 132.82 128.07 132.82 128.07 132.78 135.01 132.78 135.01 133.97 141.95 133.97 141.95 135.06 148.89 135.06 148.89 135.79 155.83 135.79 155.83 136.22"/><polyline class="cls-10" points="48.34 134.31 58.67 134.31 58.67 139.22 65.61 139.22 65.61 138.54 72.55 138.54 72.55 132.94 79.49 132.94 79.49 132.34 86.43 132.34 86.43 119.3 93.37 119.3 93.37 102.67 100.31 102.67 100.31 97.44 107.25 97.44 107.25 102.97 114.19 102.97 114.19 102.89 121.13 102.89 121.13 111.19 128.07 111.19 128.07 120.83 135.01 120.83 135.01 127.97 141.95 127.97 141.95 132.62 148.89 132.62 148.89 134.62 155.83 134.62 155.83 135.25"/><polygon class="cls-11" points="58.67 140.22 65.61 140.22 65.61 140.26 72.55 140.26 72.55 140.25 79.49 140.25 79.49 139.53 86.43 139.53 86.43 138.07 93.37 138.07 93.37 135.56 100.31 135.56 100.31 132.01 107.25 132.01 107.25 129.31 114.19 129.31 114.19 127.94 121.13 127.94 121.13 127.97 128.07 127.97 128.07 129.31 135.01 129.31 135.01 132.56 141.95 132.56 141.95 134.68 148.89 134.68 148.89 135.53 155.83 135.53 155.83 135.93 155.83 135.75 155.83 135.15 148.89 135.15 148.89 134.19 141.95 134.19 141.95 131.97 135.01 131.97 135.01 129.16 128.07 129.16 128.07 125.53 121.13 125.53 121.13 125.64 114.19 125.64 114.19 127.63 107.25 127.63 107.25 130.88 100.31 130.88 100.31 135.47 93.37 135.47 93.37 137.44 86.43 137.44 86.43 137.78 79.49 137.78 79.49 139.76 72.55 139.76 72.55 138.16 65.61 138.16 65.61 139.25 58.67 139.25 58.67 140.22"/><polygon class="cls-11" points="58.67 137.6 65.61 137.6 65.61 132.94 72.55 132.94 72.55 121.44 79.49 121.44 79.49 105.39 86.43 105.39 86.43 84.7 93.37 84.7 93.37 45.88 100.31 45.88 100.31 52.45 107.25 52.45 107.25 51.48 114.19 51.48 114.19 70.56 121.13 70.56 121.13 90.31 128.07 90.31 128.07 113.14 135.01 113.14 135.01 126.19 141.95 126.19 141.95 132.44 148.89 132.44 148.89 134.54 155.83 134.54 155.83 135.43 155.83 135.24 155.83 134 148.89 134 148.89 132.06 141.95 132.06 141.95 125.83 135.01 125.83 135.01 108.81 128.07 108.81 128.07 87.09 121.13 87.09 121.13 61.91 114.19 61.91 114.19 37.91 107.25 37.91 107.25 34.59 100.31 34.59 100.31 41.3 93.37 41.3 93.37 70.19 86.43 70.19 86.43 90.89 79.49 90.89 79.49 116.48 72.55 116.48 72.55 120.13 65.61 120.13 65.61 133.93 58.67 133.93 58.67 137.6"/><polygon class="cls-12" points="58.67 140.26 65.61 140.26 72.55 140.26 79.49 140.26 79.49 140.25 86.43 140.25 86.43 139.62 93.37 139.62 93.37 138.19 100.31 138.19 100.31 137.43 107.25 137.43 107.25 132.99 114.19 132.99 114.19 131.16 121.13 131.16 121.13 129.81 128.07 129.81 128.07 132.01 135.01 132.01 135.01 133.25 141.95 133.25 141.95 134.82 148.89 134.82 148.89 135.65 155.83 135.65 155.83 136.19 155.83 136 155.83 135.5 148.89 135.5 148.89 134.47 141.95 134.47 141.95 132.91 135.01 132.91 135.01 130.91 128.07 130.91 128.07 128.31 121.13 128.31 121.13 130 114.19 130 114.19 131.16 107.25 131.16 107.25 134.75 100.31 134.75 100.31 137.65 93.37 137.65 93.37 139 86.43 139 86.43 138.96 79.49 138.96 79.49 140.15 72.55 140.15 72.55 140.25 65.61 140.25 65.61 140.09 58.67 140.09 58.67 140.26"/><polygon class="cls-12" points="58.67 140.26 65.61 140.26 65.61 139.51 72.55 139.51 72.55 134.81 79.49 134.81 79.49 132.68 86.43 132.68 86.43 123.53 93.37 123.53 93.37 100.92 100.31 100.92 100.31 92.03 107.25 92.03 107.25 86.31 114.19 86.31 114.19 90.83 121.13 90.83 121.13 102.92 128.07 102.92 128.07 117.59 135.01 117.59 135.01 126.83 141.95 126.83 141.95 132 148.89 132 148.89 134.96 155.83 134.96 155.83 135.57 155.83 135.41 155.83 134.37 148.89 134.37 148.89 131.51 141.95 131.51 141.95 126.56 135.01 126.56 135.01 115.52 128.07 115.52 128.07 99.17 121.13 99.17 121.13 85.42 114.19 85.42 114.19 77.17 107.25 77.17 107.25 83.72 100.31 83.72 100.31 94.52 93.37 94.52 93.37 113.03 86.43 113.03 86.43 123.17 79.49 123.17 79.49 130.66 72.55 130.66 72.55 137.81 65.61 137.81 65.61 137.18 58.67 137.18 58.67 140.26"/><polygon class="cls-13" points="58.67 140.26 65.61 140.26 72.55 140.26 79.49 140.26 86.43 140.26 86.43 139.88 93.37 139.88 93.37 139.56 100.31 139.56 100.31 138.63 107.25 138.63 107.25 136.16 114.19 136.16 114.19 134.76 121.13 134.76 121.13 133.13 128.07 133.13 128.07 132.97 135.01 132.97 135.01 134.1 141.95 134.1 141.95 135.49 148.89 135.49 148.89 135.91 155.83 135.91 155.83 136.25 155.83 136.19 155.83 135.65 148.89 135.65 148.89 134.94 141.95 134.94 141.95 133.53 135.01 133.53 135.01 132.75 128.07 132.75 128.07 130.49 121.13 130.49 121.13 134.38 114.19 134.38 114.19 135.35 107.25 135.35 107.25 137.56 100.31 137.56 100.31 139.34 93.37 139.34 93.37 139.75 86.43 139.75 86.43 140.09 79.49 140.09 79.49 140.21 72.55 140.21 72.55 139.94 65.61 139.94 65.61 140 58.67 140 58.67 140.26"/><polygon class="cls-13" points="58.67 140.1 65.61 140.1 65.61 139.44 72.55 139.44 72.55 135.53 79.49 135.53 79.49 134.01 86.43 134.01 86.43 126.33 93.37 126.33 93.37 110.16 100.31 110.16 100.31 101.92 107.25 101.92 107.25 104.36 114.19 104.36 114.19 104.31 121.13 104.31 121.13 111.2 128.07 111.2 128.07 122.17 135.01 122.17 135.01 128 141.95 128 141.95 133 148.89 133 148.89 134.63 155.83 134.63 155.83 135.56 155.83 135.16 155.83 134.35 148.89 134.35 148.89 132.5 141.95 132.5 141.95 127.48 135.01 127.48 135.01 120.58 128.07 120.58 128.07 110.72 121.13 110.72 121.13 101.86 114.19 101.86 114.19 92.78 107.25 92.78 107.25 92.16 100.31 92.16 100.31 102.47 93.37 102.47 93.37 115.22 86.43 115.22 86.43 126.72 79.49 126.72 79.49 132.37 72.55 132.37 72.55 138.4 65.61 138.4 65.61 135.69 58.67 135.69 58.67 140.1"/><line class="cls-14" x1="3.51" y1="145.57" x2="3.51" y2="142.73"/><line class="cls-14" x1="16.14" y1="145.57" x2="16.14" y2="142.73"/><line class="cls-14" x1="25.1" y1="145.57" x2="25.1" y2="142.73"/><line class="cls-14" x1="32.05" y1="145.57" x2="32.05" y2="139.9"/><line class="cls-14" x1="37.73" y1="145.57" x2="37.73" y2="142.73"/><line class="cls-14" x1="42.53" y1="145.57" x2="42.53" y2="142.73"/><line class="cls-14" x1="46.69" y1="145.57" x2="46.69" y2="142.73"/><line class="cls-14" x1="50.36" y1="145.57" x2="50.36" y2="142.73"/><line class="cls-14" x1="53.64" y1="145.57" x2="53.64" y2="137.07"/><line class="cls-14" x1="75.22" y1="145.57" x2="75.22" y2="142.73"/><line class="cls-14" x1="87.85" y1="145.57" x2="87.85" y2="142.73"/><line class="cls-14" x1="96.81" y1="145.57" x2="96.81" y2="142.73"/><line class="cls-14" x1="103.76" y1="145.57" x2="103.76" y2="139.9"/><line class="cls-14" x1="109.44" y1="145.57" x2="109.44" y2="142.73"/><line class="cls-14" x1="114.24" y1="145.57" x2="114.24" y2="142.73"/><line class="cls-14" x1="118.4" y1="145.57" x2="118.4" y2="142.73"/><line class="cls-14" x1="122.07" y1="145.57" x2="122.07" y2="142.73"/><line class="cls-14" x1="125.35" y1="145.57" x2="125.35" y2="137.07"/><line class="cls-14" x1="146.94" y1="145.57" x2="146.94" y2="142.73"/><line class="cls-14" x1="159.56" y1="145.57" x2="159.56" y2="142.73"/><line class="cls-14" x1="168.52" y1="145.57" x2="168.52" y2="142.73"/><line class="cls-14" x1="175.47" y1="145.57" x2="175.47" y2="139.9"/><line class="cls-14" x1="181.15" y1="145.57" x2="181.15" y2="142.73"/><line class="cls-14" x1="185.95" y1="145.57" x2="185.95" y2="142.73"/><line class="cls-14" x1="190.11" y1="145.57" x2="190.11" y2="142.73"/><line class="cls-14" x1="193.78" y1="145.57" x2="193.78" y2="142.73"/><line class="cls-14" x1="197.06" y1="145.57" x2="197.06" y2="137.07"/><line class="cls-14" x1="48.34" y1="140.27" x2="56.85" y2="140.27"/><rect class="cls-15" x="48.34" y="29.05" width="116.52" height="116.52"/></g><text class="cls-16" transform="translate(25.9 143.49)">0.00</text><text class="cls-16" transform="translate(25.9 117.01)">1.00</text><text class="cls-16" transform="translate(25.9 90.53)">2.00</text><text class="cls-16" transform="translate(25.9 64.06)">3.00</text><text class="cls-16" transform="translate(25.9 37.58)">4.00</text><line class="cls-17" x1="45.6" y1="140.27" x2="48.34" y2="140.27"/><line class="cls-17" x1="45.6" y1="113.79" x2="48.34" y2="113.79"/><line class="cls-17" x1="45.6" y1="87.31" x2="48.34" y2="87.31"/><line class="cls-17" x1="45.6" y1="60.83" x2="48.34" y2="60.83"/><line class="cls-17" x1="45.6" y1="34.35" x2="48.34" y2="34.35"/><text class="cls-18" transform="translate(18.32 138.87) rotate(-90)">Mig<tspan class="cls-19" x="17.72" y="0">r</tspan><tspan x="21.28" y="0">ation Rate </tspan></text><text class="cls-18" transform="translate(18.32 64.4) rotate(-90)">(</text><text class="cls-18" transform="translate(18.32 60.74) rotate(-90)">10</text><text class="cls-20" transform="translate(12.85 48.51) rotate(-90)">−4</text><text class="cls-18" transform="translate(18.32 39.4) rotate(-90)">)</text><line class="cls-17" x1="53.64" y1="148.31" x2="53.64" y2="145.57"/><line class="cls-17" x1="87.85" y1="148.31" x2="87.85" y2="145.57"/><line class="cls-17" x1="125.35" y1="148.31" x2="125.35" y2="145.57"/><line class="cls-17" x1="159.56" y1="148.31" x2="159.56" y2="145.57"/><text class="cls-16" transform="translate(46.38 156.95)">10k</text><text class="cls-16" transform="translate(80.6 156.95)">30k</text><text class="cls-16" transform="translate(115.59 156.95)">100k</text><text class="cls-16" transform="translate(149.81 156.95)">300k</text><text class="cls-18" transform="translate(82.3 169.57)"><tspan class="cls-21">Y</tspan><tspan x="5.8" y="0">ears ago</tspan></text><text class="cls-22" transform="translate(0 16.78)">a</text><g class="cls-23"><rect class="cls-3" x="170.34" y="0.54" width="170.21" height="187.77"/><rect class="cls-24" x="170.34" y="0.54" width="170.21" height="187.77"/></g><g class="cls-25"><rect class="cls-3" x="218.55" y="29.05" width="116.52" height="116.52"/><rect class="cls-4" x="295.56" y="34.34" width="34.21" height="105.93"/><rect class="cls-4" x="295.56" y="34.34" width="34.21" height="105.93"/><rect class="cls-4" x="295.56" y="34.34" width="34.21" height="105.93"/><rect class="cls-4" x="295.56" y="34.34" width="34.21" height="105.93"/><rect class="cls-4" x="295.56" y="34.34" width="34.21" height="105.93"/><rect class="cls-4" x="295.56" y="34.34" width="34.21" height="105.93"/><rect class="cls-4" x="295.56" y="34.34" width="34.21" height="105.93"/><rect class="cls-4" x="295.56" y="34.34" width="34.21" height="105.93"/><rect class="cls-4" x="295.56" y="34.34" width="34.21" height="105.93"/><rect class="cls-4" x="295.56" y="34.34" width="34.21" height="105.93"/><rect class="cls-4" x="295.56" y="34.34" width="34.21" height="105.93"/><rect class="cls-4" x="295.56" y="34.34" width="34.21" height="105.93"/><rect class="cls-4" x="295.56" y="34.34" width="34.21" height="105.93"/><rect class="cls-4" x="295.56" y="34.34" width="34.21" height="105.93"/><rect class="cls-4" x="295.56" y="34.34" width="34.21" height="105.93"/><rect class="cls-4" x="295.56" y="34.34" width="34.21" height="105.93"/><rect class="cls-4" x="295.56" y="34.34" width="34.21" height="105.93"/><rect class="cls-4" x="295.56" y="34.34" width="34.21" height="105.93"/><rect class="cls-4" x="295.56" y="34.34" width="34.21" height="105.93"/><rect class="cls-4" x="295.56" y="34.34" width="34.21" height="105.93"/><rect class="cls-4" x="295.56" y="34.34" width="34.21" height="105.93"/><rect class="cls-4" x="295.56" y="34.34" width="34.21" height="105.93"/><rect class="cls-4" x="295.56" y="34.34" width="34.21" height="105.93"/><rect class="cls-4" x="295.56" y="34.34" width="34.21" height="105.93"/><rect class="cls-4" x="295.56" y="34.34" width="34.21" height="105.93"/><rect class="cls-4" x="295.56" y="34.34" width="34.21" height="105.93"/><rect class="cls-4" x="295.56" y="34.34" width="34.21" height="105.93"/><rect class="cls-4" x="295.56" y="34.34" width="34.21" height="105.93"/><rect class="cls-4" x="295.56" y="34.34" width="34.21" height="105.93"/><rect class="cls-4" x="295.56" y="34.34" width="34.21" height="105.93"/><rect class="cls-4" x="295.56" y="34.34" width="34.21" height="105.93"/><rect class="cls-4" x="295.56" y="34.34" width="34.21" height="105.93"/><rect class="cls-4" x="295.56" y="34.34" width="34.21" height="105.93"/><rect class="cls-4" x="295.56" y="34.34" width="34.21" height="105.93"/><rect class="cls-4" x="295.56" y="34.34" width="34.21" height="105.93"/><rect class="cls-4" x="295.56" y="34.34" width="34.21" height="105.93"/><rect class="cls-4" x="295.56" y="34.34" width="34.21" height="105.93"/><rect class="cls-4" x="295.56" y="34.34" width="34.21" height="105.93"/><rect class="cls-4" x="295.56" y="34.34" width="34.21" height="105.93"/><rect class="cls-4" x="295.56" y="34.34" width="34.21" height="105.93"/><rect class="cls-4" x="295.56" y="34.34" width="34.21" height="105.93"/><rect class="cls-4" x="295.56" y="34.34" width="34.21" height="105.93"/><rect class="cls-4" x="295.56" y="34.34" width="34.21" height="105.93"/><rect class="cls-4" x="295.56" y="34.34" width="34.21" height="105.93"/><rect class="cls-4" x="295.56" y="34.34" width="34.21" height="105.93"/><rect class="cls-4" x="295.56" y="34.34" width="34.21" height="105.93"/><rect class="cls-4" x="295.56" y="34.34" width="34.21" height="105.93"/><rect class="cls-4" x="295.56" y="34.34" width="34.21" height="105.93"/><rect class="cls-4" x="295.56" y="34.34" width="34.21" height="105.93"/><rect class="cls-4" x="295.56" y="34.34" width="34.21" height="105.93"/><rect class="cls-4" x="295.56" y="34.34" width="34.21" height="105.93"/><rect class="cls-4" x="295.56" y="34.34" width="34.21" height="105.93"/><rect class="cls-4" x="295.56" y="34.34" width="34.21" height="105.93"/><rect class="cls-4" x="295.56" y="34.34" width="34.21" height="105.93"/><rect class="cls-4" x="295.56" y="34.34" width="34.21" height="105.93"/><rect class="cls-4" x="295.56" y="34.34" width="34.21" height="105.93"/><rect class="cls-4" x="295.56" y="34.34" width="34.21" height="105.93"/><rect class="cls-4" x="295.56" y="34.34" width="34.21" height="105.93"/><rect class="cls-4" x="295.56" y="34.34" width="34.21" height="105.93"/><rect class="cls-4" x="295.56" y="34.34" width="34.21" height="105.93"/><rect class="cls-4" x="295.56" y="34.34" width="34.21" height="105.93"/><rect class="cls-4" x="295.56" y="34.34" width="34.21" height="105.93"/><rect class="cls-4" x="295.56" y="34.34" width="34.21" height="105.93"/><rect class="cls-4" x="295.56" y="34.34" width="34.21" height="105.93"/><rect class="cls-4" x="295.56" y="34.34" width="34.21" height="105.93"/><rect class="cls-4" x="295.56" y="34.34" width="34.21" height="105.93"/><rect class="cls-4" x="295.56" y="34.34" width="34.21" height="105.93"/><rect class="cls-4" x="295.56" y="34.34" width="34.21" height="105.93"/><rect class="cls-4" x="295.56" y="34.34" width="34.21" height="105.93"/><rect class="cls-4" x="295.56" y="34.34" width="34.21" height="105.93"/><rect class="cls-4" x="295.56" y="34.34" width="34.21" height="105.93"/><rect class="cls-4" x="295.56" y="34.34" width="34.21" height="105.93"/><rect class="cls-4" x="295.56" y="34.34" width="34.21" height="105.93"/><rect class="cls-4" x="295.56" y="34.34" width="34.21" height="105.93"/><rect class="cls-4" x="295.56" y="34.34" width="34.21" height="105.93"/><rect class="cls-4" x="295.56" y="34.34" width="34.21" height="105.93"/><rect class="cls-4" x="295.56" y="34.34" width="34.21" height="105.93"/><rect class="cls-4" x="295.56" y="34.34" width="34.21" height="105.93"/><rect class="cls-4" x="295.56" y="34.34" width="34.21" height="105.93"/><rect class="cls-4" x="295.56" y="34.34" width="34.21" height="105.93"/><rect class="cls-4" x="295.56" y="34.34" width="34.21" height="105.93"/><rect class="cls-4" x="295.56" y="34.34" width="34.21" height="105.93"/><rect class="cls-4" x="295.56" y="34.34" width="34.21" height="105.93"/><rect class="cls-4" x="295.56" y="34.34" width="34.21" height="105.93"/><rect class="cls-4" x="295.56" y="34.34" width="34.21" height="105.93"/><rect class="cls-4" x="295.56" y="34.34" width="34.21" height="105.93"/><rect class="cls-4" x="295.56" y="34.34" width="34.21" height="105.93"/><rect class="cls-4" x="295.56" y="34.34" width="34.21" height="105.93"/><rect class="cls-4" x="295.56" y="34.34" width="34.21" height="105.93"/><rect class="cls-4" x="295.56" y="34.34" width="34.21" height="105.93"/><rect class="cls-4" x="295.56" y="34.34" width="34.21" height="105.93"/><rect class="cls-4" x="295.56" y="34.34" width="34.21" height="105.93"/><rect class="cls-4" x="295.56" y="34.34" width="34.21" height="105.93"/><rect class="cls-4" x="295.56" y="34.34" width="34.21" height="105.93"/><rect class="cls-4" x="295.56" y="34.34" width="34.21" height="105.93"/><rect class="cls-4" x="295.56" y="34.34" width="34.21" height="105.93"/><rect class="cls-4" x="295.56" y="34.34" width="34.21" height="105.93"/><rect class="cls-4" x="295.56" y="34.34" width="34.21" height="105.93"/><rect class="cls-4" x="295.56" y="34.34" width="34.21" height="105.93"/><rect class="cls-4" x="295.56" y="34.34" width="34.21" height="105.93"/><rect class="cls-4" x="295.56" y="34.34" width="34.21" height="105.93"/><rect class="cls-4" x="295.56" y="34.34" width="34.21" height="105.93"/><rect class="cls-4" x="295.56" y="34.34" width="34.21" height="105.93"/><rect class="cls-4" x="295.56" y="34.34" width="34.21" height="105.93"/><rect class="cls-4" x="295.56" y="34.34" width="34.21" height="105.93"/><rect class="cls-4" x="295.56" y="34.34" width="34.21" height="105.93"/><rect class="cls-4" x="295.56" y="34.34" width="34.21" height="105.93"/><rect class="cls-4" x="295.56" y="34.34" width="34.21" height="105.93"/><rect class="cls-4" x="295.56" y="34.34" width="34.21" height="105.93"/><rect class="cls-4" x="295.56" y="34.34" width="34.21" height="105.93"/><rect class="cls-4" x="295.56" y="34.34" width="34.21" height="105.93"/><rect class="cls-4" x="295.56" y="34.34" width="34.21" height="105.93"/><rect class="cls-4" x="295.56" y="34.34" width="34.21" height="105.93"/><rect class="cls-4" x="295.56" y="34.34" width="34.21" height="105.93"/><rect class="cls-4" x="295.56" y="34.34" width="34.21" height="105.93"/><rect class="cls-4" x="295.56" y="34.34" width="34.21" height="105.93"/><rect class="cls-4" x="295.56" y="34.34" width="34.21" height="105.93"/><rect class="cls-4" x="295.56" y="34.34" width="34.21" height="105.93"/><rect class="cls-4" x="295.56" y="34.34" width="34.21" height="105.93"/><rect class="cls-4" x="295.56" y="34.34" width="34.21" height="105.93"/><rect class="cls-4" x="295.56" y="34.34" width="34.21" height="105.93"/><rect class="cls-4" x="295.56" y="34.34" width="34.21" height="105.93"/><rect class="cls-4" x="295.56" y="34.34" width="34.21" height="105.93"/><rect class="cls-4" x="295.56" y="34.34" width="34.21" height="105.93"/><rect class="cls-4" x="295.56" y="34.34" width="34.21" height="105.93"/><rect class="cls-4" x="295.56" y="34.34" width="34.21" height="105.93"/><rect class="cls-4" x="295.56" y="34.34" width="34.21" height="105.93"/><rect class="cls-4" x="295.56" y="34.34" width="34.21" height="105.93"/><rect class="cls-4" x="295.56" y="34.34" width="34.21" height="105.93"/><rect class="cls-4" x="295.56" y="34.34" width="34.21" height="105.93"/><rect class="cls-4" x="295.56" y="34.34" width="34.21" height="105.93"/><rect class="cls-4" x="295.56" y="34.34" width="34.21" height="105.93"/><rect class="cls-4" x="295.56" y="34.34" width="34.21" height="105.93"/><rect class="cls-4" x="295.56" y="34.34" width="34.21" height="105.93"/><rect class="cls-4" x="295.56" y="34.34" width="34.21" height="105.93"/><rect class="cls-4" x="295.56" y="34.34" width="34.21" height="105.93"/><rect class="cls-4" x="295.56" y="34.34" width="34.21" height="105.93"/><rect class="cls-4" x="295.56" y="34.34" width="34.21" height="105.93"/><rect class="cls-4" x="295.56" y="34.34" width="34.21" height="105.93"/><rect class="cls-4" x="295.56" y="34.34" width="34.21" height="105.93"/><rect class="cls-4" x="295.56" y="34.34" width="34.21" height="105.93"/><rect class="cls-4" x="295.56" y="34.34" width="34.21" height="105.93"/><rect class="cls-4" x="295.56" y="34.34" width="34.21" height="105.93"/><rect class="cls-4" x="295.56" y="34.34" width="34.21" height="105.93"/><rect class="cls-4" x="295.56" y="34.34" width="34.21" height="105.93"/><rect class="cls-4" x="295.56" y="34.34" width="34.21" height="105.93"/><rect class="cls-4" x="295.56" y="34.34" width="34.21" height="105.93"/><rect class="cls-4" x="295.56" y="34.34" width="34.21" height="105.93"/><rect class="cls-4" x="295.56" y="34.34" width="34.21" height="105.93"/><rect class="cls-4" x="295.56" y="34.34" width="34.21" height="105.93"/><rect class="cls-4" x="295.56" y="34.34" width="34.21" height="105.93"/><rect class="cls-4" x="295.56" y="34.34" width="34.21" height="105.93"/><rect class="cls-4" x="295.56" y="34.34" width="34.21" height="105.93"/><rect class="cls-4" x="295.56" y="34.34" width="34.21" height="105.93"/><rect class="cls-4" x="295.56" y="34.34" width="34.21" height="105.93"/><rect class="cls-4" x="295.56" y="34.34" width="34.21" height="105.93"/><rect class="cls-4" x="295.56" y="34.34" width="34.21" height="105.93"/><rect class="cls-4" x="295.56" y="34.34" width="34.21" height="105.93"/><rect class="cls-4" x="295.56" y="34.34" width="34.21" height="105.93"/><rect class="cls-4" x="295.56" y="34.34" width="34.21" height="105.93"/><rect class="cls-4" x="295.56" y="34.34" width="34.21" height="105.93"/><rect class="cls-4" x="295.56" y="34.34" width="34.21" height="105.93"/><rect class="cls-4" x="295.56" y="34.34" width="34.21" height="105.93"/><rect class="cls-4" x="295.56" y="34.34" width="34.21" height="105.93"/><rect class="cls-4" x="295.56" y="34.34" width="34.21" height="105.93"/><rect class="cls-4" x="295.56" y="34.34" width="34.21" height="105.93"/><rect class="cls-4" x="295.56" y="34.34" width="34.21" height="105.93"/><rect class="cls-4" x="295.56" y="34.34" width="34.21" height="105.93"/><rect class="cls-4" x="295.56" y="34.34" width="34.21" height="105.93"/><rect class="cls-4" x="295.56" y="34.34" width="34.21" height="105.93"/><rect class="cls-4" x="295.56" y="34.34" width="34.21" height="105.93"/><rect class="cls-4" x="295.56" y="34.34" width="34.21" height="105.93"/><rect class="cls-4" x="295.56" y="34.34" width="34.21" height="105.93"/><rect class="cls-4" x="295.56" y="34.34" width="34.21" height="105.93"/><rect class="cls-4" x="295.56" y="34.34" width="34.21" height="105.93"/><rect class="cls-4" x="295.56" y="34.34" width="34.21" height="105.93"/><rect class="cls-4" x="295.56" y="34.34" width="34.21" height="105.93"/><rect class="cls-4" x="295.56" y="34.34" width="34.21" height="105.93"/><rect class="cls-4" x="295.56" y="34.34" width="34.21" height="105.93"/><rect class="cls-4" x="295.56" y="34.34" width="34.21" height="105.93"/><rect class="cls-4" x="295.56" y="34.34" width="34.21" height="105.93"/><rect class="cls-4" x="295.56" y="34.34" width="34.21" height="105.93"/><rect class="cls-4" x="295.56" y="34.34" width="34.21" height="105.93"/><rect class="cls-4" x="295.56" y="34.34" width="34.21" height="105.93"/><rect class="cls-4" x="295.56" y="34.34" width="34.21" height="105.93"/><rect class="cls-4" x="295.56" y="34.34" width="34.21" height="105.93"/><rect class="cls-4" x="295.56" y="34.34" width="34.21" height="105.93"/><rect class="cls-4" x="295.56" y="34.34" width="34.21" height="105.93"/><rect class="cls-4" x="295.56" y="34.34" width="34.21" height="105.93"/><rect class="cls-4" x="295.56" y="34.34" width="34.21" height="105.93"/><rect class="cls-4" x="295.56" y="34.34" width="34.21" height="105.93"/><rect class="cls-4" x="295.56" y="34.34" width="34.21" height="105.93"/><rect class="cls-4" x="295.56" y="34.34" width="34.21" height="105.93"/><rect class="cls-4" x="295.56" y="34.34" width="34.21" height="105.93"/><rect class="cls-4" x="295.56" y="34.34" width="34.21" height="105.93"/><rect class="cls-4" x="295.56" y="34.34" width="34.21" height="105.93"/><rect class="cls-4" x="295.56" y="34.34" width="34.21" height="105.93"/><rect class="cls-4" x="295.56" y="34.34" width="34.21" height="105.93"/><polyline class="cls-9" points="218.55 140.26 228.88 140.26 228.88 140.21 235.82 140.21 235.82 139.53 242.76 139.53 242.76 139.28 249.7 139.28 249.7 138.91 256.64 138.91 256.64 138.99 263.57 138.99 263.57 138.5 270.52 138.5 270.52 137.6 277.45 137.6 277.45 136.66 284.4 136.66 284.4 135.84 291.33 135.84 291.33 134.57 298.27 134.57 298.27 134.6 305.21 134.6 312.15 134.6 312.15 135.56 319.09 135.56 319.09 135.91 326.03 135.91 326.03 136.03"/><polyline class="cls-10" points="218.55 138.75 228.88 138.75 228.88 134.85 235.82 134.85 235.82 134.13 242.76 134.13 242.76 134.81 249.7 134.81 249.7 129.34 256.64 129.34 256.64 129.68 263.57 129.68 263.57 124.81 270.52 124.81 270.52 118.58 277.45 118.58 277.45 118.03 284.4 118.03 284.4 121.64 291.33 121.64 291.33 122.91 298.27 122.91 298.27 127.75 305.21 127.75 305.21 131.41 312.15 131.41 312.15 134 319.09 134 319.09 135.15 326.03 135.15 326.03 135.5"/><polyline class="cls-7" points="218.55 140.25 228.88 140.25 228.88 140.26 235.82 140.26 235.82 139.53 242.76 139.53 242.76 139.13 249.7 139.13 249.7 139.03 256.64 139.03 256.64 138.04 263.57 138.04 263.57 137.25 270.52 137.25 270.52 135.81 277.45 135.81 277.45 132.88 284.4 132.88 284.4 131.84 291.33 131.84 291.33 133.06 298.27 133.06 298.27 133.41 305.21 133.41 305.21 134.38 312.15 134.38 312.15 135.13 319.09 135.13 319.09 135.75 326.03 135.75 326.03 136.03"/><polyline class="cls-8" points="218.55 138.78 228.88 138.78 228.88 138 235.82 138 235.82 133.16 242.76 133.16 242.76 129.85 249.7 129.85 249.7 126.78 256.64 126.78 256.64 120.64 263.57 120.64 263.57 115.91 270.52 115.91 270.52 112.14 277.45 112.14 277.45 108.25 284.4 108.25 284.4 111.94 291.33 111.94 291.33 116.39 298.27 116.39 298.27 125.53 305.21 125.53 305.21 130.16 312.15 130.16 312.15 133.65 319.09 133.65 319.09 134.94 326.03 134.94 326.03 135.44"/><polyline class="cls-5" points="218.55 137.41 228.88 137.41 228.88 137.29 235.82 137.29 235.82 136.47 242.76 136.47 242.76 136.09 249.7 136.09 249.7 135.09 256.64 135.09 256.64 132.66 263.57 132.66 263.57 132.65 270.52 132.65 270.52 129.38 277.45 129.38 277.45 127.39 284.4 127.39 284.4 127.23 291.33 127.23 291.33 128.88 298.27 128.88 298.27 130.57 305.21 130.57 305.21 132.46 312.15 132.46 312.15 134.35 319.09 134.35 319.09 135.35 326.03 135.35 326.03 135.91"/><polyline class="cls-6" points="218.55 127.06 228.88 127.06 228.88 114.72 235.82 114.72 235.82 111.64 242.76 111.64 242.76 113.19 249.7 113.19 249.7 107.36 256.64 107.36 256.64 88.31 263.57 88.31 263.57 84.69 270.52 84.69 270.52 80.25 277.45 80.25 277.45 80.19 284.4 80.19 284.4 92.19 291.33 92.19 291.33 106.89 298.27 106.89 298.27 118.91 305.21 118.91 305.21 128.76 312.15 128.76 312.15 132.56 319.09 132.56 319.09 134.57 326.03 134.57 326.03 135.47"/><polygon class="cls-13" points="228.88 140.21 235.82 140.21 235.82 138.96 242.76 138.96 242.76 138.12 249.7 138.12 249.7 138.78 256.64 138.78 256.64 138.34 263.57 138.34 263.57 137.63 270.52 137.63 270.52 136.54 277.45 136.54 277.45 135.26 284.4 135.26 284.4 134.91 291.33 134.91 291.33 134.06 298.27 134.06 298.27 134 305.21 134 305.21 134.54 312.15 134.54 312.15 135.5 319.09 135.5 319.09 135.82 326.03 135.82 326.03 135.97 326.03 136.13 326.03 136.07 319.09 136.07 319.09 135.56 312.15 135.56 312.15 134.88 305.21 134.88 305.21 134.68 298.27 134.68 298.27 134.69 291.33 134.69 291.33 136.12 284.4 136.12 284.4 136.88 277.45 136.88 277.45 138.34 270.52 138.34 270.52 138.94 263.57 138.94 263.57 139.85 256.64 139.85 256.64 139.62 249.7 139.62 249.7 139.85 242.76 139.85 242.76 140 235.82 140 235.82 140.26 228.88 140.26 228.88 140.21"/><polygon class="cls-13" points="228.88 132.94 235.82 132.94 235.82 133.19 242.76 133.19 242.76 131.5 249.7 131.5 249.7 128.62 256.64 128.62 256.64 128.66 263.57 128.66 263.57 121.97 270.52 121.97 270.52 117.88 277.45 117.88 277.45 116.98 284.4 116.98 284.4 118.86 291.33 118.86 291.33 122.61 298.27 122.61 298.27 127.64 305.21 127.64 305.21 131.29 312.15 131.29 312.15 133.85 319.09 133.85 319.09 135 326.03 135 326.03 135.44 326.03 135.6 326.03 135.16 319.09 135.16 319.09 134.18 312.15 134.18 312.15 132.22 305.21 132.22 305.21 128.07 298.27 128.07 298.27 123.61 291.33 123.61 291.33 122.19 284.4 122.19 284.4 119.31 277.45 119.31 277.45 120.88 270.52 120.88 270.52 125.25 263.57 125.25 263.57 130.26 256.64 130.26 256.64 135.15 249.7 135.15 249.7 136.51 242.76 136.51 242.76 137.88 235.82 137.88 235.82 140.18 228.88 140.18 228.88 132.94"/><polygon class="cls-12" points="228.88 139.54 235.82 139.54 235.82 139.16 242.76 139.16 242.76 139.07 249.7 139.07 249.7 138.25 256.64 138.25 256.64 137.9 263.57 137.9 263.57 136.56 270.52 136.56 270.52 134.71 277.45 134.71 277.45 132.16 284.4 132.16 284.4 131.78 291.33 131.78 291.33 132.56 298.27 132.56 298.27 133.09 305.21 133.09 305.21 134.26 312.15 134.26 312.15 134.72 319.09 134.72 319.09 135.66 326.03 135.66 326.03 135.94 326.03 136.09 326.03 135.79 319.09 135.79 319.09 135.26 312.15 135.26 312.15 134.38 305.21 134.38 305.21 133.68 298.27 133.68 298.27 133.47 291.33 133.47 291.33 132.18 284.4 132.18 284.4 133.5 277.45 133.5 277.45 136.06 270.52 136.06 270.52 137.79 263.57 137.79 263.57 138.32 256.64 138.32 256.64 139.43 249.7 139.43 249.7 140.04 242.76 140.04 242.76 140.03 235.82 140.03 235.82 140.26 228.88 140.26 228.88 139.54"/><polygon class="cls-12" points="228.88 132.31 235.82 132.31 235.82 130.94 242.76 130.94 242.76 127.81 249.7 127.81 249.7 122.78 256.64 122.78 256.64 120.56 263.57 120.56 263.57 114.34 270.52 114.34 270.52 110.19 277.45 110.19 277.45 105.14 284.4 105.14 284.4 109.61 291.33 109.61 291.33 116.06 298.27 116.06 298.27 125.03 305.21 125.03 305.21 130.07 312.15 130.07 312.15 133.34 319.09 133.34 319.09 134.75 326.03 134.75 326.03 135.41 326.03 135.44 326.03 134.94 319.09 134.94 319.09 133.68 312.15 133.68 312.15 130.24 305.21 130.24 305.21 126.06 298.27 126.06 298.27 117.8 291.33 117.8 291.33 112.27 284.4 112.27 284.4 108.84 277.45 108.84 277.45 112.55 270.52 112.55 270.52 116.84 263.57 116.84 263.57 121.64 256.64 121.64 256.64 129.29 249.7 129.29 249.7 130.63 242.76 130.63 242.76 134.84 235.82 134.84 235.82 139.71 228.88 139.71 228.88 132.31"/><polygon class="cls-11" points="228.88 137.06 235.82 137.06 235.82 136.4 242.76 136.4 242.76 131.06 249.7 131.06 249.7 133.09 256.64 133.09 256.64 131.76 263.57 131.76 263.57 131.9 270.52 131.9 270.52 127.83 277.45 127.83 277.45 126.17 284.4 126.17 284.4 127.22 291.33 127.22 291.33 127.64 298.27 127.64 298.27 130.38 305.21 130.38 305.21 132.38 312.15 132.38 312.15 134.28 319.09 134.28 319.09 135.19 326.03 135.19 326.03 135.85 326.03 135.93 326.03 135.49 319.09 135.49 319.09 134.44 312.15 134.44 312.15 132.72 305.21 132.72 305.21 131.04 298.27 131.04 298.27 129.74 291.33 129.74 291.33 128.46 284.4 128.46 284.4 127.72 277.45 127.72 277.45 129.81 270.52 129.81 270.52 132.88 263.57 132.88 263.57 134.56 256.64 134.56 256.64 135.29 249.7 135.29 249.7 136.22 242.76 136.22 242.76 138.01 235.82 138.01 235.82 139.44 228.88 139.44 228.88 137.06"/><polygon class="cls-11" points="228.88 111.02 235.82 111.02 235.82 107.67 242.76 107.67 242.76 97.14 249.7 97.14 249.7 98.31 256.64 98.31 256.64 81.95 263.57 81.95 263.57 80.25 270.52 80.25 270.52 74.58 277.45 74.58 277.45 79.58 284.4 79.58 284.4 89.81 291.33 89.81 291.33 106.47 298.27 106.47 298.27 118.56 305.21 118.56 305.21 128.65 312.15 128.65 312.15 132.54 319.09 132.54 319.09 134.34 326.03 134.34 326.03 135.44 326.03 135.5 326.03 134.72 319.09 134.72 319.09 132.78 312.15 132.78 312.15 128.84 305.21 128.84 305.21 119.78 298.27 119.78 298.27 108.86 291.33 108.86 291.33 95.3 284.4 95.3 284.4 84.69 277.45 84.69 277.45 82.86 270.52 82.86 270.52 88.55 263.57 88.55 263.57 95.3 256.64 95.3 256.64 116.77 249.7 116.77 249.7 122.88 242.76 122.88 242.76 122.22 235.82 122.22 235.82 129.99 228.88 129.99 228.88 111.02"/><line class="cls-14" x1="152.14" y1="145.57" x2="152.14" y2="137.07"/><line class="cls-14" x1="173.72" y1="145.57" x2="173.72" y2="142.73"/><line class="cls-14" x1="186.35" y1="145.57" x2="186.35" y2="142.73"/><line class="cls-14" x1="195.31" y1="145.57" x2="195.31" y2="142.73"/><line class="cls-14" x1="202.26" y1="145.57" x2="202.26" y2="139.9"/><line class="cls-14" x1="207.94" y1="145.57" x2="207.94" y2="142.73"/><line class="cls-14" x1="212.74" y1="145.57" x2="212.74" y2="142.73"/><line class="cls-14" x1="216.9" y1="145.57" x2="216.9" y2="142.73"/><line class="cls-14" x1="220.57" y1="145.57" x2="220.57" y2="142.73"/><line class="cls-14" x1="223.85" y1="145.57" x2="223.85" y2="137.07"/><line class="cls-14" x1="245.43" y1="145.57" x2="245.43" y2="142.73"/><line class="cls-14" x1="258.06" y1="145.57" x2="258.06" y2="142.73"/><line class="cls-14" x1="267.02" y1="145.57" x2="267.02" y2="142.73"/><line class="cls-14" x1="273.97" y1="145.57" x2="273.97" y2="139.9"/><line class="cls-14" x1="279.65" y1="145.57" x2="279.65" y2="142.73"/><line class="cls-14" x1="284.45" y1="145.57" x2="284.45" y2="142.73"/><line class="cls-14" x1="288.61" y1="145.57" x2="288.61" y2="142.73"/><line class="cls-14" x1="292.28" y1="145.57" x2="292.28" y2="142.73"/><line class="cls-14" x1="295.56" y1="145.57" x2="295.56" y2="137.07"/><line class="cls-14" x1="317.14" y1="145.57" x2="317.14" y2="142.73"/><line class="cls-14" x1="329.77" y1="145.57" x2="329.77" y2="142.73"/><line class="cls-14" x1="338.73" y1="145.57" x2="338.73" y2="142.73"/><line class="cls-14" x1="345.68" y1="145.57" x2="345.68" y2="139.9"/><line class="cls-14" x1="351.36" y1="145.57" x2="351.36" y2="142.73"/><line class="cls-14" x1="356.16" y1="145.57" x2="356.16" y2="142.73"/><line class="cls-14" x1="360.32" y1="145.57" x2="360.32" y2="142.73"/><line class="cls-14" x1="363.99" y1="145.57" x2="363.99" y2="142.73"/><line class="cls-14" x1="367.27" y1="145.57" x2="367.27" y2="137.07"/><line class="cls-14" x1="218.55" y1="140.27" x2="227.05" y2="140.27"/><rect class="cls-15" x="218.55" y="29.05" width="116.52" height="116.52"/></g><text class="cls-16" transform="translate(196.1 143.49)">0.00</text><text class="cls-16" transform="translate(196.1 117.01)">1.00</text><text class="cls-16" transform="translate(196.1 90.53)">2.00</text><text class="cls-16" transform="translate(196.1 64.06)">3.00</text><text class="cls-16" transform="translate(196.1 37.58)">4.00</text><line class="cls-17" x1="215.81" y1="140.27" x2="218.55" y2="140.27"/><line class="cls-17" x1="215.81" y1="113.79" x2="218.55" y2="113.79"/><line class="cls-17" x1="215.81" y1="87.31" x2="218.55" y2="87.31"/><line class="cls-17" x1="215.81" y1="60.83" x2="218.55" y2="60.83"/><line class="cls-17" x1="215.81" y1="34.35" x2="218.55" y2="34.35"/><line class="cls-17" x1="223.85" y1="148.31" x2="223.85" y2="145.57"/><line class="cls-17" x1="258.06" y1="148.31" x2="258.06" y2="145.57"/><line class="cls-17" x1="295.56" y1="148.31" x2="295.56" y2="145.57"/><line class="cls-17" x1="329.77" y1="148.31" x2="329.77" y2="145.57"/><text class="cls-16" transform="translate(216.59 156.95)">10k</text><text class="cls-16" transform="translate(250.81 156.95)">30k</text><text class="cls-16" transform="translate(285.8 156.95)">100k</text><text class="cls-16" transform="translate(320.02 156.95)">300k</text><text class="cls-18" transform="translate(252.51 169.57)"><tspan class="cls-21">Y</tspan><tspan x="5.8" y="0">ears ago</tspan></text><text class="cls-22" transform="translate(175.82 16.78)">b</text><rect class="cls-3" x="12.1" y="191.67" width="17.28" height="17.28"/><line class="cls-6" x1="13.83" y1="200.31" x2="27.65" y2="200.31"/><rect class="cls-11" x="12.81" y="192.38" width="15.86" height="15.86"/><rect class="cls-3" x="68.23" y="191.67" width="17.28" height="17.28"/><line class="cls-8" x1="69.96" y1="200.31" x2="83.78" y2="200.31"/><rect class="cls-12" x="68.94" y="192.38" width="15.86" height="15.86"/><rect class="cls-3" x="118.3" y="191.67" width="17.28" height="17.28"/><line class="cls-10" x1="120.02" y1="200.31" x2="133.85" y2="200.31"/><rect class="cls-13" x="119" y="192.38" width="15.86" height="15.86"/><text class="cls-26" transform="translate(34.87 203.54)"><tspan class="cls-27">Y</tspan><tspan x="4.75" y="0">o</tspan><tspan class="cls-28" x="9.76" y="0">r</tspan><tspan x="12.88" y="0">uba</tspan></text><text class="cls-26" transform="translate(90.99 203.54)">M<tspan class="cls-29" x="7.5" y="0">b</tspan><tspan x="12.32" y="0">uti</tspan></text><text class="cls-26" transform="translate(141.05 203.54)">Khomani San</text><rect class="cls-3" x="211.52" y="186.19" width="143.47" height="28.24"/><rect class="cls-3" x="222.48" y="191.67" width="17.28" height="17.28"/><line class="cls-30" x1="224.21" y1="200.31" x2="238.03" y2="200.31"/><rect class="cls-3" x="288.73" y="191.67" width="17.28" height="17.28"/><line class="cls-31" x1="290.46" y1="200.31" x2="304.29" y2="200.31"/><text class="cls-26" transform="translate(245.25 203.54)">Afr to Eur</text><text class="cls-26" transform="translate(311.5 203.54)">Eur to Afr</text></svg>