<svg id="Layer_1" data-name="Layer 1" xmlns="http://www.w3.org/2000/svg" xmlns:xlink="http://www.w3.org/1999/xlink" viewBox="0 0 447.13 194.86"><defs><style>.cls-1,.cls-10,.cls-11,.cls-12,.cls-13,.cls-14,.cls-16,.cls-18,.cls-20,.cls-21,.cls-23,.cls-4,.cls-5,.cls-6,.cls-7,.cls-8,.cls-9{fill:none;}.cls-2{clip-path:url(#clip-path);}.cls-3{fill:#fff;}.cls-4,.cls-5{stroke:#ebebeb;}.cls-10,.cls-11,.cls-12,.cls-13,.cls-14,.cls-16,.cls-18,.cls-20,.cls-21,.cls-23,.cls-4,.cls-5,.cls-6,.cls-7,.cls-8,.cls-9{stroke-linejoin:round;}.cls-4{stroke-width:0.53px;}.cls-10,.cls-12,.cls-13,.cls-21,.cls-23,.cls-5,.cls-6,.cls-7,.cls-9{stroke-width:1.07px;}.cls-16,.cls-6,.cls-7,.cls-8{stroke:#6c4696;}.cls-10,.cls-13,.cls-16,.cls-18,.cls-20,.cls-21,.cls-7{stroke-linecap:round;}.cls-11,.cls-14,.cls-8{stroke-width:2.13px;}.cls-10,.cls-11,.cls-18,.cls-9{stroke:#f7a418;}.cls-12,.cls-13,.cls-14,.cls-20{stroke:#a62b2b;}.cls-15,.cls-16,.cls-17,.cls-18,.cls-19,.cls-20{font-size:5.41px;font-family:MyriadPro-Regular, Myriad Pro;}.cls-15{fill:#6c4696;}.cls-16,.cls-18,.cls-20{stroke-width:0.71px;}.cls-17{fill:#f7a418;}.cls-19{fill:#a62b2b;}.cls-21,.cls-23{stroke:#343434;}.cls-22,.cls-30,.cls-31{font-size:9px;}.cls-22{fill:#4e4d4d;}.cls-22,.cls-24,.cls-30,.cls-31{font-family:Helvetica;}.cls-24{font-size:11px;}.cls-24,.cls-30,.cls-31{fill:#010101;}.cls-25{letter-spacing:-0.01em;}.cls-26{letter-spacing:0em;}.cls-27,.cls-31{letter-spacing:-0.04em;}.cls-28{letter-spacing:0em;}.cls-29{letter-spacing:-0.03em;}</style><clipPath id="clip-path" transform="translate(-0.88 -17.15)"><rect class="cls-1" x="32.92" y="17.68" width="414.55" height="138.18"/></clipPath></defs><g class="cls-2"><rect class="cls-3" x="32.04" y="0.54" width="414.55" height="138.18"/><line class="cls-4" x1="32.04" y1="106.77" x2="446.6" y2="106.77"/><line class="cls-4" x1="32.04" y1="67.94" x2="446.6" y2="67.94"/><line class="cls-4" x1="32.04" y1="29.11" x2="446.6" y2="29.11"/><line class="cls-5" x1="32.04" y1="126.19" x2="446.6" y2="126.19"/><line class="cls-5" x1="32.04" y1="87.36" x2="446.6" y2="87.36"/><line class="cls-5" x1="32.04" y1="48.52" x2="446.6" y2="48.52"/><line class="cls-5" x1="32.04" y1="9.69" x2="446.6" y2="9.69"/><line class="cls-6" x1="66.59" y1="23.26" x2="66.59" y2="21.55"/><line class="cls-6" x1="66.59" y1="24.99" x2="66.59" y2="25"/><rect class="cls-3" x="55.49" y="23.26" width="22.2" height="1.73"/><rect class="cls-7" x="55.49" y="23.26" width="22.2" height="1.73"/><line class="cls-8" x1="55.49" y1="24.98" x2="77.69" y2="24.98"/><line class="cls-9" x1="91.27" y1="11.13" x2="91.27" y2="6.81"/><line class="cls-9" x1="91.27" y1="15.56" x2="91.27" y2="15.66"/><rect class="cls-3" x="80.16" y="11.13" width="22.21" height="4.43"/><rect class="cls-10" x="80.16" y="11.13" width="22.21" height="4.43"/><line class="cls-11" x1="80.16" y1="15.45" x2="102.37" y2="15.45"/><line class="cls-12" x1="115.94" y1="23.79" x2="115.94" y2="21.19"/><line class="cls-12" x1="115.94" y1="27.71" x2="115.94" y2="29.02"/><rect class="cls-3" x="104.84" y="23.79" width="22.21" height="3.92"/><rect class="cls-13" x="104.84" y="23.79" width="22.21" height="3.92"/><line class="cls-14" x1="104.84" y1="26.4" x2="127.05" y2="26.4"/><line class="cls-6" x1="165.29" y1="41.06" x2="165.29" y2="30.6"/><line class="cls-6" x1="165.29" y1="52" x2="165.29" y2="52.49"/><rect class="cls-3" x="154.19" y="41.06" width="22.21" height="10.94"/><rect class="cls-7" x="154.19" y="41.06" width="22.21" height="10.94"/><line class="cls-8" x1="154.19" y1="51.52" x2="176.4" y2="51.52"/><line class="cls-9" x1="189.97" y1="37.75" x2="189.97" y2="27.26"/><line class="cls-9" x1="189.97" y1="50.54" x2="189.97" y2="52.85"/><rect class="cls-3" x="178.86" y="37.75" width="22.21" height="12.79"/><rect class="cls-10" x="178.86" y="37.75" width="22.21" height="12.79"/><line class="cls-11" x1="178.86" y1="48.24" x2="201.07" y2="48.24"/><line class="cls-12" x1="214.64" y1="50.98" x2="214.64" y2="43.35"/><line class="cls-12" x1="214.64" y1="59.61" x2="214.64" y2="60.61"/><rect class="cls-3" x="203.54" y="50.98" width="22.21" height="8.63"/><rect class="cls-13" x="203.54" y="50.98" width="22.21" height="8.63"/><line class="cls-14" x1="203.54" y1="58.62" x2="225.75" y2="58.62"/><text class="cls-15" transform="translate(261.86 102.84)">●</text><text class="cls-16" transform="translate(261.86 102.84)">●</text><line class="cls-6" x1="264" y1="57.01" x2="264" y2="52.68"/><line class="cls-6" x1="264" y1="67.7" x2="264" y2="82.47"/><rect class="cls-3" x="252.89" y="57.01" width="22.21" height="10.69"/><rect class="cls-7" x="252.89" y="57.01" width="22.21" height="10.69"/><line class="cls-8" x1="252.89" y1="60.04" x2="275.1" y2="60.04"/><text class="cls-17" transform="translate(286.53 85.81)">●</text><text class="cls-18" transform="translate(286.53 85.81)">●</text><text class="cls-17" transform="translate(286.53 107.19)">●</text><text class="cls-18" transform="translate(286.53 107.19)">●</text><line class="cls-9" x1="288.67" y1="54.5" x2="288.67" y2="50.21"/><line class="cls-9" x1="288.67" y1="65.69" x2="288.67" y2="69.27"/><rect class="cls-3" x="277.57" y="54.5" width="22.21" height="11.19"/><rect class="cls-10" x="277.57" y="54.5" width="22.21" height="11.19"/><line class="cls-11" x1="277.57" y1="57.86" x2="299.78" y2="57.86"/><text class="cls-19" transform="translate(311.2 115.77)">●</text><text class="cls-20" transform="translate(311.2 115.77)">●</text><line class="cls-12" x1="313.35" y1="66.6" x2="313.35" y2="61.43"/><line class="cls-12" x1="313.35" y1="77.41" x2="313.35" y2="88.82"/><rect class="cls-3" x="302.24" y="66.6" width="22.21" height="10.81"/><rect class="cls-13" x="302.24" y="66.6" width="22.21" height="10.81"/><line class="cls-14" x1="302.24" y1="69.6" x2="324.45" y2="69.6"/><line class="cls-6" x1="362.7" y1="121.16" x2="362.7" y2="120.6"/><line class="cls-6" x1="362.7" y1="122.28" x2="362.7" y2="122.84"/><rect class="cls-3" x="351.59" y="121.16" width="22.21" height="1.12"/><rect class="cls-7" x="351.59" y="121.16" width="22.21" height="1.12"/><line class="cls-8" x1="351.59" y1="121.72" x2="373.8" y2="121.72"/><line class="cls-9" x1="387.37" y1="121.63" x2="387.37" y2="120.76"/><line class="cls-9" x1="387.37" y1="123.36" x2="387.37" y2="124.22"/><rect class="cls-3" x="376.27" y="121.63" width="22.21" height="1.73"/><rect class="cls-10" x="376.27" y="121.63" width="22.21" height="1.73"/><line class="cls-11" x1="376.27" y1="122.49" x2="398.48" y2="122.49"/><line class="cls-12" x1="412.05" y1="128.84" x2="412.05" y2="127.65"/><line class="cls-12" x1="412.05" y1="131.23" x2="412.05" y2="132.43"/><rect class="cls-3" x="400.95" y="128.84" width="22.2" height="2.39"/><rect class="cls-13" x="400.95" y="128.84" width="22.2" height="2.39"/><line class="cls-14" x1="400.95" y1="130.04" x2="423.15" y2="130.04"/><rect class="cls-21" x="32.04" y="0.54" width="414.55" height="138.18"/></g><text class="cls-22" transform="translate(14.61 129.43)">0.2</text><text class="cls-22" transform="translate(14.61 90.6)">0.3</text><text class="cls-22" transform="translate(14.61 51.77)">0.4</text><text class="cls-22" transform="translate(14.61 12.93)">0.5</text><line class="cls-23" x1="29.3" y1="126.19" x2="32.04" y2="126.19"/><line class="cls-23" x1="29.3" y1="87.36" x2="32.04" y2="87.36"/><line class="cls-23" x1="29.3" y1="48.52" x2="32.04" y2="48.52"/><line class="cls-23" x1="29.3" y1="9.69" x2="32.04" y2="9.69"/><text class="cls-24" transform="translate(9.45 79.1) rotate(-90)">IMF</text><line class="cls-23" x1="91.27" y1="141.45" x2="91.27" y2="138.71"/><line class="cls-23" x1="189.97" y1="141.45" x2="189.97" y2="138.71"/><line class="cls-23" x1="288.67" y1="141.45" x2="288.67" y2="138.71"/><line class="cls-23" x1="387.37" y1="141.45" x2="387.37" y2="138.71"/><text class="cls-22" transform="translate(70.27 150.1)">Afroasiatic</text><text class="cls-22" transform="translate(162.64 150.1)">Nilo−Saha<tspan class="cls-25" x="41.78" y="0">r</tspan><tspan class="cls-26" x="44.69" y="0">an</tspan></text><text class="cls-22" transform="translate(251.35 150.1)">Niger−<tspan class="cls-27" x="26.76" y="0">K</tspan><tspan class="cls-28" x="32.42" y="0">ordo</tspan><tspan class="cls-29" x="50.43" y="0">f</tspan><tspan x="52.67" y="0">anian</tspan></text><text class="cls-22" transform="translate(366.23 150.1)">Khoe−San</text><rect class="cls-3" x="131.63" y="166.62" width="170.85" height="28.24"/><rect class="cls-3" x="142.59" y="172.1" width="17.28" height="17.28"/><line class="cls-7" x1="151.23" y1="187.65" x2="151.23" y2="185.06"/><line class="cls-7" x1="151.23" y1="176.42" x2="151.23" y2="173.83"/><rect class="cls-3" x="144.75" y="176.42" width="12.96" height="8.64"/><rect class="cls-7" x="144.75" y="176.42" width="12.96" height="8.64"/><line class="cls-7" x1="144.75" y1="180.74" x2="157.71" y2="180.74"/><rect class="cls-3" x="198.83" y="172.1" width="17.28" height="17.28"/><line class="cls-10" x1="207.47" y1="187.65" x2="207.47" y2="185.06"/><line class="cls-10" x1="207.47" y1="176.42" x2="207.47" y2="173.83"/><rect class="cls-3" x="200.99" y="176.42" width="12.96" height="8.64"/><rect class="cls-10" x="200.99" y="176.42" width="12.96" height="8.64"/><line class="cls-10" x1="200.99" y1="180.74" x2="213.95" y2="180.74"/><rect class="cls-3" x="243.58" y="172.1" width="17.28" height="17.28"/><line class="cls-13" x1="252.22" y1="187.65" x2="252.22" y2="185.06"/><line class="cls-13" x1="252.22" y1="176.42" x2="252.22" y2="173.83"/><rect class="cls-3" x="245.74" y="176.42" width="12.96" height="8.64"/><rect class="cls-13" x="245.74" y="176.42" width="12.96" height="8.64"/><line class="cls-13" x1="245.74" y1="180.74" x2="258.7" y2="180.74"/><text class="cls-30" transform="translate(165.35 183.97)">French</text><text class="cls-30" transform="translate(221.59 183.97)">Han</text><text class="cls-31" transform="translate(266.34 183.97)">P<tspan class="cls-28" x="5.65" y="0">apuan</tspan></text></svg>