<svg id="Layer_1" data-name="Layer 1" xmlns="http://www.w3.org/2000/svg" xmlns:xlink="http://www.w3.org/1999/xlink" viewBox="0 0 531.42 216.55"><defs><style>.cls-1,.cls-10,.cls-12,.cls-4,.cls-6,.cls-7,.cls-8,.cls-9{fill:none;}.cls-2{clip-path:url(#clip-path);}.cls-3{fill:#fff;}.cls-4{stroke:#fff;}.cls-10,.cls-4,.cls-9{stroke-linecap:round;}.cls-10,.cls-12,.cls-4,.cls-6,.cls-7,.cls-8,.cls-9{stroke-linejoin:round;stroke-width:1.07px;}.cls-5{clip-path:url(#clip-path-2);}.cls-6{stroke:#bebdbe;}.cls-6,.cls-7{stroke-dasharray:4.27 4.27;}.cls-7,.cls-8,.cls-9{stroke:#010101;}.cls-10,.cls-12{stroke:#343434;}.cls-11,.cls-21{font-size:9px;}.cls-11{fill:#4e4d4d;}.cls-11,.cls-13,.cls-15,.cls-21{font-family:Helvetica;}.cls-13{font-size:11px;}.cls-13,.cls-15,.cls-21{fill:#010101;}.cls-14{letter-spacing:-0.14em;}.cls-15{font-size:13px;}.cls-16{clip-path:url(#clip-path-3);}.cls-17{clip-path:url(#clip-path-4);}.cls-18{letter-spacing:-0.14em;}.cls-19{clip-path:url(#clip-path-5);}.cls-20{clip-path:url(#clip-path-6);}</style><clipPath id="clip-path" transform="translate(18.75 0.54)"><rect class="cls-1" width="170.21" height="187.77"/></clipPath><clipPath id="clip-path-2" transform="translate(18.75 0.54)"><rect class="cls-1" x="48.21" y="28.51" width="116.52" height="116.52"/></clipPath><clipPath id="clip-path-3" transform="translate(18.75 0.54)"><rect class="cls-1" x="170.21" width="166.59" height="187.77"/></clipPath><clipPath id="clip-path-4" transform="translate(18.75 0.54)"><rect class="cls-1" x="214.8" y="28.51" width="116.52" height="116.52"/></clipPath><clipPath id="clip-path-5" transform="translate(18.75 0.54)"><rect class="cls-1" x="336.8" width="170.21" height="187.77"/></clipPath><clipPath id="clip-path-6" transform="translate(18.75 0.54)"><rect class="cls-1" x="385.01" y="28.51" width="116.52" height="116.52"/></clipPath></defs><g class="cls-2"><rect class="cls-3" x="18.75" y="0.54" width="170.21" height="187.77"/><rect class="cls-4" x="18.75" y="0.54" width="170.21" height="187.77"/></g><g class="cls-5"><rect class="cls-3" x="66.96" y="29.05" width="116.52" height="116.52"/><line class="cls-6" x1="130.55" y1="145.57" x2="130.55" y2="29.05"/><line class="cls-6" x1="125.34" y1="145.57" x2="125.34" y2="29.05"/><polyline class="cls-7" points="66.95 140.26 77.28 140.26 77.28 139.88 84.22 139.88 84.22 139.5 91.16 139.5 91.16 139.41 98.09 139.41 98.09 137.22 105.03 137.22 105.03 136.38 111.97 136.38 111.97 134.75 118.92 134.75 118.92 130.97 125.86 130.97 125.86 132.03 132.79 132.03 132.79 127.36 139.74 127.36 139.74 124.94 146.68 124.94 146.68 122.38 153.62 122.38 153.62 126.92 160.56 126.92 160.56 132.25 167.5 132.25 167.5 134.43 174.44 134.43 174.44 135.41"/><polyline class="cls-8" points="66.95 140.26 77.28 140.26 84.22 140.26 84.22 137.88 91.16 137.88 91.16 136.6 98.09 136.6 98.09 130.29 105.03 130.29 105.03 122.47 111.97 122.47 111.97 120.19 118.92 120.19 118.92 102.39 125.86 102.39 125.86 92.5 132.79 92.5 132.79 94.66 139.74 94.66 139.74 101.7 146.68 101.7 146.68 106 153.62 106 153.62 119.06 160.56 119.06 160.56 129.26 167.5 129.26 167.5 133.99 174.44 133.99 174.44 134.69"/><line class="cls-9" x1="0.54" y1="145.57" x2="0.54" y2="137.07"/><line class="cls-9" x1="22.13" y1="145.57" x2="22.13" y2="142.73"/><line class="cls-9" x1="34.76" y1="145.57" x2="34.76" y2="142.73"/><line class="cls-9" x1="43.72" y1="145.57" x2="43.72" y2="142.73"/><line class="cls-9" x1="50.67" y1="145.57" x2="50.67" y2="139.9"/><line class="cls-9" x1="56.34" y1="145.57" x2="56.34" y2="142.73"/><line class="cls-9" x1="61.15" y1="145.57" x2="61.15" y2="142.73"/><line class="cls-9" x1="65.31" y1="145.57" x2="65.31" y2="142.73"/><line class="cls-9" x1="68.97" y1="145.57" x2="68.97" y2="142.73"/><line class="cls-9" x1="72.26" y1="145.57" x2="72.26" y2="137.07"/><line class="cls-9" x1="93.84" y1="145.57" x2="93.84" y2="142.73"/><line class="cls-9" x1="106.47" y1="145.57" x2="106.47" y2="142.73"/><line class="cls-9" x1="115.43" y1="145.57" x2="115.43" y2="142.73"/><line class="cls-9" x1="122.38" y1="145.57" x2="122.38" y2="139.9"/><line class="cls-9" x1="128.06" y1="145.57" x2="128.06" y2="142.73"/><line class="cls-9" x1="132.86" y1="145.57" x2="132.86" y2="142.73"/><line class="cls-9" x1="137.02" y1="145.57" x2="137.02" y2="142.73"/><line class="cls-9" x1="140.69" y1="145.57" x2="140.69" y2="142.73"/><line class="cls-9" x1="143.97" y1="145.57" x2="143.97" y2="137.07"/><line class="cls-9" x1="165.55" y1="145.57" x2="165.55" y2="142.73"/><line class="cls-9" x1="178.18" y1="145.57" x2="178.18" y2="142.73"/><line class="cls-9" x1="187.14" y1="145.57" x2="187.14" y2="142.73"/><line class="cls-9" x1="194.08" y1="145.57" x2="194.08" y2="139.9"/><line class="cls-9" x1="199.77" y1="145.57" x2="199.77" y2="142.73"/><line class="cls-9" x1="204.57" y1="145.57" x2="204.57" y2="142.73"/><line class="cls-9" x1="208.73" y1="145.57" x2="208.73" y2="142.73"/><line class="cls-9" x1="212.39" y1="145.57" x2="212.39" y2="142.73"/><line class="cls-9" x1="215.68" y1="145.57" x2="215.68" y2="137.07"/><line class="cls-9" x1="66.96" y1="140.27" x2="75.46" y2="140.27"/><rect class="cls-10" x="66.96" y="29.05" width="116.52" height="116.52"/></g><text class="cls-11" transform="translate(44.51 143.49)">0.00</text><text class="cls-11" transform="translate(44.51 117.01)">1.00</text><text class="cls-11" transform="translate(44.51 90.54)">2.00</text><text class="cls-11" transform="translate(44.51 64.06)">3.00</text><text class="cls-11" transform="translate(44.51 37.58)">4.00</text><line class="cls-12" x1="64.22" y1="140.27" x2="66.96" y2="140.27"/><line class="cls-12" x1="64.22" y1="113.79" x2="66.96" y2="113.79"/><line class="cls-12" x1="64.22" y1="87.31" x2="66.96" y2="87.31"/><line class="cls-12" x1="64.22" y1="60.83" x2="66.96" y2="60.83"/><line class="cls-12" x1="64.22" y1="34.35" x2="66.96" y2="34.35"/><line class="cls-12" x1="72.26" y1="148.31" x2="72.26" y2="145.57"/><line class="cls-12" x1="106.47" y1="148.31" x2="106.47" y2="145.57"/><line class="cls-12" x1="143.97" y1="148.31" x2="143.97" y2="145.57"/><line class="cls-12" x1="178.18" y1="148.31" x2="178.18" y2="145.57"/><text class="cls-11" transform="translate(64.99 156.95)">10k</text><text class="cls-11" transform="translate(99.21 156.95)">30k</text><text class="cls-11" transform="translate(134.2 156.95)">100k</text><text class="cls-11" transform="translate(168.43 156.95)">300k</text><text class="cls-13" transform="translate(100.91 169.57)"><tspan class="cls-14">Y</tspan><tspan x="5.8" y="0">ears ago</tspan></text><text class="cls-15" transform="translate(24.23 16.79)">e</text><g class="cls-16"><rect class="cls-3" x="188.95" y="0.54" width="166.59" height="187.77"/><rect class="cls-4" x="188.95" y="0.54" width="166.59" height="187.77"/></g><g class="cls-17"><rect class="cls-3" x="233.55" y="29.05" width="116.52" height="116.52"/><line class="cls-6" x1="297.14" y1="145.57" x2="297.14" y2="29.05"/><line class="cls-6" x1="291.94" y1="145.57" x2="291.94" y2="29.05"/><polyline class="cls-7" points="233.54 140.26 243.88 140.26 243.88 139.06 250.81 139.06 250.81 139.47 257.75 139.47 257.75 138.84 264.69 138.84 264.69 136.31 271.63 136.31 271.63 130.29 278.57 130.29 278.57 131.62 285.51 131.62 285.51 123.98 292.45 123.98 292.45 119.33 299.39 119.33 299.39 108.25 306.33 108.25 306.33 111.67 313.27 111.67 313.27 118.81 320.21 118.81 320.21 124.95 327.15 124.95 327.15 131.47 334.1 131.47 334.1 133.93 341.04 133.93 341.04 136.31"/><polyline class="cls-8" points="233.54 135.47 243.88 135.47 243.88 140.26 250.81 140.26 250.81 135.06 257.75 135.06 257.75 136.66 264.69 136.66 264.69 132.56 271.63 132.56 271.63 124.41 278.57 124.41 278.57 107.23 285.51 107.23 285.51 98.42 292.45 98.42 292.45 94.08 299.39 94.08 299.39 95 306.33 95 306.33 100.91 313.27 100.91 313.27 114.28 320.21 114.28 320.21 121.95 327.15 121.95 327.15 130.24 334.1 130.24 334.1 133.53 341.04 133.53 341.04 134.63"/><line class="cls-9" x1="167.14" y1="145.57" x2="167.14" y2="137.07"/><line class="cls-9" x1="188.73" y1="145.57" x2="188.73" y2="142.73"/><line class="cls-9" x1="201.34" y1="145.57" x2="201.34" y2="142.73"/><line class="cls-9" x1="210.31" y1="145.57" x2="210.31" y2="142.73"/><line class="cls-9" x1="217.26" y1="145.57" x2="217.26" y2="139.9"/><line class="cls-9" x1="222.94" y1="145.57" x2="222.94" y2="142.73"/><line class="cls-9" x1="227.74" y1="145.57" x2="227.74" y2="142.73"/><line class="cls-9" x1="231.89" y1="145.57" x2="231.89" y2="142.73"/><line class="cls-9" x1="235.57" y1="145.57" x2="235.57" y2="142.73"/><line class="cls-9" x1="238.84" y1="145.57" x2="238.84" y2="137.07"/><line class="cls-9" x1="260.44" y1="145.57" x2="260.44" y2="142.73"/><line class="cls-9" x1="273.06" y1="145.57" x2="273.06" y2="142.73"/><line class="cls-9" x1="282.02" y1="145.57" x2="282.02" y2="142.73"/><line class="cls-9" x1="288.96" y1="145.57" x2="288.96" y2="139.9"/><line class="cls-9" x1="294.64" y1="145.57" x2="294.64" y2="142.73"/><line class="cls-9" x1="299.45" y1="145.57" x2="299.45" y2="142.73"/><line class="cls-9" x1="303.61" y1="145.57" x2="303.61" y2="142.73"/><line class="cls-9" x1="307.27" y1="145.57" x2="307.27" y2="142.73"/><line class="cls-9" x1="310.56" y1="145.57" x2="310.56" y2="137.07"/><line class="cls-9" x1="332.14" y1="145.57" x2="332.14" y2="142.73"/><line class="cls-9" x1="344.77" y1="145.57" x2="344.77" y2="142.73"/><line class="cls-9" x1="353.74" y1="145.57" x2="353.74" y2="142.73"/><line class="cls-9" x1="360.69" y1="145.57" x2="360.69" y2="139.9"/><line class="cls-9" x1="366.36" y1="145.57" x2="366.36" y2="142.73"/><line class="cls-9" x1="371.15" y1="145.57" x2="371.15" y2="142.73"/><line class="cls-9" x1="375.32" y1="145.57" x2="375.32" y2="142.73"/><line class="cls-9" x1="378.99" y1="145.57" x2="378.99" y2="142.73"/><line class="cls-9" x1="382.27" y1="145.57" x2="382.27" y2="137.07"/><line class="cls-9" x1="233.55" y1="140.27" x2="242.06" y2="140.27"/><rect class="cls-10" x="233.55" y="29.05" width="116.52" height="116.52"/></g><text class="cls-11" transform="translate(211.11 143.49)">0.00</text><text class="cls-11" transform="translate(211.11 117.01)">1.00</text><text class="cls-11" transform="translate(211.11 90.54)">2.00</text><text class="cls-11" transform="translate(211.11 64.06)">3.00</text><text class="cls-11" transform="translate(211.11 37.58)">4.00</text><line class="cls-12" x1="230.81" y1="140.27" x2="233.55" y2="140.27"/><line class="cls-12" x1="230.81" y1="113.79" x2="233.55" y2="113.79"/><line class="cls-12" x1="230.81" y1="87.31" x2="233.55" y2="87.31"/><line class="cls-12" x1="230.81" y1="60.83" x2="233.55" y2="60.83"/><line class="cls-12" x1="230.81" y1="34.35" x2="233.55" y2="34.35"/><line class="cls-12" x1="238.84" y1="148.31" x2="238.84" y2="145.57"/><line class="cls-12" x1="273.06" y1="148.31" x2="273.06" y2="145.57"/><line class="cls-12" x1="310.56" y1="148.31" x2="310.56" y2="145.57"/><line class="cls-12" x1="344.77" y1="148.31" x2="344.77" y2="145.57"/><text class="cls-11" transform="translate(231.6 156.95)">10k</text><text class="cls-11" transform="translate(265.81 156.95)">30k</text><text class="cls-11" transform="translate(300.81 156.95)">100k</text><text class="cls-11" transform="translate(335.02 156.95)">300k</text><text class="cls-13" transform="translate(267.5 169.57)"><tspan class="cls-18">Y</tspan><tspan x="5.81" y="0">ears ago</tspan></text><text class="cls-15" transform="translate(194.44 16.79)">f</text><g class="cls-19"><rect class="cls-3" x="355.55" y="0.54" width="170.21" height="187.77"/><rect class="cls-4" x="355.55" y="0.54" width="170.21" height="187.77"/></g><g class="cls-20"><rect class="cls-3" x="403.76" y="29.05" width="116.52" height="116.52"/><line class="cls-6" x1="467.34" y1="145.57" x2="467.34" y2="29.05"/><line class="cls-6" x1="462.14" y1="145.57" x2="462.14" y2="29.05"/><polyline class="cls-7" points="403.75 140.26 414.08 140.26 414.08 137.12 421.02 137.12 421.02 138.19 427.96 138.19 427.96 135.88 434.9 135.88 434.9 132.76 441.85 132.76 441.85 134.91 448.79 134.91 448.79 131 455.73 131 455.73 124.39 462.67 124.39 462.67 116.78 469.61 116.78 469.61 117.09 476.55 117.09 476.55 111.92 483.49 111.92 483.49 116.59 490.43 116.59 490.43 124.58 497.37 124.58 497.37 131.88 504.31 131.88 504.31 134.69 511.25 134.69 511.25 136.91"/><polyline class="cls-8" points="403.75 140.26 414.08 140.26 414.08 138.19 421.02 138.19 421.02 140.26 427.96 140.26 427.96 137.75 434.9 137.75 434.9 138.5 441.85 138.5 441.85 131.69 448.79 131.69 448.79 131.31 455.73 131.31 455.73 134.29 462.67 134.29 462.67 128 469.61 128 469.61 118.39 476.55 118.39 476.55 116.69 483.49 116.69 483.49 120.03 490.43 120.03 490.43 123.64 497.37 123.64 497.37 129.84 504.31 129.84 504.31 132.91 511.25 132.91 511.25 134.78"/><line class="cls-9" x1="337.34" y1="145.57" x2="337.34" y2="137.07"/><line class="cls-9" x1="358.93" y1="145.57" x2="358.93" y2="142.73"/><line class="cls-9" x1="371.56" y1="145.57" x2="371.56" y2="142.73"/><line class="cls-9" x1="380.52" y1="145.57" x2="380.52" y2="142.73"/><line class="cls-9" x1="387.46" y1="145.57" x2="387.46" y2="139.9"/><line class="cls-9" x1="393.14" y1="145.57" x2="393.14" y2="142.73"/><line class="cls-9" x1="397.95" y1="145.57" x2="397.95" y2="142.73"/><line class="cls-9" x1="402.11" y1="145.57" x2="402.11" y2="142.73"/><line class="cls-9" x1="405.77" y1="145.57" x2="405.77" y2="142.73"/><line class="cls-9" x1="409.06" y1="145.57" x2="409.06" y2="137.07"/><line class="cls-9" x1="430.64" y1="145.57" x2="430.64" y2="142.73"/><line class="cls-9" x1="443.27" y1="145.57" x2="443.27" y2="142.73"/><line class="cls-9" x1="452.23" y1="145.57" x2="452.23" y2="142.73"/><line class="cls-9" x1="459.18" y1="145.57" x2="459.18" y2="139.9"/><line class="cls-9" x1="464.86" y1="145.57" x2="464.86" y2="142.73"/><line class="cls-9" x1="469.65" y1="145.57" x2="469.65" y2="142.73"/><line class="cls-9" x1="473.82" y1="145.57" x2="473.82" y2="142.73"/><line class="cls-9" x1="477.49" y1="145.57" x2="477.49" y2="142.73"/><line class="cls-9" x1="480.77" y1="145.57" x2="480.77" y2="137.07"/><line class="cls-9" x1="502.36" y1="145.57" x2="502.36" y2="142.73"/><line class="cls-9" x1="514.98" y1="145.57" x2="514.98" y2="142.73"/><line class="cls-9" x1="523.94" y1="145.57" x2="523.94" y2="142.73"/><line class="cls-9" x1="530.89" y1="145.57" x2="530.89" y2="139.9"/><line class="cls-9" x1="403.76" y1="140.27" x2="412.27" y2="140.27"/><rect class="cls-10" x="403.76" y="29.05" width="116.52" height="116.52"/></g><text class="cls-11" transform="translate(381.32 143.49)">0.00</text><text class="cls-11" transform="translate(381.32 117.01)">1.00</text><text class="cls-11" transform="translate(381.32 90.54)">2.00</text><text class="cls-11" transform="translate(381.32 64.06)">3.00</text><text class="cls-11" transform="translate(381.32 37.58)">4.00</text><line class="cls-12" x1="401.02" y1="140.27" x2="403.76" y2="140.27"/><line class="cls-12" x1="401.02" y1="113.79" x2="403.76" y2="113.79"/><line class="cls-12" x1="401.02" y1="87.31" x2="403.76" y2="87.31"/><line class="cls-12" x1="401.02" y1="60.83" x2="403.76" y2="60.83"/><line class="cls-12" x1="401.02" y1="34.35" x2="403.76" y2="34.35"/><line class="cls-12" x1="409.06" y1="148.31" x2="409.06" y2="145.57"/><line class="cls-12" x1="443.27" y1="148.31" x2="443.27" y2="145.57"/><line class="cls-12" x1="480.77" y1="148.31" x2="480.77" y2="145.57"/><text class="cls-11" transform="translate(401.79 156.95)">10k</text><text class="cls-11" transform="translate(436.02 156.95)">30k</text><text class="cls-11" transform="translate(471 156.95)">100k</text><text class="cls-13" transform="translate(437.72 169.57)"><tspan class="cls-18">Y</tspan><tspan x="5.81" y="0">ears ago</tspan></text><text class="cls-15" transform="translate(361.03 16.79)">g</text><rect class="cls-3" x="193.98" y="188.31" width="143.47" height="28.24"/><rect class="cls-3" x="204.94" y="193.79" width="17.28" height="17.28"/><line class="cls-7" x1="206.67" y1="202.43" x2="220.49" y2="202.43"/><rect class="cls-3" x="271.19" y="193.79" width="17.28" height="17.28"/><line class="cls-8" x1="272.92" y1="202.43" x2="286.75" y2="202.43"/><text class="cls-21" transform="translate(227.7 205.65)">Afr to Eur</text><text class="cls-21" transform="translate(293.95 205.65)">Eur to Afr</text></svg>