<svg id="Layer_1" data-name="Layer 1" xmlns="http://www.w3.org/2000/svg" xmlns:xlink="http://www.w3.org/1999/xlink" viewBox="0 0 847.75 290.35"><defs><style>.cls-1,.cls-10,.cls-11,.cls-13,.cls-18,.cls-19,.cls-25,.cls-26,.cls-29,.cls-4,.cls-5,.cls-8,.cls-9{fill:none;}.cls-2{clip-path:url(#clip-path);}.cls-3{fill:#fff;}.cls-25,.cls-4,.cls-8{stroke:#e52521;}.cls-10,.cls-11,.cls-13,.cls-18,.cls-19,.cls-25,.cls-26,.cls-29,.cls-4,.cls-5,.cls-8,.cls-9{stroke-linejoin:round;stroke-width:1.07px;}.cls-26,.cls-5,.cls-9{stroke:#2b4b9b;}.cls-6{fill:#e52521;}.cls-6,.cls-7{opacity:0.3;}.cls-7{fill:#2b4b9b;}.cls-19,.cls-8,.cls-9{stroke-dasharray:4.27 4.27;}.cls-10,.cls-18,.cls-19,.cls-29{stroke:#010101;}.cls-10,.cls-11{stroke-linecap:round;}.cls-11,.cls-13{stroke:#343434;}.cls-12,.cls-20{font-size:9px;}.cls-12{fill:#4e4d4d;}.cls-12,.cls-14,.cls-20,.cls-27{font-family:Helvetica;}.cls-14,.cls-27{font-size:11px;}.cls-14,.cls-20,.cls-23,.cls-27{fill:#010101;}.cls-15{letter-spacing:-0.05em;}.cls-16{letter-spacing:-0.01em;}.cls-17{letter-spacing:-0.14em;}.cls-21{letter-spacing:0.01em;}.cls-22{letter-spacing:-0.14em;}.cls-23{font-size:13px;font-family:Helvetica-Bold, Helvetica;font-weight:700;}.cls-24{clip-path:url(#clip-path-2);}.cls-25,.cls-26,.cls-29{stroke-dasharray:1.07 3.2;}.cls-27{letter-spacing:-0.14em;}.cls-28{letter-spacing:0em;}.cls-30{letter-spacing:0em;}</style><clipPath id="clip-path" transform="translate(0.24 -3.47)"><rect class="cls-1" x="50.41" y="53.85" width="370.05" height="208.15"/></clipPath><clipPath id="clip-path-2" transform="translate(0.24 -3.47)"><rect class="cls-1" x="476.93" y="53.85" width="370.05" height="208.15"/></clipPath></defs><g class="cls-2"><rect class="cls-3" x="50.65" y="50.38" width="370.05" height="208.15"/><polyline class="cls-4" points="79.27 77.18 95.55 77.18 95.55 121.22 111.81 121.22 111.81 162.77 128.09 162.77 128.09 193.16 144.38 193.16 144.38 206.89 160.66 206.89 160.66 209.3 176.94 209.3 176.94 207.55 193.21 207.55 193.21 204.24 209.49 204.24 209.49 200.19 225.76 200.19 225.76 191.03 242.04 191.03 242.04 182.65 258.32 182.65 258.32 175.87 274.61 175.87 274.61 149.24 290.88 149.24 290.88 120.84 307.15 120.84 307.15 99.36 323.44 99.36 323.44 102.77 339.71 102.77 339.71 96.64 356 96.64 356 102.74 372.26 102.74 372.26 110.2 388.55 110.2 388.55 119.9"/><polyline class="cls-5" points="50.65 153.72 79.27 153.72 79.27 71.17 95.55 71.17 95.55 119.19 111.81 119.19 111.81 150.3 128.09 150.3 128.09 131.57 144.38 131.57 144.38 140.29 160.66 140.29 160.66 135.11 176.94 135.11 176.94 142.65 193.21 142.65 193.21 150.45 209.49 150.45 209.49 149.75 225.76 149.75 225.76 160.79 242.04 160.79 242.04 163.24 258.32 163.24 258.32 165.09 274.61 165.09 274.61 145.53 290.88 145.53 290.88 121.1 307.15 121.1 307.15 101.31"/><polygon class="cls-6" points="95.55 83.63 111.81 83.63 111.81 160.79 128.09 160.79 128.09 186.99 144.38 186.99 144.38 196.13 160.66 196.13 160.66 206.13 176.94 206.13 176.94 206.85 193.21 206.85 193.21 200.37 209.49 200.37 209.49 200.16 225.76 200.16 225.76 190.64 242.04 190.64 242.04 181.06 258.32 181.06 258.32 175.3 274.61 175.3 274.61 149.02 290.88 149.02 290.88 120.43 307.15 120.43 307.15 98.84 323.44 98.84 323.44 102.73 339.71 102.73 339.71 96.19 356 96.19 356 102.59 372.26 102.59 372.26 110.02 388.55 110.02 388.55 119.77 388.55 119.94 388.55 110.26 372.26 110.26 372.26 102.74 356 102.74 356 97.09 339.71 97.09 339.71 103.32 323.44 103.32 323.44 99.92 307.15 99.92 307.15 120.92 290.88 120.92 290.88 149.64 274.61 149.64 274.61 176.15 258.32 176.15 258.32 183.4 242.04 183.4 242.04 191.22 225.76 191.22 225.76 201.7 209.49 201.7 209.49 205.64 193.21 205.64 193.21 211.57 176.94 211.57 176.94 213.46 160.66 213.46 160.66 208.26 144.38 208.26 144.38 196.55 128.09 196.55 128.09 171.64 111.81 171.64 111.81 122.33 95.55 122.33 95.55 83.63"/><polygon class="cls-7" points="95.55 108.28 111.81 108.28 111.81 123.33 128.09 123.33 128.09 126.02 144.38 126.02 144.38 136.34 160.66 136.34 160.66 134.2 176.94 134.2 176.94 136.74 193.21 136.74 193.21 146.07 209.49 146.07 209.49 148.5 225.76 148.5 225.76 157.46 242.04 157.46 242.04 159.65 258.32 159.65 258.32 163.79 274.61 163.79 274.61 143.88 290.88 143.88 290.88 120.48 307.15 120.48 307.15 100.86 307.15 102.67 307.15 121.77 290.88 121.77 290.88 145.77 274.61 145.77 274.61 166.01 258.32 166.01 258.32 163.35 242.04 163.35 242.04 162.4 225.76 162.4 225.76 153.34 209.49 153.34 209.49 153.06 193.21 153.06 193.21 145.37 176.94 145.37 176.94 140.85 160.66 140.85 160.66 154.89 144.38 154.89 144.38 137.23 128.09 137.23 128.09 151.5 111.81 151.5 111.81 129.7 95.55 129.7 95.55 108.28"/><polyline class="cls-8" points="50.65 147.92 88.11 147.92 125.64 147.92 125.64 207.49 154.79 207.49 154.79 236.73 179.49 236.73 179.49 239.15 201.41 239.15 201.41 220.6 221.51 220.6 221.51 196.7 240.34 196.7 240.34 170.96 258.23 170.96 258.23 142.86 275.4 142.86 275.4 119.35 292.06 119.35 292.06 101.94 308.3 101.94 308.3 93.64 324.21 93.64 324.21 92.85 339.88 92.85 339.88 99.02 355.33 99.02 355.33 109.33 370.63 109.33 370.63 118.81 385.8 118.81 385.8 125.02 400.87 125.02 400.87 129.45"/><polyline class="cls-9" points="50.65 172.97 88.11 172.97 125.64 172.97 154.79 172.97 154.79 161.7 179.49 161.7 179.49 147.75 201.41 147.75 201.41 153.07 221.51 153.07 221.51 143.18 240.34 143.18 240.34 124.65 258.23 124.65 258.23 107.25 275.4 107.25 275.4 95.84 292.06 95.84 292.06 92.15 308.3 92.15 308.3 90.54 324.21 90.54 324.21 93.2 339.88 93.2 339.88 100.84 355.33 100.84 355.33 110.33 370.63 110.33 370.63 120.03 385.8 120.03 385.8 126.85 400.87 126.85 400.87 130.98"/><polygon class="cls-6" points="88.11 147.92 125.64 147.92 125.64 207.49 154.79 207.49 154.79 236.73 179.49 236.73 179.49 239.15 201.41 239.15 201.41 220.6 221.51 220.6 221.51 196.7 240.34 196.7 240.34 170.96 258.23 170.96 258.23 142.86 275.4 142.86 275.4 119.35 292.06 119.35 292.06 101.94 308.3 101.94 308.3 93.64 324.21 93.64 324.21 92.85 339.88 92.85 339.88 99.02 355.33 99.02 355.33 109.33 370.63 109.33 370.63 118.81 385.8 118.81 385.8 125.02 400.87 125.02 400.87 129.45 400.87 125.02 385.8 125.02 385.8 118.81 370.63 118.81 370.63 109.33 355.33 109.33 355.33 99.02 339.88 99.02 339.88 92.86 324.21 92.86 324.21 93.64 308.3 93.64 308.3 101.94 292.06 101.94 292.06 119.35 275.4 119.35 275.4 142.86 258.23 142.86 258.23 170.96 240.34 170.96 240.34 196.7 221.51 196.7 221.51 220.6 201.41 220.6 201.41 239.15 179.49 239.15 179.49 236.73 154.79 236.73 154.79 207.49 125.64 207.49 125.64 147.92 88.11 147.92"/><polygon class="cls-7" points="88.11 172.97 125.64 172.97 154.79 172.97 154.79 161.7 179.49 161.7 179.49 147.75 201.41 147.75 201.41 153.07 221.51 153.07 221.51 143.18 240.34 143.18 240.34 124.65 258.23 124.65 258.23 107.25 275.4 107.25 275.4 95.84 292.06 95.84 292.06 92.15 308.3 92.15 308.3 90.54 324.21 90.54 324.21 93.2 339.88 93.2 339.88 100.84 355.33 100.84 355.33 110.33 370.63 110.33 370.63 120.03 385.8 120.03 385.8 126.85 400.87 126.85 400.87 130.98 400.87 126.85 385.8 126.85 385.8 120.03 370.63 120.03 370.63 110.33 355.33 110.33 355.33 100.84 339.88 100.84 339.88 93.2 324.21 93.2 324.21 90.54 308.3 90.54 308.3 92.15 292.06 92.15 292.06 95.84 275.4 95.84 275.4 107.26 258.23 107.26 258.23 124.65 240.34 124.65 240.34 143.18 221.51 143.18 221.51 153.07 201.41 153.07 201.41 147.75 179.49 147.75 179.49 161.7 154.79 161.7 154.79 172.97 125.64 172.97 88.11 172.97"/><line class="cls-10" x1="0.54" y1="258.53" x2="0.54" y2="255.7"/><line class="cls-10" x1="16.83" y1="258.53" x2="16.83" y2="252.86"/><line class="cls-10" x1="30.15" y1="258.53" x2="30.15" y2="255.7"/><line class="cls-10" x1="41.42" y1="258.53" x2="41.42" y2="255.7"/><line class="cls-10" x1="51.17" y1="258.53" x2="51.17" y2="255.7"/><line class="cls-10" x1="59.76" y1="258.53" x2="59.76" y2="255.7"/><line class="cls-10" x1="67.47" y1="258.53" x2="67.47" y2="250.03"/><line class="cls-10" x1="118.11" y1="258.53" x2="118.11" y2="255.7"/><line class="cls-10" x1="147.71" y1="258.53" x2="147.71" y2="255.7"/><line class="cls-10" x1="168.73" y1="258.53" x2="168.73" y2="255.7"/><line class="cls-10" x1="185.04" y1="258.53" x2="185.04" y2="252.86"/><line class="cls-10" x1="198.35" y1="258.53" x2="198.35" y2="255.7"/><line class="cls-10" x1="209.62" y1="258.53" x2="209.62" y2="255.7"/><line class="cls-10" x1="219.37" y1="258.53" x2="219.37" y2="255.7"/><line class="cls-10" x1="227.98" y1="258.53" x2="227.98" y2="255.7"/><line class="cls-10" x1="235.67" y1="258.53" x2="235.67" y2="250.03"/><line class="cls-10" x1="286.31" y1="258.53" x2="286.31" y2="255.7"/><line class="cls-10" x1="315.92" y1="258.53" x2="315.92" y2="255.7"/><line class="cls-10" x1="336.94" y1="258.53" x2="336.94" y2="255.7"/><line class="cls-10" x1="353.25" y1="258.53" x2="353.25" y2="252.86"/><line class="cls-10" x1="366.56" y1="258.53" x2="366.56" y2="255.7"/><line class="cls-10" x1="377.82" y1="258.53" x2="377.82" y2="255.7"/><line class="cls-10" x1="387.57" y1="258.53" x2="387.57" y2="255.7"/><line class="cls-10" x1="396.17" y1="258.53" x2="396.17" y2="255.7"/><line class="cls-10" x1="403.88" y1="258.53" x2="403.88" y2="250.03"/><line class="cls-10" x1="454.5" y1="258.53" x2="454.5" y2="255.7"/><line class="cls-10" x1="484.13" y1="258.53" x2="484.13" y2="255.7"/><line class="cls-10" x1="505.15" y1="258.53" x2="505.15" y2="255.7"/><line class="cls-10" x1="521.45" y1="258.53" x2="521.45" y2="252.86"/><line class="cls-10" x1="534.77" y1="258.53" x2="534.77" y2="255.7"/><line class="cls-10" x1="546.02" y1="258.53" x2="546.02" y2="255.7"/><line class="cls-10" x1="555.77" y1="258.53" x2="555.77" y2="255.7"/><line class="cls-10" x1="564.39" y1="258.53" x2="564.39" y2="255.7"/><line class="cls-10" x1="572.08" y1="258.53" x2="572.08" y2="250.03"/><line class="cls-10" x1="50.65" y1="289.82" x2="59.15" y2="289.82"/><line class="cls-10" x1="50.65" y1="249.07" x2="53.47" y2="249.07"/><line class="cls-10" x1="50.65" y1="225.23" x2="53.47" y2="225.23"/><line class="cls-10" x1="50.65" y1="208.32" x2="53.47" y2="208.32"/><line class="cls-10" x1="50.65" y1="195.2" x2="56.31" y2="195.2"/><line class="cls-10" x1="50.65" y1="184.49" x2="53.47" y2="184.49"/><line class="cls-10" x1="50.65" y1="175.42" x2="53.47" y2="175.42"/><line class="cls-10" x1="50.65" y1="167.57" x2="53.47" y2="167.57"/><line class="cls-10" x1="50.65" y1="160.65" x2="53.47" y2="160.65"/><line class="cls-10" x1="50.65" y1="154.46" x2="59.15" y2="154.46"/><line class="cls-10" x1="50.65" y1="113.71" x2="53.47" y2="113.71"/><line class="cls-10" x1="50.65" y1="89.87" x2="53.47" y2="89.87"/><line class="cls-10" x1="50.65" y1="72.96" x2="53.47" y2="72.96"/><line class="cls-10" x1="50.65" y1="59.84" x2="56.31" y2="59.84"/><line class="cls-10" x1="50.65" y1="49.12" x2="53.47" y2="49.12"/><line class="cls-10" x1="50.65" y1="40.06" x2="53.47" y2="40.06"/><line class="cls-10" x1="50.65" y1="32.21" x2="53.47" y2="32.21"/><line class="cls-10" x1="50.65" y1="25.29" x2="53.47" y2="25.29"/><line class="cls-10" x1="50.65" y1="19.09" x2="59.15" y2="19.09"/><rect class="cls-11" x="50.65" y="50.38" width="370.05" height="208.15"/></g><text class="cls-12" transform="translate(23.2 228.46)">3,000</text><text class="cls-12" transform="translate(18.2 157.69)">10,000</text><text class="cls-12" transform="translate(18.2 93.1)">30,000</text><line class="cls-13" x1="47.9" y1="225.23" x2="50.65" y2="225.23"/><line class="cls-13" x1="47.9" y1="154.46" x2="50.65" y2="154.46"/><line class="cls-13" x1="47.9" y1="89.87" x2="50.65" y2="89.87"/><text class="cls-14" transform="translate(13.03 191.39) rotate(-90)"><tspan class="cls-15">P</tspan><tspan x="6.8" y="0">opulation si</tspan><tspan class="cls-16" x="62.45" y="0">z</tspan><tspan x="67.79" y="0">e</tspan></text><line class="cls-13" x1="67.47" y1="261.27" x2="67.47" y2="258.53"/><line class="cls-13" x1="235.67" y1="261.27" x2="235.67" y2="258.53"/><line class="cls-13" x1="403.88" y1="261.27" x2="403.88" y2="258.53"/><text class="cls-12" transform="translate(60.22 269.93)">10k</text><text class="cls-12" transform="translate(225.92 269.93)">100k</text><text class="cls-12" transform="translate(390.36 269.93)">1,000k</text><text class="cls-14" transform="translate(211.38 282.54)"><tspan class="cls-17">Y</tspan><tspan x="5.81" y="0">ears ago</tspan></text><rect class="cls-3" x="68.48" y="11.18" width="134.93" height="28.24"/><rect class="cls-3" x="79.44" y="16.66" width="17.28" height="17.28"/><line class="cls-18" x1="81.16" y1="25.3" x2="94.99" y2="25.3"/><line class="cls-18" x1="81.16" y1="25.3" x2="94.99" y2="25.3"/><rect class="cls-3" x="147.67" y="16.66" width="17.28" height="17.28"/><line class="cls-19" x1="149.4" y1="25.3" x2="163.23" y2="25.3"/><line class="cls-19" x1="149.4" y1="25.3" x2="163.23" y2="25.3"/><text class="cls-20" transform="translate(102.2 28.53)">SMCSMC</text><text class="cls-20" transform="translate(170.43 28.53)">MSMC</text><rect class="cls-3" x="214.37" y="11.18" width="188.5" height="28.24"/><rect class="cls-3" x="225.32" y="16.66" width="17.28" height="17.28"/><line class="cls-4" x1="227.06" y1="25.3" x2="240.87" y2="25.3"/><rect class="cls-6" x="226.04" y="17.37" width="15.86" height="15.86"/><line class="cls-4" x1="227.06" y1="25.3" x2="240.87" y2="25.3"/><rect class="cls-6" x="226.04" y="17.37" width="15.86" height="15.86"/><rect class="cls-3" x="305.59" y="16.66" width="17.28" height="17.28"/><line class="cls-5" x1="307.32" y1="25.3" x2="321.13" y2="25.3"/><rect class="cls-7" x="306.29" y="17.37" width="15.86" height="15.86"/><line class="cls-5" x1="307.32" y1="25.3" x2="321.13" y2="25.3"/><rect class="cls-7" x="306.29" y="17.37" width="15.86" height="15.86"/><text class="cls-20" transform="translate(248.09 28.53)">Han Chinese</text><text class="cls-20" transform="translate(328.34 28.53)">Nige<tspan class="cls-21" x="18.51" y="0">r</tspan><tspan x="21.63" y="0">ian </tspan><tspan class="cls-22" x="36.14" y="0">Y</tspan><tspan x="40.89" y="0">o</tspan><tspan class="cls-21" x="45.89" y="0">r</tspan><tspan x="49.02" y="0">uban</tspan></text><text class="cls-23" transform="translate(5.13 11.18)">a</text><g class="cls-24"><rect class="cls-3" x="477.16" y="50.38" width="370.05" height="208.15"/><polyline class="cls-25" points="477.17 194.31 505.79 194.31 505.79 109.72 522.07 109.72 522.07 143.25 538.34 143.25 538.34 200.69 554.62 200.69 554.62 219.86 570.89 219.86 570.89 230.9 587.17 230.9 587.17 233.77 603.46 233.77 603.46 226.52 619.73 226.52 619.73 217.02 636 217.02 636 200.98 652.28 200.98 652.28 183.99 668.57 183.99 668.57 167.96 684.85 167.96 684.85 156.92 701.13 156.92 701.13 130.16 717.39 130.16 717.39 107.14 733.67 107.14 733.67 94.1 749.96 94.1 749.96 90.05 766.24 90.05 766.24 93.15 782.51 93.15 782.51 103.91 798.79 103.91 798.79 109.91 815.07 109.91 815.07 119.78"/><polyline class="cls-4" points="505.79 77.18 522.07 77.18 522.07 121.22 538.34 121.22 538.34 162.77 554.62 162.77 554.62 193.16 570.89 193.16 570.89 206.89 587.17 206.89 587.17 209.3 603.46 209.3 603.46 207.55 619.73 207.55 619.73 204.24 636 204.24 636 200.19 652.28 200.19 652.28 191.03 668.57 191.03 668.57 182.65 684.85 182.65 684.85 175.87 701.13 175.87 701.13 149.24 717.39 149.24 717.39 120.84 733.67 120.84 733.67 99.36 749.96 99.36 749.96 102.77 766.24 102.77 766.24 96.64 782.51 96.64 782.51 102.74 798.79 102.74 798.79 110.2 815.07 110.2 815.07 119.9"/><polyline class="cls-26" points="477.17 187.07 505.79 187.07 505.79 148.05 522.07 148.05 522.07 163.84 538.34 163.84 538.34 187.22 554.62 187.22 554.62 176.03 570.89 176.03 570.89 164.93 587.17 164.93 587.17 157.46 603.46 157.46 603.46 150.9 619.73 150.9 619.73 141.84 636 141.84 636 133.65 652.28 133.65 652.28 125.26 668.57 125.26 668.57 124.05 684.85 124.05 684.85 125.93 701.13 125.93 701.13 110.74 717.39 110.74 717.39 97.16 733.67 97.16 733.67 89.95 749.96 89.95 749.96 89.64 766.24 89.64 766.24 94.04 782.51 94.04 782.51 106.17 798.79 106.17 798.79 113.6 815.07 113.6 815.07 122.04"/><polyline class="cls-5" points="477.17 153.72 505.79 153.72 505.79 71.17 522.07 71.17 522.07 119.19 538.34 119.19 538.34 150.3 554.62 150.3 554.62 131.57 570.89 131.57 570.89 140.29 587.17 140.29 587.17 135.11 603.46 135.11 603.46 142.65 619.73 142.65 619.73 150.45 636 150.45 636 149.75 652.28 149.75 652.28 160.79 668.57 160.79 668.57 163.24 684.85 163.24 684.85 165.09 701.13 165.09 701.13 145.53 717.39 145.53 717.39 121.1 733.67 121.1 733.67 101.31"/><polygon class="cls-6" points="505.79 103.2 522.07 103.2 522.07 133.88 538.34 133.88 538.34 197.64 554.62 197.64 554.62 216.29 570.89 216.29 570.89 227.87 587.17 227.87 587.17 233.09 603.46 233.09 603.46 226.52 619.73 226.52 619.73 216.97 636 216.97 636 199.83 652.28 199.83 652.28 183.79 668.57 183.79 668.57 167.3 684.85 167.3 684.85 156.48 701.13 156.48 701.13 130.13 717.39 130.13 717.39 106.86 733.67 106.86 733.67 94.08 749.96 94.08 749.96 89.66 766.24 89.66 766.24 93.06 782.51 93.06 782.51 103.89 798.79 103.89 798.79 109.81 815.07 109.81 815.07 119.75 815.07 119.78 815.07 109.99 798.79 109.99 798.79 103.93 782.51 103.93 782.51 93.24 766.24 93.24 766.24 90.2 749.96 90.2 749.96 94.13 733.67 94.13 733.67 107.57 717.39 107.57 717.39 130.58 701.13 130.58 701.13 157.1 684.85 157.1 684.85 168.04 668.57 168.04 668.57 184.29 652.28 184.29 652.28 201 636 201 636 217.19 619.73 217.19 619.73 227.94 603.46 227.94 603.46 235 587.17 235 587.17 232.14 570.89 232.14 570.89 220.3 554.62 220.3 554.62 204.39 538.34 204.39 538.34 144.86 522.07 144.86 522.07 129.22 505.79 129.22 505.79 103.2"/><polygon class="cls-6" points="522.07 83.63 538.34 83.63 538.34 160.79 554.62 160.79 554.62 186.99 570.89 186.99 570.89 196.13 587.17 196.13 587.17 206.13 603.46 206.13 603.46 206.85 619.73 206.85 619.73 200.37 636 200.37 636 200.16 652.28 200.16 652.28 190.64 668.57 190.64 668.57 181.06 684.85 181.06 684.85 175.3 701.13 175.3 701.13 149.02 717.39 149.02 717.39 120.43 733.67 120.43 733.67 98.84 749.96 98.84 749.96 102.73 766.24 102.73 766.24 96.19 782.51 96.19 782.51 102.59 798.79 102.59 798.79 110.02 815.07 110.02 815.07 119.77 815.07 119.94 815.07 110.26 798.79 110.26 798.79 102.74 782.51 102.74 782.51 97.09 766.24 97.09 766.24 103.32 749.96 103.32 749.96 99.92 733.67 99.92 733.67 120.92 717.39 120.92 717.39 149.64 701.13 149.64 701.13 176.15 684.85 176.15 684.85 183.4 668.57 183.4 668.57 191.22 652.28 191.22 652.28 201.7 636 201.7 636 205.64 619.73 205.64 619.73 211.57 603.46 211.57 603.46 213.46 587.17 213.46 587.17 208.26 570.89 208.26 570.89 196.55 554.62 196.55 554.62 171.64 538.34 171.64 538.34 122.33 522.07 122.33 522.07 83.63"/><polygon class="cls-7" points="505.79 135.76 522.07 135.76 522.07 157.81 538.34 157.81 538.34 185.5 554.62 185.5 554.62 174.72 570.89 174.72 570.89 163.92 587.17 163.92 587.17 157.42 603.46 157.42 603.46 150.81 619.73 150.81 619.73 141.72 636 141.72 636 133.49 652.28 133.49 652.28 124.95 668.57 124.95 668.57 122.81 684.85 122.81 684.85 125.8 701.13 125.8 701.13 110.61 717.39 110.61 717.39 96.91 733.67 96.91 733.67 89.52 749.96 89.52 749.96 89.35 766.24 89.35 766.24 94.01 782.51 94.01 782.51 106.11 798.79 106.11 798.79 113.48 815.07 113.48 815.07 122.02 815.07 122.06 815.07 113.7 798.79 113.7 798.79 106.23 782.51 106.23 782.51 94.15 766.24 94.15 766.24 89.71 749.96 89.71 749.96 90.16 733.67 90.16 733.67 97.74 717.39 97.74 717.39 110.8 701.13 110.8 701.13 125.98 684.85 125.98 684.85 125.02 668.57 125.02 668.57 126.12 652.28 126.12 652.28 133.67 636 133.67 636 142 619.73 142 619.73 151.76 603.46 151.76 603.46 158.51 587.17 158.51 587.17 165.83 570.89 165.83 570.89 176.19 554.62 176.19 554.62 189.49 538.34 189.49 538.34 174.04 522.07 174.04 522.07 159.95 505.79 159.95 505.79 135.76"/><polygon class="cls-7" points="522.07 108.28 538.34 108.28 538.34 123.33 554.62 123.33 554.62 126.02 570.89 126.02 570.89 136.34 587.17 136.34 587.17 134.2 603.46 134.2 603.46 136.74 619.73 136.74 619.73 146.07 636 146.07 636 148.5 652.28 148.5 652.28 157.46 668.57 157.46 668.57 159.65 684.85 159.65 684.85 163.79 701.13 163.79 701.13 143.88 717.39 143.88 717.39 120.48 733.67 120.48 733.67 100.86 733.67 102.67 733.67 121.77 717.39 121.77 717.39 145.77 701.13 145.77 701.13 166.01 684.85 166.01 684.85 163.35 668.57 163.35 668.57 162.4 652.28 162.4 652.28 153.34 636 153.34 636 153.06 619.73 153.06 619.73 145.37 603.46 145.37 603.46 140.85 587.17 140.85 587.17 154.89 570.89 154.89 570.89 137.23 554.62 137.23 554.62 151.5 538.34 151.5 538.34 129.7 522.07 129.7 522.07 108.28"/><line class="cls-10" x1="325.78" y1="258.53" x2="325.78" y2="250.03"/><line class="cls-10" x1="376.41" y1="258.53" x2="376.41" y2="255.7"/><line class="cls-10" x1="406.03" y1="258.53" x2="406.03" y2="255.7"/><line class="cls-10" x1="427.06" y1="258.53" x2="427.06" y2="255.7"/><line class="cls-10" x1="443.35" y1="258.53" x2="443.35" y2="252.86"/><line class="cls-10" x1="456.67" y1="258.53" x2="456.67" y2="255.7"/><line class="cls-10" x1="467.94" y1="258.53" x2="467.94" y2="255.7"/><line class="cls-10" x1="477.69" y1="258.53" x2="477.69" y2="255.7"/><line class="cls-10" x1="486.28" y1="258.53" x2="486.28" y2="255.7"/><line class="cls-10" x1="493.98" y1="258.53" x2="493.98" y2="250.03"/><line class="cls-10" x1="544.63" y1="258.53" x2="544.63" y2="255.7"/><line class="cls-10" x1="574.25" y1="258.53" x2="574.25" y2="255.7"/><line class="cls-10" x1="595.26" y1="258.53" x2="595.26" y2="255.7"/><line class="cls-10" x1="611.56" y1="258.53" x2="611.56" y2="252.86"/><line class="cls-10" x1="624.88" y1="258.53" x2="624.88" y2="255.7"/><line class="cls-10" x1="636.14" y1="258.53" x2="636.14" y2="255.7"/><line class="cls-10" x1="645.89" y1="258.53" x2="645.89" y2="255.7"/><line class="cls-10" x1="654.5" y1="258.53" x2="654.5" y2="255.7"/><line class="cls-10" x1="662.2" y1="258.53" x2="662.2" y2="250.03"/><line class="cls-10" x1="712.83" y1="258.53" x2="712.83" y2="255.7"/><line class="cls-10" x1="742.45" y1="258.53" x2="742.45" y2="255.7"/><line class="cls-10" x1="763.46" y1="258.53" x2="763.46" y2="255.7"/><line class="cls-10" x1="779.77" y1="258.53" x2="779.77" y2="252.86"/><line class="cls-10" x1="793.08" y1="258.53" x2="793.08" y2="255.7"/><line class="cls-10" x1="804.34" y1="258.53" x2="804.34" y2="255.7"/><line class="cls-10" x1="814.09" y1="258.53" x2="814.09" y2="255.7"/><line class="cls-10" x1="822.7" y1="258.53" x2="822.7" y2="255.7"/><line class="cls-10" x1="830.39" y1="258.53" x2="830.39" y2="250.03"/><line class="cls-10" x1="477.16" y1="289.82" x2="485.66" y2="289.82"/><line class="cls-10" x1="477.16" y1="249.07" x2="480" y2="249.07"/><line class="cls-10" x1="477.16" y1="225.23" x2="480" y2="225.23"/><line class="cls-10" x1="477.16" y1="208.32" x2="480" y2="208.32"/><line class="cls-10" x1="477.16" y1="195.2" x2="482.84" y2="195.2"/><line class="cls-10" x1="477.16" y1="184.49" x2="480" y2="184.49"/><line class="cls-10" x1="477.16" y1="175.42" x2="480" y2="175.42"/><line class="cls-10" x1="477.16" y1="167.57" x2="480" y2="167.57"/><line class="cls-10" x1="477.16" y1="160.65" x2="480" y2="160.65"/><line class="cls-10" x1="477.16" y1="154.46" x2="485.66" y2="154.46"/><line class="cls-10" x1="477.16" y1="113.71" x2="480" y2="113.71"/><line class="cls-10" x1="477.16" y1="89.87" x2="480" y2="89.87"/><line class="cls-10" x1="477.16" y1="72.96" x2="480" y2="72.96"/><line class="cls-10" x1="477.16" y1="59.84" x2="482.84" y2="59.84"/><line class="cls-10" x1="477.16" y1="49.12" x2="480" y2="49.12"/><line class="cls-10" x1="477.16" y1="40.06" x2="480" y2="40.06"/><line class="cls-10" x1="477.16" y1="32.21" x2="480" y2="32.21"/><line class="cls-10" x1="477.16" y1="25.29" x2="480" y2="25.29"/><line class="cls-10" x1="477.16" y1="19.09" x2="485.66" y2="19.09"/><rect class="cls-11" x="477.16" y="50.38" width="370.05" height="208.15"/></g><text class="cls-12" transform="translate(449.72 228.46)">3,000</text><text class="cls-12" transform="translate(444.72 157.69)">10,000</text><text class="cls-12" transform="translate(444.72 93.1)">30,000</text><line class="cls-13" x1="474.42" y1="225.23" x2="477.16" y2="225.23"/><line class="cls-13" x1="474.42" y1="154.46" x2="477.16" y2="154.46"/><line class="cls-13" x1="474.42" y1="89.87" x2="477.16" y2="89.87"/><line class="cls-13" x1="493.98" y1="261.27" x2="493.98" y2="258.53"/><line class="cls-13" x1="662.2" y1="261.27" x2="662.2" y2="258.53"/><line class="cls-13" x1="830.39" y1="261.27" x2="830.39" y2="258.53"/><text class="cls-12" transform="translate(486.73 269.93)">10k</text><text class="cls-12" transform="translate(652.43 269.93)">100k</text><text class="cls-12" transform="translate(816.88 269.93)">1,000k</text><text class="cls-27" transform="translate(637.89 282.54)">Y<tspan class="cls-28" x="5.81" y="0">ears ago</tspan></text><rect class="cls-3" x="500.23" y="11.18" width="124.46" height="28.24"/><line class="cls-29" x1="512.92" y1="25.3" x2="526.75" y2="25.3"/><line class="cls-18" x1="579.17" y1="25.3" x2="593" y2="25.3"/><text class="cls-20" transform="translate(533.96 28.53)">Individual</text><text class="cls-20" transform="translate(600.21 28.53)">Joint</text><rect class="cls-3" x="635.65" y="11.18" width="188.5" height="28.24"/><line class="cls-4" x1="648.33" y1="25.3" x2="662.16" y2="25.3"/><rect class="cls-6" x="647.33" y="17.37" width="15.86" height="15.86"/><line class="cls-5" x1="728.59" y1="25.3" x2="742.42" y2="25.3"/><rect class="cls-7" x="727.58" y="17.37" width="15.86" height="15.86"/><text class="cls-20" transform="translate(669.38 28.53)">Han Chinese</text><text class="cls-20" transform="translate(749.63 28.53)">Nige<tspan class="cls-21" x="18.51" y="0">r</tspan><tspan class="cls-30" x="21.63" y="0">ian </tspan><tspan class="cls-22" x="36.14" y="0">Y</tspan><tspan x="40.89" y="0">o</tspan><tspan class="cls-21" x="45.89" y="0">r</tspan><tspan class="cls-30" x="49.01" y="0">uban</tspan></text><text class="cls-23" transform="translate(431.66 11.18)">b</text></svg>