<svg id="Layer_1" data-name="Layer 1" xmlns="http://www.w3.org/2000/svg" xmlns:xlink="http://www.w3.org/1999/xlink" viewBox="0 0 609.14 390.34"><defs><style>.cls-1,.cls-10,.cls-11,.cls-12,.cls-14,.cls-4,.cls-6,.cls-7,.cls-8,.cls-9{fill:none;}.cls-2{clip-path:url(#clip-path);}.cls-3{fill:#fff;}.cls-4{stroke:#fff;}.cls-11,.cls-12,.cls-4{stroke-linecap:round;}.cls-10,.cls-11,.cls-12,.cls-14,.cls-4,.cls-6,.cls-7,.cls-8,.cls-9{stroke-linejoin:round;stroke-width:1.07px;}.cls-5{clip-path:url(#clip-path-2);}.cls-11,.cls-6{stroke:#010101;}.cls-7,.cls-8{stroke:#e52521;}.cls-7{stroke-dasharray:4.27 4.27;}.cls-10,.cls-9{stroke:#2b4b9b;}.cls-10{stroke-dasharray:1.07 3.2;}.cls-12,.cls-14{stroke:#343434;}.cls-13,.cls-25{font-size:9px;}.cls-13{fill:#4e4d4d;}.cls-13,.cls-15,.cls-21,.cls-24,.cls-25{font-family:Helvetica;}.cls-15,.cls-21,.cls-24{font-size:11px;}.cls-15,.cls-19,.cls-21,.cls-24,.cls-25{fill:#010101;}.cls-16{letter-spacing:-0.05em;}.cls-17{letter-spacing:-0.01em;}.cls-18{letter-spacing:-0.14em;}.cls-19{font-size:13px;font-family:Helvetica-Bold, Helvetica;font-weight:700;}.cls-20{clip-path:url(#clip-path-3);}.cls-21{letter-spacing:-0.14em;}.cls-22{letter-spacing:0em;}.cls-23{clip-path:url(#clip-path-4);}.cls-24{letter-spacing:-0.14em;}.cls-26{letter-spacing:-0.03em;}.cls-27{letter-spacing:-0.01em;}.cls-28{letter-spacing:0.01em;}.cls-29{letter-spacing:0em;}.cls-30{letter-spacing:-0.03em;}.cls-31{letter-spacing:-0.12em;}</style><clipPath id="clip-path" transform="translate(-95.55 -41.59)"><rect class="cls-1" x="274.9" y="55.91" width="284.35" height="204.77"/></clipPath><clipPath id="clip-path-2" transform="translate(-95.55 -41.59)"><rect class="cls-1" x="325.89" y="61.39" width="227.88" height="128.18"/></clipPath><clipPath id="clip-path-3" transform="translate(-95.55 -41.59)"><rect class="cls-1" x="189.32" y="244.68" width="227.88" height="128.18"/></clipPath><clipPath id="clip-path-4" transform="translate(-95.55 -41.59)"><rect class="cls-1" x="473.66" y="244.68" width="227.88" height="128.18"/></clipPath></defs><g class="cls-2"><rect class="cls-3" x="179.34" y="14.32" width="284.35" height="204.77"/><rect class="cls-4" x="179.34" y="14.32" width="284.35" height="204.77"/></g><g class="cls-5"><rect class="cls-3" x="230.33" y="19.81" width="227.88" height="128.18"/><polyline class="cls-6" points="230.34 66.03 245.19 66.03 257.14 66.03 269.1 66.03 281.05 66.03 293 66.03 297.05 66.03 304.95 66.03 316.9 66.03 324.89 66.03 328.86 66.03 340.81 66.03 352.75 66.03 364.7 66.03 364.7 59.77 376.67 59.77 376.67 47.2 388.62 47.2 388.62 39.7 400.56 39.7 400.56 38.44 412.51 38.44 412.51 42.99 424.46 42.99 424.46 51.47 436.43 51.47 436.43 60.76"/><polyline class="cls-6" points="245.19 63.83 257.14 63.83 257.14 81.16 269.1 81.16 269.1 96.06 281.05 96.06 281.05 107.64 293 107.64 293 114.88 297.05 114.88 297.05 116.19 304.95 116.19 304.95 116.91 316.9 116.91 316.9 113.28 324.89 113.28 324.89 107.8 328.86 107.8 328.86 104.25 340.81 104.25 340.81 90.92 352.75 90.92 352.75 75.25 364.7 75.25 364.7 59.77 376.67 59.77 376.67 47.2 388.62 47.2 388.62 39.7 400.56 39.7 400.56 38.44 412.51 38.44 412.51 42.99 424.46 42.99 424.46 51.47 436.43 51.47 436.43 60.76"/><line class="cls-7" x1="324.89" y1="147.98" x2="324.89" y2="19.8"/><line class="cls-7" x1="317.38" y1="147.98" x2="317.38" y2="19.8"/><polyline class="cls-8" points="247.96 38.33 257.99 38.33 257.99 81.36 268 81.36 268 97.06 278.02 97.06 278.02 112.64 288.06 112.64 288.06 121.28 298.07 121.28 298.07 117.31 308.11 117.31 308.11 110.08 318.13 110.08 318.13 111.42 328.15 111.42 328.15 106.34 338.18 106.34 338.18 95.47 348.19 95.47 348.19 90.81 358.23 90.81 358.23 85.86 368.25 85.86 368.25 67.84 378.27 67.84 378.27 54.65 388.3 54.65 388.3 37.87 398.31 37.87 398.31 51.01 408.35 51.01 408.35 45.66 418.37 45.66 418.37 46.66 428.39 46.66 428.39 52.12 438.42 52.12 438.42 60.62"/><line class="cls-9" x1="230.33" y1="49.38" x2="247.95" y2="49.38"/><polyline class="cls-9" points="257.99 66.11 268 66.11 268 62.17 278.02 62.17 278.02 70.33 288.06 70.33 288.06 73 298.07 73 298.07 67.61 308.11 67.61 308.11 65.69 318.13 65.69 318.13 70.44 328.15 70.44 328.15 66.53 338.18 66.53 338.18 69.56 348.19 69.56 348.19 65.5 358.23 65.5 358.23 74.81 368.25 74.81 368.25 67.14 378.27 67.14 378.27 61.34 388.3 61.34 388.3 55.01"/><polyline class="cls-10" points="257.99 60.45 268 60.45 268 55.06 278.02 55.06 278.02 70.72 288.06 70.72 288.06 61.77 298.07 61.77 298.07 60.77 308.11 60.77 308.11 58.88 318.13 58.88 318.13 58.02 328.15 58.02 328.15 53.51 338.18 53.51 338.18 52.22 348.19 52.22 348.19 52.34 358.23 52.34 358.23 55.76 368.25 55.76 368.25 48.38 378.27 48.38 378.27 40.92 388.3 40.92 388.3 37.2 398.31 37.2 398.31 35.31 408.35 35.31 408.35 39.73 418.37 39.73 418.37 47.23 428.39 47.23 428.39 53.41 438.42 53.41 438.42 60.23"/><line class="cls-11" x1="186.53" y1="147.98" x2="186.53" y2="145.14"/><line class="cls-11" x1="199.47" y1="147.98" x2="199.47" y2="145.14"/><line class="cls-11" x1="209.51" y1="147.98" x2="209.51" y2="142.31"/><line class="cls-11" x1="217.71" y1="147.98" x2="217.71" y2="145.14"/><line class="cls-11" x1="224.64" y1="147.98" x2="224.64" y2="145.14"/><line class="cls-11" x1="230.65" y1="147.98" x2="230.65" y2="145.14"/><line class="cls-11" x1="235.95" y1="147.98" x2="235.95" y2="145.14"/><line class="cls-11" x1="240.69" y1="147.98" x2="240.69" y2="139.47"/><line class="cls-11" x1="271.87" y1="147.98" x2="271.87" y2="145.14"/><line class="cls-11" x1="290.11" y1="147.98" x2="290.11" y2="145.14"/><line class="cls-11" x1="303.05" y1="147.98" x2="303.05" y2="145.14"/><line class="cls-11" x1="313.09" y1="147.98" x2="313.09" y2="142.31"/><line class="cls-11" x1="321.29" y1="147.98" x2="321.29" y2="145.14"/><line class="cls-11" x1="328.22" y1="147.98" x2="328.22" y2="145.14"/><line class="cls-11" x1="334.23" y1="147.98" x2="334.23" y2="145.14"/><line class="cls-11" x1="339.53" y1="147.98" x2="339.53" y2="145.14"/><line class="cls-11" x1="344.27" y1="147.98" x2="344.27" y2="139.47"/><line class="cls-11" x1="375.45" y1="147.98" x2="375.45" y2="145.14"/><line class="cls-11" x1="393.69" y1="147.98" x2="393.69" y2="145.14"/><line class="cls-11" x1="406.63" y1="147.98" x2="406.63" y2="145.14"/><line class="cls-11" x1="416.67" y1="147.98" x2="416.67" y2="142.31"/><line class="cls-11" x1="424.87" y1="147.98" x2="424.87" y2="145.14"/><line class="cls-11" x1="431.8" y1="147.98" x2="431.8" y2="145.14"/><line class="cls-11" x1="437.81" y1="147.98" x2="437.81" y2="145.14"/><line class="cls-11" x1="443.11" y1="147.98" x2="443.11" y2="145.14"/><line class="cls-11" x1="447.85" y1="147.98" x2="447.85" y2="139.47"/><line class="cls-11" x1="479.04" y1="147.98" x2="479.04" y2="145.14"/><line class="cls-11" x1="497.27" y1="147.98" x2="497.27" y2="145.14"/><line class="cls-11" x1="510.21" y1="147.98" x2="510.21" y2="145.14"/><line class="cls-11" x1="520.26" y1="147.98" x2="520.26" y2="142.31"/><line class="cls-11" x1="528.45" y1="147.98" x2="528.45" y2="145.14"/><line class="cls-11" x1="535.38" y1="147.98" x2="535.38" y2="145.14"/><line class="cls-11" x1="541.39" y1="147.98" x2="541.39" y2="145.14"/><line class="cls-11" x1="546.69" y1="147.98" x2="546.69" y2="145.14"/><line class="cls-11" x1="551.43" y1="147.98" x2="551.43" y2="139.47"/><line class="cls-11" x1="230.33" y1="167.24" x2="238.83" y2="167.24"/><line class="cls-11" x1="230.33" y1="142.15" x2="233.16" y2="142.15"/><line class="cls-11" x1="230.33" y1="127.47" x2="233.16" y2="127.47"/><line class="cls-11" x1="230.33" y1="117.06" x2="233.16" y2="117.06"/><line class="cls-11" x1="230.33" y1="108.98" x2="236" y2="108.98"/><line class="cls-11" x1="230.33" y1="102.38" x2="233.16" y2="102.38"/><line class="cls-11" x1="230.33" y1="96.8" x2="233.16" y2="96.8"/><line class="cls-11" x1="230.33" y1="91.98" x2="233.16" y2="91.98"/><line class="cls-11" x1="230.33" y1="87.7" x2="233.16" y2="87.7"/><line class="cls-11" x1="230.33" y1="83.9" x2="238.83" y2="83.9"/><line class="cls-11" x1="230.33" y1="58.79" x2="233.16" y2="58.79"/><line class="cls-11" x1="230.33" y1="44.12" x2="233.16" y2="44.12"/><line class="cls-11" x1="230.33" y1="33.7" x2="233.16" y2="33.7"/><line class="cls-11" x1="230.33" y1="25.62" x2="236" y2="25.62"/><line class="cls-11" x1="230.33" y1="19.02" x2="233.16" y2="19.02"/><line class="cls-11" x1="230.33" y1="13.45" x2="233.16" y2="13.45"/><line class="cls-11" x1="230.33" y1="8.62" x2="233.16" y2="8.62"/><line class="cls-11" x1="230.33" y1="4.35" x2="233.16" y2="4.35"/><line class="cls-11" x1="230.33" y1="0.54" x2="238.83" y2="0.54"/><rect class="cls-12" x="230.33" y="19.81" width="227.88" height="128.18"/></g><text class="cls-13" transform="translate(202.89 130.71)">3,000</text><text class="cls-13" transform="translate(197.89 87.12)">10,000</text><text class="cls-13" transform="translate(197.89 47.36)">30,000</text><line class="cls-14" x1="227.59" y1="127.47" x2="230.33" y2="127.47"/><line class="cls-14" x1="227.59" y1="83.9" x2="230.33" y2="83.9"/><line class="cls-14" x1="227.59" y1="44.12" x2="230.33" y2="44.12"/><text class="cls-15" transform="translate(192.72 120.84) rotate(-90)"><tspan class="cls-16">P</tspan><tspan x="6.79" y="0">opulation si</tspan><tspan class="cls-17" x="62.44" y="0">z</tspan><tspan x="67.78" y="0">e</tspan></text><line class="cls-14" x1="240.69" y1="150.72" x2="240.69" y2="147.98"/><line class="cls-14" x1="344.27" y1="150.72" x2="344.27" y2="147.98"/><line class="cls-14" x1="447.85" y1="150.72" x2="447.85" y2="147.98"/><text class="cls-13" transform="translate(233.43 159.37)">10k</text><text class="cls-13" transform="translate(334.51 159.37)">100k</text><text class="cls-13" transform="translate(434.34 159.37)">1,000k</text><text class="cls-15" transform="translate(319.97 172)"><tspan class="cls-18">Y</tspan><tspan x="5.81" y="0">ears ago</tspan></text><text class="cls-19" transform="translate(184.82 19.8)">c</text><g class="cls-20"><rect class="cls-3" x="93.77" y="203.09" width="227.88" height="128.18"/><polyline class="cls-6" points="93.77 249.32 108.61 249.32 120.58 249.32 132.53 249.32 144.47 249.32 156.43 249.32 160.47 249.32 168.38 249.32 180.32 249.32 188.32 249.32 192.28 249.32 204.24 249.32 216.19 249.32 228.13 249.32 228.13 243.06 240.09 243.06 240.09 230.49 252.04 230.49 252.04 223 264 223 264 221.72 275.94 221.72 275.94 226.28 287.89 226.28 287.89 234.75 299.85 234.75 299.85 244.04"/><polyline class="cls-6" points="108.61 247.12 120.58 247.12 120.58 264.44 132.53 264.44 132.53 279.35 144.47 279.35 144.47 290.94 156.43 290.94 156.43 298.17 160.47 298.17 160.47 299.48 168.38 299.48 168.38 300.19 180.32 300.19 180.32 296.56 188.32 296.56 188.32 291.08 192.28 291.08 192.28 287.55 204.24 287.55 204.24 274.21 216.19 274.21 216.19 258.55 228.13 258.55 228.13 243.06 240.09 243.06 240.09 230.49 252.04 230.49 252.04 223 264 223 264 221.72 275.94 221.72 275.94 226.28 287.89 226.28 287.89 234.75 299.85 234.75 299.85 244.04"/><line class="cls-7" x1="188.33" y1="331.27" x2="188.33" y2="203.09"/><line class="cls-7" x1="180.8" y1="331.27" x2="180.8" y2="203.09"/><polyline class="cls-8" points="111.39 259.92 121.41 259.92 121.41 275.32 131.44 275.32 131.44 285.71 141.46 285.71 141.46 292.88 151.49 292.88 151.49 309.85 161.5 309.85 161.5 298.27 171.53 298.27 171.53 282.96 181.56 282.96 181.56 278.38 191.57 278.38 191.57 269.81 201.6 269.81 201.6 263.15 211.63 263.15 211.63 255.56 221.65 255.56 221.65 254.09 231.68 254.09 231.68 247.97 241.69 247.97 241.69 232.71 251.72 232.71 251.72 221.62 261.75 221.62 261.75 237.22 271.77 237.22 271.77 227.63 281.8 227.63 281.8 230.54 291.81 230.54 291.81 236.06 301.85 236.06 301.85 244.41"/><polyline class="cls-9" points="93.77 283.19 111.39 283.19 111.39 234.56 121.41 234.56 121.41 252.16 131.44 252.16 131.44 253.71 141.46 253.71 141.46 255.66 151.49 255.66 151.49 249.72 161.5 249.72 161.5 259.21 171.53 259.21 171.53 257.44 181.56 257.44 181.56 249.62 191.57 249.62 191.57 253.13 201.6 253.13 201.6 256.42 211.63 256.42 211.63 256.19 221.65 256.19 221.65 257.56 231.68 257.56 231.68 253.24 241.69 253.24 241.69 240.06 251.72 240.06 251.72 233.69"/><polyline class="cls-10" points="111.39 237.93 121.41 237.93 121.41 219.85 131.44 219.85 131.44 254.07 141.46 254.07 141.46 247.59 151.49 247.59 151.49 239.94 161.5 239.94 161.5 248.25 171.53 248.25 171.53 240.87 181.56 240.87 181.56 239.47 191.57 239.47 191.57 235.6 201.6 235.6 201.6 233.9 211.63 233.9 211.63 235.34 221.65 235.34 221.65 240.09 231.68 240.09 231.68 231.72 241.69 231.72 241.69 225.63 251.72 225.63 251.72 220.65 261.75 220.65 261.75 219.31 271.77 219.31 271.77 223.22 281.8 223.22 281.8 230.84 291.81 230.84 291.81 237.1 301.85 237.1 301.85 243.91"/><line class="cls-11" x1="0.54" y1="331.27" x2="0.54" y2="322.76"/><line class="cls-11" x1="31.73" y1="331.27" x2="31.73" y2="328.43"/><line class="cls-11" x1="49.96" y1="331.27" x2="49.96" y2="328.43"/><line class="cls-11" x1="62.9" y1="331.27" x2="62.9" y2="328.43"/><line class="cls-11" x1="72.93" y1="331.27" x2="72.93" y2="325.6"/><line class="cls-11" x1="81.15" y1="331.27" x2="81.15" y2="328.43"/><line class="cls-11" x1="88.08" y1="331.27" x2="88.08" y2="328.43"/><line class="cls-11" x1="94.09" y1="331.27" x2="94.09" y2="328.43"/><line class="cls-11" x1="99.39" y1="331.27" x2="99.39" y2="328.43"/><line class="cls-11" x1="104.12" y1="331.27" x2="104.12" y2="322.76"/><line class="cls-11" x1="135.3" y1="331.27" x2="135.3" y2="328.43"/><line class="cls-11" x1="153.55" y1="331.27" x2="153.55" y2="328.43"/><line class="cls-11" x1="166.49" y1="331.27" x2="166.49" y2="328.43"/><line class="cls-11" x1="176.52" y1="331.27" x2="176.52" y2="325.6"/><line class="cls-11" x1="184.73" y1="331.27" x2="184.73" y2="328.43"/><line class="cls-11" x1="191.65" y1="331.27" x2="191.65" y2="328.43"/><line class="cls-11" x1="197.67" y1="331.27" x2="197.67" y2="328.43"/><line class="cls-11" x1="202.96" y1="331.27" x2="202.96" y2="328.43"/><line class="cls-11" x1="207.71" y1="331.27" x2="207.71" y2="322.76"/><line class="cls-11" x1="238.89" y1="331.27" x2="238.89" y2="328.43"/><line class="cls-11" x1="257.12" y1="331.27" x2="257.12" y2="328.43"/><line class="cls-11" x1="270.06" y1="331.27" x2="270.06" y2="328.43"/><line class="cls-11" x1="280.1" y1="331.27" x2="280.1" y2="325.6"/><line class="cls-11" x1="288.3" y1="331.27" x2="288.3" y2="328.43"/><line class="cls-11" x1="295.23" y1="331.27" x2="295.23" y2="328.43"/><line class="cls-11" x1="301.24" y1="331.27" x2="301.24" y2="328.43"/><line class="cls-11" x1="306.54" y1="331.27" x2="306.54" y2="328.43"/><line class="cls-11" x1="311.29" y1="331.27" x2="311.29" y2="322.76"/><line class="cls-11" x1="342.47" y1="331.27" x2="342.47" y2="328.43"/><line class="cls-11" x1="360.71" y1="331.27" x2="360.71" y2="328.43"/><line class="cls-11" x1="373.65" y1="331.27" x2="373.65" y2="328.43"/><line class="cls-11" x1="383.68" y1="331.27" x2="383.68" y2="325.6"/><line class="cls-11" x1="391.89" y1="331.27" x2="391.89" y2="328.43"/><line class="cls-11" x1="398.81" y1="331.27" x2="398.81" y2="328.43"/><line class="cls-11" x1="404.83" y1="331.27" x2="404.83" y2="328.43"/><line class="cls-11" x1="410.12" y1="331.27" x2="410.12" y2="328.43"/><line class="cls-11" x1="414.86" y1="331.27" x2="414.86" y2="322.76"/><line class="cls-11" x1="93.77" y1="350.53" x2="102.27" y2="350.53"/><line class="cls-11" x1="93.77" y1="325.44" x2="96.59" y2="325.44"/><line class="cls-11" x1="93.77" y1="310.76" x2="96.59" y2="310.76"/><line class="cls-11" x1="93.77" y1="300.35" x2="96.59" y2="300.35"/><line class="cls-11" x1="93.77" y1="292.27" x2="99.43" y2="292.27"/><line class="cls-11" x1="93.77" y1="285.67" x2="96.59" y2="285.67"/><line class="cls-11" x1="93.77" y1="280.09" x2="96.59" y2="280.09"/><line class="cls-11" x1="93.77" y1="275.26" x2="96.59" y2="275.26"/><line class="cls-11" x1="93.77" y1="270.99" x2="96.59" y2="270.99"/><line class="cls-11" x1="93.77" y1="267.18" x2="102.27" y2="267.18"/><line class="cls-11" x1="93.77" y1="242.08" x2="96.59" y2="242.08"/><line class="cls-11" x1="93.77" y1="227.41" x2="96.59" y2="227.41"/><line class="cls-11" x1="93.77" y1="216.99" x2="96.59" y2="216.99"/><line class="cls-11" x1="93.77" y1="208.91" x2="99.43" y2="208.91"/><line class="cls-11" x1="93.77" y1="202.31" x2="96.59" y2="202.31"/><line class="cls-11" x1="93.77" y1="196.73" x2="96.59" y2="196.73"/><line class="cls-11" x1="93.77" y1="191.9" x2="96.59" y2="191.9"/><line class="cls-11" x1="93.77" y1="187.64" x2="96.59" y2="187.64"/><line class="cls-11" x1="93.77" y1="183.82" x2="102.27" y2="183.82"/><rect class="cls-12" x="93.77" y="203.09" width="227.88" height="128.18"/></g><text class="cls-13" transform="translate(66.32 314)">3,000</text><text class="cls-13" transform="translate(61.3 270.41)">10,000</text><text class="cls-13" transform="translate(61.3 230.65)">30,000</text><line class="cls-14" x1="91.02" y1="310.76" x2="93.77" y2="310.76"/><line class="cls-14" x1="91.02" y1="267.18" x2="93.77" y2="267.18"/><line class="cls-14" x1="91.02" y1="227.41" x2="93.77" y2="227.41"/><line class="cls-14" x1="104.12" y1="334.01" x2="104.12" y2="331.27"/><line class="cls-14" x1="207.71" y1="334.01" x2="207.71" y2="331.27"/><line class="cls-14" x1="311.29" y1="334.01" x2="311.29" y2="331.27"/><text class="cls-13" transform="translate(96.86 342.66)">10k</text><text class="cls-13" transform="translate(197.95 342.66)">100k</text><text class="cls-13" transform="translate(297.78 342.66)">1,000k</text><text class="cls-21" transform="translate(183.4 355.29)">Y<tspan class="cls-22" x="5.8" y="0">ears ago</tspan></text><text class="cls-19" transform="translate(48.26 203.09)">d</text><g class="cls-23"><rect class="cls-3" x="378.1" y="203.09" width="227.88" height="128.18"/><polyline class="cls-6" points="378.11 249.32 392.96 249.32 404.92 249.32 416.87 249.32 428.82 249.32 440.77 249.32 444.82 249.32 452.73 249.32 464.68 249.32 472.67 249.32 476.63 249.32 488.58 249.32 500.54 249.32 512.49 249.32 512.49 243.06 524.43 243.06 524.43 230.49 536.38 230.49 536.38 223 548.34 223 548.34 221.72 560.29 221.72 560.29 226.28 572.25 226.28 572.25 234.75 584.2 234.75 584.2 244.04"/><polyline class="cls-6" points="392.96 247.12 404.92 247.12 404.92 264.44 416.87 264.44 416.87 279.35 428.82 279.35 428.82 290.94 440.77 290.94 440.77 298.17 444.82 298.17 444.82 299.48 452.73 299.48 452.73 300.19 464.68 300.19 464.68 296.56 472.67 296.56 472.67 291.08 476.63 291.08 476.63 287.55 488.58 287.55 488.58 274.21 500.54 274.21 500.54 258.55 512.49 258.55 512.49 243.06 524.43 243.06 524.43 230.49 536.38 230.49 536.38 223 548.34 223 548.34 221.72 560.29 221.72 560.29 226.28 572.25 226.28 572.25 234.75 584.2 234.75 584.2 244.04"/><line class="cls-7" x1="472.66" y1="331.27" x2="472.66" y2="203.09"/><line class="cls-7" x1="465.16" y1="331.27" x2="465.16" y2="203.09"/><polyline class="cls-8" points="395.74 216.65 405.75 216.65 405.75 273.94 415.77 273.94 415.77 288.27 425.81 288.27 425.81 299.8 435.82 299.8 435.82 299 445.86 299 445.86 299.52 455.88 299.52 455.88 287.24 465.89 287.24 465.89 273.14 475.93 273.14 475.93 263.65 485.94 263.65 485.94 250.26 495.98 250.26 495.98 245.69 506 245.69 506 251.62 516.02 251.62 516.02 244.44 526.04 244.44 526.04 233.4 536.07 233.4 536.07 219.31 546.1 219.31 546.1 236.78 556.12 236.78 556.12 227.6 566.14 227.6 566.14 230.12 576.16 230.12 576.16 236.53 586.18 236.53 586.18 243.54"/><polyline class="cls-9" points="405.75 262.93 415.77 262.93 415.77 258.31 425.81 258.31 425.81 246.13 435.82 246.13 435.82 251.09 445.86 251.09 445.86 256.68 455.88 256.68 455.88 250.19 465.89 250.19 465.89 257.07 475.93 257.07 475.93 255.19 485.94 255.19 485.94 258.85 495.98 258.85 495.98 257.73 506 257.73 506 261.06 516.02 261.06 516.02 254.51 526.04 254.51 526.04 243.84 536.07 243.84 536.07 235.78"/><polyline class="cls-10" points="378.11 211.68 395.74 211.68 395.74 231.71 405.75 231.71 405.75 215.44 415.77 215.44 415.77 244.71 425.81 244.71 425.81 246.26 435.82 246.26 435.82 244.24 445.86 244.24 445.86 245.84 455.88 245.84 455.88 246.16 465.89 246.16 465.89 250.79 475.93 250.79 475.93 249.53 485.94 249.53 485.94 249.41 495.98 249.41 495.98 250.53 506 250.53 506 249.63 516.02 249.63 516.02 241.16 526.04 241.16 526.04 230.78 536.07 230.78 536.07 223.47 546.1 223.47 546.1 221.49 556.12 221.49 556.12 223.38 566.14 223.38 566.14 230.68 576.16 230.68 576.16 236.78 586.18 236.78 586.18 243.24"/><line class="cls-11" x1="284.89" y1="331.27" x2="284.89" y2="322.76"/><line class="cls-11" x1="316.06" y1="331.27" x2="316.06" y2="328.43"/><line class="cls-11" x1="334.3" y1="331.27" x2="334.3" y2="328.43"/><line class="cls-11" x1="347.24" y1="331.27" x2="347.24" y2="328.43"/><line class="cls-11" x1="357.29" y1="331.27" x2="357.29" y2="325.6"/><line class="cls-11" x1="365.48" y1="331.27" x2="365.48" y2="328.43"/><line class="cls-11" x1="372.42" y1="331.27" x2="372.42" y2="328.43"/><line class="cls-11" x1="378.42" y1="331.27" x2="378.42" y2="328.43"/><line class="cls-11" x1="383.73" y1="331.27" x2="383.73" y2="328.43"/><line class="cls-11" x1="388.47" y1="331.27" x2="388.47" y2="322.76"/><line class="cls-11" x1="419.65" y1="331.27" x2="419.65" y2="328.43"/><line class="cls-11" x1="437.89" y1="331.27" x2="437.89" y2="328.43"/><line class="cls-11" x1="450.83" y1="331.27" x2="450.83" y2="328.43"/><line class="cls-11" x1="460.86" y1="331.27" x2="460.86" y2="325.6"/><line class="cls-11" x1="469.06" y1="331.27" x2="469.06" y2="328.43"/><line class="cls-11" x1="476.01" y1="331.27" x2="476.01" y2="328.43"/><line class="cls-11" x1="482.01" y1="331.27" x2="482.01" y2="328.43"/><line class="cls-11" x1="487.3" y1="331.27" x2="487.3" y2="328.43"/><line class="cls-11" x1="492.04" y1="331.27" x2="492.04" y2="322.76"/><line class="cls-11" x1="523.23" y1="331.27" x2="523.23" y2="328.43"/><line class="cls-11" x1="541.47" y1="331.27" x2="541.47" y2="328.43"/><line class="cls-11" x1="554.41" y1="331.27" x2="554.41" y2="328.43"/><line class="cls-11" x1="564.45" y1="331.27" x2="564.45" y2="325.6"/><line class="cls-11" x1="572.65" y1="331.27" x2="572.65" y2="328.43"/><line class="cls-11" x1="579.59" y1="331.27" x2="579.59" y2="328.43"/><line class="cls-11" x1="585.6" y1="331.27" x2="585.6" y2="328.43"/><line class="cls-11" x1="590.89" y1="331.27" x2="590.89" y2="328.43"/><line class="cls-11" x1="595.62" y1="331.27" x2="595.62" y2="322.76"/><line class="cls-11" x1="378.1" y1="350.53" x2="386.61" y2="350.53"/><line class="cls-11" x1="378.1" y1="325.44" x2="380.95" y2="325.44"/><line class="cls-11" x1="378.1" y1="310.76" x2="380.95" y2="310.76"/><line class="cls-11" x1="378.1" y1="300.35" x2="380.95" y2="300.35"/><line class="cls-11" x1="378.1" y1="292.27" x2="383.78" y2="292.27"/><line class="cls-11" x1="378.1" y1="285.67" x2="380.95" y2="285.67"/><line class="cls-11" x1="378.1" y1="280.09" x2="380.95" y2="280.09"/><line class="cls-11" x1="378.1" y1="275.26" x2="380.95" y2="275.26"/><line class="cls-11" x1="378.1" y1="270.99" x2="380.95" y2="270.99"/><line class="cls-11" x1="378.1" y1="267.18" x2="386.61" y2="267.18"/><line class="cls-11" x1="378.1" y1="242.08" x2="380.95" y2="242.08"/><line class="cls-11" x1="378.1" y1="227.41" x2="380.95" y2="227.41"/><line class="cls-11" x1="378.1" y1="216.99" x2="380.95" y2="216.99"/><line class="cls-11" x1="378.1" y1="208.91" x2="383.78" y2="208.91"/><line class="cls-11" x1="378.1" y1="202.31" x2="380.95" y2="202.31"/><line class="cls-11" x1="378.1" y1="196.73" x2="380.95" y2="196.73"/><line class="cls-11" x1="378.1" y1="191.9" x2="380.95" y2="191.9"/><line class="cls-11" x1="378.1" y1="187.64" x2="380.95" y2="187.64"/><line class="cls-11" x1="378.1" y1="183.82" x2="386.61" y2="183.82"/><rect class="cls-12" x="378.1" y="203.09" width="227.88" height="128.18"/></g><text class="cls-13" transform="translate(350.65 314)">3,000</text><text class="cls-13" transform="translate(345.65 270.41)">10,000</text><text class="cls-13" transform="translate(345.65 230.65)">30,000</text><line class="cls-14" x1="375.36" y1="310.76" x2="378.1" y2="310.76"/><line class="cls-14" x1="375.36" y1="267.18" x2="378.1" y2="267.18"/><line class="cls-14" x1="375.36" y1="227.41" x2="378.1" y2="227.41"/><line class="cls-14" x1="388.47" y1="334.01" x2="388.47" y2="331.27"/><line class="cls-14" x1="492.04" y1="334.01" x2="492.04" y2="331.27"/><line class="cls-14" x1="595.62" y1="334.01" x2="595.62" y2="331.27"/><text class="cls-13" transform="translate(381.21 342.66)">10k</text><text class="cls-13" transform="translate(482.29 342.66)">100k</text><text class="cls-13" transform="translate(582.11 342.66)">1,000k</text><text class="cls-24" transform="translate(467.74 355.29)">Y<tspan class="cls-22" x="5.81" y="0">ears ago</tspan></text><text class="cls-19" transform="translate(332.6 203.09)">e</text><line class="cls-8" x1="129.2" y1="382.78" x2="143.02" y2="382.78"/><line class="cls-8" x1="129.2" y1="382.78" x2="143.02" y2="382.78"/><line class="cls-8" x1="129.2" y1="382.78" x2="143.02" y2="382.78"/><line class="cls-9" x1="247.62" y1="382.78" x2="261.43" y2="382.78"/><line class="cls-9" x1="247.62" y1="382.78" x2="261.43" y2="382.78"/><line class="cls-9" x1="247.62" y1="382.78" x2="261.43" y2="382.78"/><line class="cls-10" x1="358.76" y1="382.78" x2="372.58" y2="382.78"/><line class="cls-10" x1="358.76" y1="382.78" x2="372.58" y2="382.78"/><line class="cls-10" x1="358.76" y1="382.78" x2="372.58" y2="382.78"/><line class="cls-6" x1="475.9" y1="382.78" x2="489.72" y2="382.78"/><line class="cls-6" x1="475.9" y1="382.78" x2="489.72" y2="382.78"/><line class="cls-6" x1="475.9" y1="382.78" x2="489.72" y2="382.78"/><text class="cls-25" transform="translate(150.22 386.01)">In<tspan class="cls-26" x="7.51" y="0">f</tspan><tspan x="9.75" y="0">erred Joint Eu</tspan><tspan class="cls-27" x="65.78" y="0">r</tspan><tspan x="68.68" y="0">asian</tspan></text><text class="cls-25" transform="translate(268.65 386.01)">In<tspan class="cls-26" x="7.51" y="0">f</tspan><tspan x="9.75" y="0">erred Joint Af</tspan><tspan class="cls-28" x="63.27" y="0">r</tspan><tspan class="cls-29" x="66.39" y="0">ican</tspan></text><text class="cls-25" transform="translate(379.78 386.01)">In<tspan class="cls-30" x="7.51" y="0">f</tspan><tspan x="9.75" y="0">erred Single Af</tspan><tspan class="cls-28" x="69.28" y="0">r</tspan><tspan x="72.4" y="0">ican</tspan></text><text class="cls-25" transform="translate(496.93 386.01)">Si<tspan class="cls-27" x="8" y="0">m</tspan><tspan class="cls-29" x="15.41" y="0">ulated </tspan><tspan class="cls-31" x="42.43" y="0">T</tspan><tspan class="cls-28" x="46.86" y="0">r</tspan><tspan x="49.98" y="0">uth Ne</tspan></text></svg>