<svg id="Layer_1" data-name="Layer 1" xmlns="http://www.w3.org/2000/svg" xmlns:xlink="http://www.w3.org/1999/xlink" viewBox="0 0 865.07 577.07"><defs><style>.cls-1,.cls-11,.cls-12,.cls-13,.cls-14,.cls-16,.cls-21,.cls-22,.cls-29,.cls-30,.cls-33,.cls-4,.cls-7,.cls-8{fill:none;}.cls-2{clip-path:url(#clip-path);}.cls-3{fill:#fff;}.cls-4{stroke:#fff;}.cls-13,.cls-14,.cls-4{stroke-linecap:round;}.cls-11,.cls-12,.cls-13,.cls-14,.cls-16,.cls-21,.cls-22,.cls-29,.cls-30,.cls-33,.cls-4,.cls-7,.cls-8{stroke-linejoin:round;stroke-width:1.07px;}.cls-5{clip-path:url(#clip-path-2);}.cls-6{clip-path:url(#clip-path-3);}.cls-11,.cls-29,.cls-7{stroke:red;}.cls-12,.cls-30,.cls-8{stroke:blue;}.cls-9{fill:red;}.cls-10,.cls-9{opacity:0.3;}.cls-10{fill:blue;}.cls-11,.cls-12,.cls-22{stroke-dasharray:4.27 4.27;}.cls-13,.cls-21,.cls-22,.cls-33{stroke:#000;}.cls-14,.cls-16{stroke:#333;}.cls-15,.cls-23{font-size:9px;}.cls-15{fill:#4d4d4d;}.cls-15,.cls-17,.cls-23,.cls-31,.cls-41{font-family:Helvetica;}.cls-17,.cls-31,.cls-41{font-size:11px;}.cls-18{letter-spacing:-0.05em;}.cls-19{letter-spacing:-0.01em;}.cls-20{letter-spacing:-0.14em;}.cls-24{letter-spacing:0.01em;}.cls-25{letter-spacing:-0.14em;}.cls-26{font-size:13px;font-family:Helvetica-Bold, Helvetica;font-weight:700;}.cls-27{clip-path:url(#clip-path-4);}.cls-28{clip-path:url(#clip-path-5);}.cls-29,.cls-30,.cls-33{stroke-dasharray:1.07 3.2;}.cls-31{letter-spacing:-0.14em;}.cls-32{letter-spacing:0em;}.cls-34{letter-spacing:0em;}.cls-35{clip-path:url(#clip-path-6);}.cls-36{clip-path:url(#clip-path-7);}.cls-37{letter-spacing:-0.05em;}.cls-38{letter-spacing:-0.01em;}.cls-39{clip-path:url(#clip-path-8);}.cls-40{clip-path:url(#clip-path-9);}.cls-41{letter-spacing:-0.14em;}.cls-42{clip-path:url(#clip-path-10);}.cls-43{clip-path:url(#clip-path-11);}.cls-44{letter-spacing:-0.03em;}.cls-45{letter-spacing:-0.01em;}.cls-46{letter-spacing:-0.03em;}.cls-47{letter-spacing:-0.12em;}</style><clipPath id="clip-path" transform="translate(0.54 0.54)"><rect class="cls-1" width="864" height="576"/></clipPath><clipPath id="clip-path-2" transform="translate(0.54 0.54)"><rect class="cls-1" x="5.48" y="38.69" width="426.52" height="284.74"/></clipPath><clipPath id="clip-path-3" transform="translate(0.54 0.54)"><rect class="cls-1" x="56.47" y="83.37" width="370.05" height="208.15"/></clipPath><clipPath id="clip-path-4" transform="translate(0.54 0.54)"><rect class="cls-1" x="432" y="38.69" width="426.52" height="284.74"/></clipPath><clipPath id="clip-path-5" transform="translate(0.54 0.54)"><rect class="cls-1" x="482.99" y="83.37" width="370.05" height="208.15"/></clipPath><clipPath id="clip-path-6" transform="translate(0.54 0.54)"><rect class="cls-1" x="5.48" y="361.2" width="284.35" height="204.77"/></clipPath><clipPath id="clip-path-7" transform="translate(0.54 0.54)"><rect class="cls-1" x="56.47" y="366.68" width="227.88" height="128.18"/></clipPath><clipPath id="clip-path-8" transform="translate(0.54 0.54)"><rect class="cls-1" x="289.83" y="361.2" width="284.35" height="204.77"/></clipPath><clipPath id="clip-path-9" transform="translate(0.54 0.54)"><rect class="cls-1" x="340.82" y="366.68" width="227.88" height="128.18"/></clipPath><clipPath id="clip-path-10" transform="translate(0.54 0.54)"><rect class="cls-1" x="574.17" y="361.2" width="284.35" height="204.77"/></clipPath><clipPath id="clip-path-11" transform="translate(0.54 0.54)"><rect class="cls-1" x="625.16" y="366.68" width="227.88" height="128.18"/></clipPath></defs><g class="cls-2"><rect class="cls-3" x="0.54" y="0.54" width="864" height="576"/><rect class="cls-4" x="0.54" y="0.54" width="864" height="576"/></g><g class="cls-5"><rect class="cls-3" x="6.02" y="39.23" width="426.52" height="284.74"/><rect class="cls-4" x="6.02" y="39.23" width="426.52" height="284.74"/></g><g class="cls-6"><rect class="cls-3" x="57.01" y="83.9" width="370.05" height="208.15"/><polyline class="cls-7" points="85.63 110.7 101.91 110.7 101.91 154.75 118.17 154.75 118.17 196.29 134.46 196.29 134.46 226.69 150.74 226.69 150.74 240.41 167.01 240.41 167.01 242.82 183.29 242.82 183.29 241.07 199.56 241.07 199.56 237.76 215.84 237.76 215.84 233.72 232.13 233.72 232.13 224.56 248.41 224.56 248.41 216.18 264.69 216.18 264.69 209.4 280.96 209.4 280.96 182.76 297.24 182.76 297.24 154.37 313.51 154.37 313.51 132.88 329.8 132.88 329.8 136.29 346.07 136.29 346.07 130.16 362.36 130.16 362.36 136.26 378.63 136.26 378.63 143.72 394.9 143.72 394.9 153.43"/><polyline class="cls-8" points="57.01 187.25 85.63 187.25 85.63 104.69 101.91 104.69 101.91 152.72 118.17 152.72 118.17 183.82 134.46 183.82 134.46 165.09 150.74 165.09 150.74 173.81 167.01 173.81 167.01 168.63 183.29 168.63 183.29 176.18 199.56 176.18 199.56 183.97 215.84 183.97 215.84 183.28 232.13 183.28 232.13 194.31 248.41 194.31 248.41 196.76 264.69 196.76 264.69 198.62 280.96 198.62 280.96 179.06 297.24 179.06 297.24 154.63 313.51 154.63 313.51 134.84"/><polygon class="cls-9" points="101.91 117.16 118.17 117.16 118.17 194.31 134.46 194.31 134.46 220.51 150.74 220.51 150.74 229.66 167.01 229.66 167.01 239.66 183.29 239.66 183.29 240.38 199.56 240.38 199.56 233.9 215.84 233.9 215.84 233.69 232.13 233.69 232.13 224.16 248.41 224.16 248.41 214.59 264.69 214.59 264.69 208.82 280.96 208.82 280.96 182.54 297.24 182.54 297.24 153.96 313.51 153.96 313.51 132.37 329.8 132.37 329.8 136.25 346.07 136.25 346.07 129.72 362.36 129.72 362.36 136.12 378.63 136.12 378.63 143.54 394.9 143.54 394.9 153.29 394.9 153.47 394.9 143.78 378.63 143.78 378.63 136.26 362.36 136.26 362.36 130.62 346.07 130.62 346.07 136.84 329.8 136.84 329.8 133.44 313.51 133.44 313.51 154.44 297.24 154.44 297.24 183.16 280.96 183.16 280.96 209.68 264.69 209.68 264.69 216.93 248.41 216.93 248.41 224.75 232.13 224.75 232.13 235.22 215.84 235.22 215.84 239.16 199.56 239.16 199.56 245.09 183.29 245.09 183.29 246.99 167.01 246.99 167.01 241.78 150.74 241.78 150.74 230.07 134.46 230.07 134.46 205.16 118.17 205.16 118.17 155.85 101.91 155.85 101.91 117.16"/><polygon class="cls-10" points="101.91 141.81 118.17 141.81 118.17 156.85 134.46 156.85 134.46 159.54 150.74 159.54 150.74 169.87 167.01 169.87 167.01 167.72 183.29 167.72 183.29 170.26 199.56 170.26 199.56 179.59 215.84 179.59 215.84 182.03 232.13 182.03 232.13 190.99 248.41 190.99 248.41 193.18 264.69 193.18 264.69 197.31 280.96 197.31 280.96 177.41 297.24 177.41 297.24 154 313.51 154 313.51 134.38 313.51 136.19 313.51 155.29 297.24 155.29 297.24 179.29 280.96 179.29 280.96 199.53 264.69 199.53 264.69 196.88 248.41 196.88 248.41 195.93 232.13 195.93 232.13 186.87 215.84 186.87 215.84 186.59 199.56 186.59 199.56 178.9 183.29 178.9 183.29 174.38 167.01 174.38 167.01 188.41 150.74 188.41 150.74 170.75 134.46 170.75 134.46 185.03 118.17 185.03 118.17 163.22 101.91 163.22 101.91 141.81"/><polyline class="cls-11" points="57.01 181.44 94.47 181.44 132 181.44 132 241.01 161.16 241.01 161.16 270.25 185.84 270.25 185.84 272.68 207.78 272.68 207.78 254.13 227.88 254.13 227.88 230.22 246.69 230.22 246.69 204.49 264.58 204.49 264.58 176.38 281.76 176.38 281.76 152.88 298.42 152.88 298.42 135.47 314.65 135.47 314.65 127.17 330.57 127.17 330.57 126.38 346.24 126.38 346.24 132.54 361.69 132.54 361.69 142.85 377 142.85 377 152.34 392.15 152.34 392.15 158.54 407.23 158.54 407.23 162.97"/><polyline class="cls-12" points="57.01 206.5 94.47 206.5 132 206.5 161.16 206.5 161.16 195.22 185.84 195.22 185.84 181.28 207.78 181.28 207.78 186.59 227.88 186.59 227.88 176.71 246.69 176.71 246.69 158.18 264.58 158.18 264.58 140.78 281.76 140.78 281.76 129.37 298.42 129.37 298.42 125.67 314.65 125.67 314.65 124.06 330.57 124.06 330.57 126.72 346.24 126.72 346.24 134.37 361.69 134.37 361.69 143.85 377 143.85 377 153.56 392.15 153.56 392.15 160.38 407.23 160.38 407.23 164.5"/><polygon class="cls-9" points="94.47 181.44 132 181.44 132 241.01 161.16 241.01 161.16 270.25 185.84 270.25 185.84 272.68 207.78 272.68 207.78 254.13 227.88 254.13 227.88 230.22 246.69 230.22 246.69 204.49 264.58 204.49 264.58 176.38 281.76 176.38 281.76 152.88 298.42 152.88 298.42 135.47 314.65 135.47 314.65 127.17 330.57 127.17 330.57 126.38 346.24 126.38 346.24 132.54 361.69 132.54 361.69 142.85 377 142.85 377 152.34 392.15 152.34 392.15 158.54 407.23 158.54 407.23 162.97 407.23 158.54 392.15 158.54 392.15 152.34 377 152.34 377 142.85 361.69 142.85 361.69 132.54 346.24 132.54 346.24 126.39 330.57 126.39 330.57 127.17 314.65 127.17 314.65 135.47 298.42 135.47 298.42 152.88 281.76 152.88 281.76 176.38 264.58 176.38 264.58 204.49 246.69 204.49 246.69 230.22 227.88 230.22 227.88 254.13 207.78 254.13 207.78 272.68 185.84 272.68 185.84 270.25 161.16 270.25 161.16 241.01 132 241.01 132 181.44 94.47 181.44"/><polygon class="cls-10" points="94.47 206.5 132 206.5 161.16 206.5 161.16 195.22 185.84 195.22 185.84 181.28 207.78 181.28 207.78 186.59 227.88 186.59 227.88 176.71 246.69 176.71 246.69 158.18 264.58 158.18 264.58 140.78 281.76 140.78 281.76 129.37 298.42 129.37 298.42 125.67 314.65 125.67 314.65 124.06 330.57 124.06 330.57 126.72 346.24 126.72 346.24 134.37 361.69 134.37 361.69 143.85 377 143.85 377 153.56 392.15 153.56 392.15 160.38 407.23 160.38 407.23 164.5 407.23 160.38 392.15 160.38 392.15 153.56 377 153.56 377 143.85 361.69 143.85 361.69 134.37 346.24 134.37 346.24 126.72 330.57 126.72 330.57 124.06 314.65 124.06 314.65 125.67 298.42 125.67 298.42 129.37 281.76 129.37 281.76 140.78 264.58 140.78 264.58 158.18 246.69 158.18 246.69 176.71 227.88 176.71 227.88 186.59 207.78 186.59 207.78 181.28 185.84 181.28 185.84 195.22 161.16 195.22 161.16 206.5 132 206.5 94.47 206.5"/><line class="cls-13" x1="6.9" y1="292.05" x2="6.9" y2="289.23"/><line class="cls-13" x1="23.19" y1="292.05" x2="23.19" y2="286.39"/><line class="cls-13" x1="36.51" y1="292.05" x2="36.51" y2="289.23"/><line class="cls-13" x1="47.78" y1="292.05" x2="47.78" y2="289.23"/><line class="cls-13" x1="57.53" y1="292.05" x2="57.53" y2="289.23"/><line class="cls-13" x1="66.12" y1="292.05" x2="66.12" y2="289.23"/><line class="cls-13" x1="73.83" y1="292.05" x2="73.83" y2="283.55"/><line class="cls-13" x1="124.47" y1="292.05" x2="124.47" y2="289.23"/><line class="cls-13" x1="154.07" y1="292.05" x2="154.07" y2="289.23"/><line class="cls-13" x1="175.09" y1="292.05" x2="175.09" y2="289.23"/><line class="cls-13" x1="191.4" y1="292.05" x2="191.4" y2="286.39"/><line class="cls-13" x1="204.71" y1="292.05" x2="204.71" y2="289.23"/><line class="cls-13" x1="215.98" y1="292.05" x2="215.98" y2="289.23"/><line class="cls-13" x1="225.73" y1="292.05" x2="225.73" y2="289.23"/><line class="cls-13" x1="234.34" y1="292.05" x2="234.34" y2="289.23"/><line class="cls-13" x1="242.04" y1="292.05" x2="242.04" y2="283.55"/><line class="cls-13" x1="292.67" y1="292.05" x2="292.67" y2="289.23"/><line class="cls-13" x1="322.29" y1="292.05" x2="322.29" y2="289.23"/><line class="cls-13" x1="343.3" y1="292.05" x2="343.3" y2="289.23"/><line class="cls-13" x1="359.61" y1="292.05" x2="359.61" y2="286.39"/><line class="cls-13" x1="372.92" y1="292.05" x2="372.92" y2="289.23"/><line class="cls-13" x1="384.18" y1="292.05" x2="384.18" y2="289.23"/><line class="cls-13" x1="393.93" y1="292.05" x2="393.93" y2="289.23"/><line class="cls-13" x1="402.54" y1="292.05" x2="402.54" y2="289.23"/><line class="cls-13" x1="410.24" y1="292.05" x2="410.24" y2="283.55"/><line class="cls-13" x1="460.86" y1="292.05" x2="460.86" y2="289.23"/><line class="cls-13" x1="490.49" y1="292.05" x2="490.49" y2="289.23"/><line class="cls-13" x1="511.51" y1="292.05" x2="511.51" y2="289.23"/><line class="cls-13" x1="527.81" y1="292.05" x2="527.81" y2="286.39"/><line class="cls-13" x1="541.13" y1="292.05" x2="541.13" y2="289.23"/><line class="cls-13" x1="552.38" y1="292.05" x2="552.38" y2="289.23"/><line class="cls-13" x1="562.13" y1="292.05" x2="562.13" y2="289.23"/><line class="cls-13" x1="570.75" y1="292.05" x2="570.75" y2="289.23"/><line class="cls-13" x1="578.44" y1="292.05" x2="578.44" y2="283.55"/><line class="cls-13" x1="57.01" y1="323.34" x2="65.51" y2="323.34"/><line class="cls-13" x1="57.01" y1="282.59" x2="59.83" y2="282.59"/><line class="cls-13" x1="57.01" y1="258.76" x2="59.83" y2="258.76"/><line class="cls-13" x1="57.01" y1="241.84" x2="59.83" y2="241.84"/><line class="cls-13" x1="57.01" y1="228.73" x2="62.67" y2="228.73"/><line class="cls-13" x1="57.01" y1="218.02" x2="59.83" y2="218.02"/><line class="cls-13" x1="57.01" y1="208.95" x2="59.83" y2="208.95"/><line class="cls-13" x1="57.01" y1="201.09" x2="59.83" y2="201.09"/><line class="cls-13" x1="57.01" y1="194.18" x2="59.83" y2="194.18"/><line class="cls-13" x1="57.01" y1="187.99" x2="65.51" y2="187.99"/><line class="cls-13" x1="57.01" y1="147.24" x2="59.83" y2="147.24"/><line class="cls-13" x1="57.01" y1="123.39" x2="59.83" y2="123.39"/><line class="cls-13" x1="57.01" y1="106.49" x2="59.83" y2="106.49"/><line class="cls-13" x1="57.01" y1="93.36" x2="62.67" y2="93.36"/><line class="cls-13" x1="57.01" y1="82.64" x2="59.83" y2="82.64"/><line class="cls-13" x1="57.01" y1="73.58" x2="59.83" y2="73.58"/><line class="cls-13" x1="57.01" y1="65.74" x2="59.83" y2="65.74"/><line class="cls-13" x1="57.01" y1="58.82" x2="59.83" y2="58.82"/><line class="cls-13" x1="57.01" y1="52.62" x2="65.51" y2="52.62"/><rect class="cls-14" x="57.01" y="83.9" width="370.05" height="208.15"/></g><text class="cls-15" transform="translate(29.56 261.99)">3,000</text><text class="cls-15" transform="translate(24.56 191.22)">10,000</text><text class="cls-15" transform="translate(24.56 126.62)">30,000</text><line class="cls-16" x1="54.26" y1="258.76" x2="57.01" y2="258.76"/><line class="cls-16" x1="54.26" y1="187.99" x2="57.01" y2="187.99"/><line class="cls-16" x1="54.26" y1="123.39" x2="57.01" y2="123.39"/><text class="cls-17" transform="translate(19.39 224.92) rotate(-90)"><tspan class="cls-18">P</tspan><tspan x="6.8" y="0">opulation si</tspan><tspan class="cls-19" x="62.45" y="0">z</tspan><tspan x="67.79" y="0">e</tspan></text><line class="cls-16" x1="73.83" y1="294.8" x2="73.83" y2="292.05"/><line class="cls-16" x1="242.04" y1="294.8" x2="242.04" y2="292.05"/><line class="cls-16" x1="410.24" y1="294.8" x2="410.24" y2="292.05"/><text class="cls-15" transform="translate(66.58 303.45)">10k</text><text class="cls-15" transform="translate(232.28 303.45)">100k</text><text class="cls-15" transform="translate(396.72 303.45)">1,000k</text><text class="cls-17" transform="translate(217.74 316.07)"><tspan class="cls-20">Y</tspan><tspan x="5.81" y="0">ears ago</tspan></text><rect class="cls-3" x="74.84" y="44.7" width="134.93" height="28.24"/><rect class="cls-3" x="85.8" y="50.18" width="17.28" height="17.28"/><line class="cls-21" x1="87.52" y1="58.82" x2="101.35" y2="58.82"/><line class="cls-21" x1="87.52" y1="58.82" x2="101.35" y2="58.82"/><rect class="cls-3" x="154.04" y="50.18" width="17.28" height="17.28"/><line class="cls-22" x1="155.76" y1="58.82" x2="169.59" y2="58.82"/><line class="cls-22" x1="155.76" y1="58.82" x2="169.59" y2="58.82"/><text class="cls-23" transform="translate(108.56 62.06)">SMCSMC</text><text class="cls-23" transform="translate(176.79 62.06)">MSMC</text><rect class="cls-3" x="220.73" y="44.7" width="188.5" height="28.24"/><rect class="cls-3" x="231.68" y="50.18" width="17.28" height="17.28"/><line class="cls-7" x1="233.42" y1="58.82" x2="247.23" y2="58.82"/><rect class="cls-9" x="232.4" y="50.89" width="15.86" height="15.86"/><line class="cls-7" x1="233.42" y1="58.82" x2="247.23" y2="58.82"/><rect class="cls-9" x="232.4" y="50.89" width="15.86" height="15.86"/><rect class="cls-3" x="311.95" y="50.18" width="17.28" height="17.28"/><line class="cls-8" x1="313.68" y1="58.82" x2="327.49" y2="58.82"/><rect class="cls-10" x="312.65" y="50.89" width="15.86" height="15.86"/><line class="cls-8" x1="313.68" y1="58.82" x2="327.49" y2="58.82"/><rect class="cls-10" x="312.65" y="50.89" width="15.86" height="15.86"/><text class="cls-23" transform="translate(254.45 62.06)">Han Chinese</text><text class="cls-23" transform="translate(334.7 62.06)">Nige<tspan class="cls-24" x="18.51" y="0">r</tspan><tspan x="21.63" y="0">ian </tspan><tspan class="cls-25" x="36.14" y="0">Y</tspan><tspan x="40.89" y="0">o</tspan><tspan class="cls-24" x="45.89" y="0">r</tspan><tspan x="49.02" y="0">uban</tspan></text><text class="cls-26" transform="translate(11.49 44.7)">a</text><g class="cls-27"><rect class="cls-3" x="432.54" y="39.23" width="426.52" height="284.74"/><rect class="cls-4" x="432.54" y="39.23" width="426.52" height="284.74"/></g><g class="cls-28"><rect class="cls-3" x="483.52" y="83.9" width="370.05" height="208.15"/><polyline class="cls-29" points="483.52 227.84 512.14 227.84 512.14 143.25 528.42 143.25 528.42 176.78 544.7 176.78 544.7 234.22 560.98 234.22 560.98 253.38 577.25 253.38 577.25 264.43 593.53 264.43 593.53 267.3 609.82 267.3 609.82 260.05 626.09 260.05 626.09 250.54 642.37 250.54 642.37 234.5 658.64 234.5 658.64 217.51 674.92 217.51 674.92 201.49 691.21 201.49 691.21 190.44 707.49 190.44 707.49 163.69 723.75 163.69 723.75 140.66 740.03 140.66 740.03 127.63 756.32 127.63 756.32 123.58 772.6 123.58 772.6 126.67 788.88 126.67 788.88 137.44 805.15 137.44 805.15 143.44 821.42 143.44 821.42 153.31"/><polyline class="cls-7" points="512.14 110.7 528.42 110.7 528.42 154.75 544.7 154.75 544.7 196.29 560.98 196.29 560.98 226.69 577.25 226.69 577.25 240.41 593.53 240.41 593.53 242.82 609.82 242.82 609.82 241.07 626.09 241.07 626.09 237.76 642.37 237.76 642.37 233.72 658.64 233.72 658.64 224.56 674.92 224.56 674.92 216.18 691.21 216.18 691.21 209.4 707.49 209.4 707.49 182.76 723.75 182.76 723.75 154.37 740.03 154.37 740.03 132.88 756.32 132.88 756.32 136.29 772.6 136.29 772.6 130.16 788.88 130.16 788.88 136.26 805.15 136.26 805.15 143.72 821.42 143.72 821.42 153.43"/><polyline class="cls-30" points="483.52 220.59 512.14 220.59 512.14 181.57 528.42 181.57 528.42 197.37 544.7 197.37 544.7 220.75 560.98 220.75 560.98 209.56 577.25 209.56 577.25 198.46 593.53 198.46 593.53 190.99 609.82 190.99 609.82 184.43 626.09 184.43 626.09 175.37 642.37 175.37 642.37 167.18 658.64 167.18 658.64 158.78 674.92 158.78 674.92 157.57 691.21 157.57 691.21 159.46 707.49 159.46 707.49 144.26 723.75 144.26 723.75 130.69 740.03 130.69 740.03 123.47 756.32 123.47 756.32 123.17 772.6 123.17 772.6 127.56 788.88 127.56 788.88 139.69 805.15 139.69 805.15 147.13 821.42 147.13 821.42 155.56"/><polyline class="cls-8" points="483.52 187.25 512.14 187.25 512.14 104.69 528.42 104.69 528.42 152.72 544.7 152.72 544.7 183.82 560.98 183.82 560.98 165.09 577.25 165.09 577.25 173.81 593.53 173.81 593.53 168.63 609.82 168.63 609.82 176.18 626.09 176.18 626.09 183.97 642.37 183.97 642.37 183.28 658.64 183.28 658.64 194.31 674.92 194.31 674.92 196.76 691.21 196.76 691.21 198.62 707.49 198.62 707.49 179.06 723.75 179.06 723.75 154.63 740.03 154.63 740.03 134.84"/><polygon class="cls-9" points="512.14 136.72 528.42 136.72 528.42 167.41 544.7 167.41 544.7 231.16 560.98 231.16 560.98 249.81 577.25 249.81 577.25 261.39 593.53 261.39 593.53 266.62 609.82 266.62 609.82 260.05 626.09 260.05 626.09 250.5 642.37 250.5 642.37 233.35 658.64 233.35 658.64 217.31 674.92 217.31 674.92 200.82 691.21 200.82 691.21 190 707.49 190 707.49 163.66 723.75 163.66 723.75 140.38 740.03 140.38 740.03 127.61 756.32 127.61 756.32 123.19 772.6 123.19 772.6 126.58 788.88 126.58 788.88 137.41 805.15 137.41 805.15 143.34 821.42 143.34 821.42 153.28 821.42 153.31 821.42 143.51 805.15 143.51 805.15 137.46 788.88 137.46 788.88 126.77 772.6 126.77 772.6 123.72 756.32 123.72 756.32 127.66 740.03 127.66 740.03 141.09 723.75 141.09 723.75 164.1 707.49 164.1 707.49 190.63 691.21 190.63 691.21 201.56 674.92 201.56 674.92 217.81 658.64 217.81 658.64 234.53 642.37 234.53 642.37 250.72 626.09 250.72 626.09 261.46 609.82 261.46 609.82 268.52 593.53 268.52 593.53 265.67 577.25 265.67 577.25 253.82 560.98 253.82 560.98 237.91 544.7 237.91 544.7 178.38 528.42 178.38 528.42 162.75 512.14 162.75 512.14 136.72"/><polygon class="cls-9" points="528.42 117.16 544.7 117.16 544.7 194.31 560.98 194.31 560.98 220.51 577.25 220.51 577.25 229.66 593.53 229.66 593.53 239.66 609.82 239.66 609.82 240.38 626.09 240.38 626.09 233.9 642.37 233.9 642.37 233.69 658.64 233.69 658.64 224.16 674.92 224.16 674.92 214.59 691.21 214.59 691.21 208.82 707.49 208.82 707.49 182.54 723.75 182.54 723.75 153.96 740.03 153.96 740.03 132.37 756.32 132.37 756.32 136.25 772.6 136.25 772.6 129.72 788.88 129.72 788.88 136.12 805.15 136.12 805.15 143.54 821.42 143.54 821.42 153.29 821.42 153.47 821.42 143.78 805.15 143.78 805.15 136.26 788.88 136.26 788.88 130.62 772.6 130.62 772.6 136.84 756.32 136.84 756.32 133.44 740.03 133.44 740.03 154.44 723.75 154.44 723.75 183.16 707.49 183.16 707.49 209.68 691.21 209.68 691.21 216.93 674.92 216.93 674.92 224.75 658.64 224.75 658.64 235.22 642.37 235.22 642.37 239.16 626.09 239.16 626.09 245.09 609.82 245.09 609.82 246.99 593.53 246.99 593.53 241.78 577.25 241.78 577.25 230.07 560.98 230.07 560.98 205.16 544.7 205.16 544.7 155.85 528.42 155.85 528.42 117.16"/><polygon class="cls-10" points="512.14 169.28 528.42 169.28 528.42 191.34 544.7 191.34 544.7 219.03 560.98 219.03 560.98 208.25 577.25 208.25 577.25 197.44 593.53 197.44 593.53 190.94 609.82 190.94 609.82 184.34 626.09 184.34 626.09 175.25 642.37 175.25 642.37 167.01 658.64 167.01 658.64 158.47 674.92 158.47 674.92 156.34 691.21 156.34 691.21 159.32 707.49 159.32 707.49 144.13 723.75 144.13 723.75 130.44 740.03 130.44 740.03 123.05 756.32 123.05 756.32 122.88 772.6 122.88 772.6 127.53 788.88 127.53 788.88 139.63 805.15 139.63 805.15 147 821.42 147 821.42 155.54 821.42 155.59 821.42 147.22 805.15 147.22 805.15 139.75 788.88 139.75 788.88 127.67 772.6 127.67 772.6 123.23 756.32 123.23 756.32 123.69 740.03 123.69 740.03 131.26 723.75 131.26 723.75 144.32 707.49 144.32 707.49 159.5 691.21 159.5 691.21 158.54 674.92 158.54 674.92 159.65 658.64 159.65 658.64 167.19 642.37 167.19 642.37 175.53 626.09 175.53 626.09 185.28 609.82 185.28 609.82 192.03 593.53 192.03 593.53 199.35 577.25 199.35 577.25 209.72 560.98 209.72 560.98 223.01 544.7 223.01 544.7 207.56 528.42 207.56 528.42 193.47 512.14 193.47 512.14 169.28"/><polygon class="cls-10" points="528.42 141.81 544.7 141.81 544.7 156.85 560.98 156.85 560.98 159.54 577.25 159.54 577.25 169.87 593.53 169.87 593.53 167.72 609.82 167.72 609.82 170.26 626.09 170.26 626.09 179.59 642.37 179.59 642.37 182.03 658.64 182.03 658.64 190.99 674.92 190.99 674.92 193.18 691.21 193.18 691.21 197.31 707.49 197.31 707.49 177.41 723.75 177.41 723.75 154 740.03 154 740.03 134.38 740.03 136.19 740.03 155.29 723.75 155.29 723.75 179.29 707.49 179.29 707.49 199.53 691.21 199.53 691.21 196.88 674.92 196.88 674.92 195.93 658.64 195.93 658.64 186.87 642.37 186.87 642.37 186.59 626.09 186.59 626.09 178.9 609.82 178.9 609.82 174.38 593.53 174.38 593.53 188.41 577.25 188.41 577.25 170.75 560.98 170.75 560.98 185.03 544.7 185.03 544.7 163.22 528.42 163.22 528.42 141.81"/><line class="cls-13" x1="332.14" y1="292.05" x2="332.14" y2="283.55"/><line class="cls-13" x1="382.77" y1="292.05" x2="382.77" y2="289.23"/><line class="cls-13" x1="412.39" y1="292.05" x2="412.39" y2="289.23"/><line class="cls-13" x1="433.42" y1="292.05" x2="433.42" y2="289.23"/><line class="cls-13" x1="449.71" y1="292.05" x2="449.71" y2="286.39"/><line class="cls-13" x1="463.04" y1="292.05" x2="463.04" y2="289.23"/><line class="cls-13" x1="474.3" y1="292.05" x2="474.3" y2="289.23"/><line class="cls-13" x1="484.05" y1="292.05" x2="484.05" y2="289.23"/><line class="cls-13" x1="492.64" y1="292.05" x2="492.64" y2="289.23"/><line class="cls-13" x1="500.34" y1="292.05" x2="500.34" y2="283.55"/><line class="cls-13" x1="550.99" y1="292.05" x2="550.99" y2="289.23"/><line class="cls-13" x1="580.61" y1="292.05" x2="580.61" y2="289.23"/><line class="cls-13" x1="601.62" y1="292.05" x2="601.62" y2="289.23"/><line class="cls-13" x1="617.92" y1="292.05" x2="617.92" y2="286.39"/><line class="cls-13" x1="631.24" y1="292.05" x2="631.24" y2="289.23"/><line class="cls-13" x1="642.5" y1="292.05" x2="642.5" y2="289.23"/><line class="cls-13" x1="652.25" y1="292.05" x2="652.25" y2="289.23"/><line class="cls-13" x1="660.86" y1="292.05" x2="660.86" y2="289.23"/><line class="cls-13" x1="668.56" y1="292.05" x2="668.56" y2="283.55"/><line class="cls-13" x1="719.19" y1="292.05" x2="719.19" y2="289.23"/><line class="cls-13" x1="748.81" y1="292.05" x2="748.81" y2="289.23"/><line class="cls-13" x1="769.82" y1="292.05" x2="769.82" y2="289.23"/><line class="cls-13" x1="786.13" y1="292.05" x2="786.13" y2="286.39"/><line class="cls-13" x1="799.44" y1="292.05" x2="799.44" y2="289.23"/><line class="cls-13" x1="810.7" y1="292.05" x2="810.7" y2="289.23"/><line class="cls-13" x1="820.45" y1="292.05" x2="820.45" y2="289.23"/><line class="cls-13" x1="829.06" y1="292.05" x2="829.06" y2="289.23"/><line class="cls-13" x1="836.75" y1="292.05" x2="836.75" y2="283.55"/><line class="cls-13" x1="483.52" y1="323.34" x2="492.02" y2="323.34"/><line class="cls-13" x1="483.52" y1="282.59" x2="486.36" y2="282.59"/><line class="cls-13" x1="483.52" y1="258.76" x2="486.36" y2="258.76"/><line class="cls-13" x1="483.52" y1="241.84" x2="486.36" y2="241.84"/><line class="cls-13" x1="483.52" y1="228.73" x2="489.2" y2="228.73"/><line class="cls-13" x1="483.52" y1="218.02" x2="486.36" y2="218.02"/><line class="cls-13" x1="483.52" y1="208.95" x2="486.36" y2="208.95"/><line class="cls-13" x1="483.52" y1="201.09" x2="486.36" y2="201.09"/><line class="cls-13" x1="483.52" y1="194.18" x2="486.36" y2="194.18"/><line class="cls-13" x1="483.52" y1="187.99" x2="492.02" y2="187.99"/><line class="cls-13" x1="483.52" y1="147.24" x2="486.36" y2="147.24"/><line class="cls-13" x1="483.52" y1="123.39" x2="486.36" y2="123.39"/><line class="cls-13" x1="483.52" y1="106.49" x2="486.36" y2="106.49"/><line class="cls-13" x1="483.52" y1="93.36" x2="489.2" y2="93.36"/><line class="cls-13" x1="483.52" y1="82.64" x2="486.36" y2="82.64"/><line class="cls-13" x1="483.52" y1="73.58" x2="486.36" y2="73.58"/><line class="cls-13" x1="483.52" y1="65.74" x2="486.36" y2="65.74"/><line class="cls-13" x1="483.52" y1="58.82" x2="486.36" y2="58.82"/><line class="cls-13" x1="483.52" y1="52.62" x2="492.02" y2="52.62"/><rect class="cls-14" x="483.52" y="83.9" width="370.05" height="208.15"/></g><text class="cls-15" transform="translate(456.08 261.99)">3,000</text><text class="cls-15" transform="translate(451.08 191.22)">10,000</text><text class="cls-15" transform="translate(451.08 126.62)">30,000</text><line class="cls-16" x1="480.79" y1="258.76" x2="483.52" y2="258.76"/><line class="cls-16" x1="480.79" y1="187.99" x2="483.52" y2="187.99"/><line class="cls-16" x1="480.79" y1="123.39" x2="483.52" y2="123.39"/><line class="cls-16" x1="500.34" y1="294.8" x2="500.34" y2="292.05"/><line class="cls-16" x1="668.56" y1="294.8" x2="668.56" y2="292.05"/><line class="cls-16" x1="836.75" y1="294.8" x2="836.75" y2="292.05"/><text class="cls-15" transform="translate(493.09 303.45)">10k</text><text class="cls-15" transform="translate(658.79 303.45)">100k</text><text class="cls-15" transform="translate(823.24 303.45)">1,000k</text><text class="cls-31" transform="translate(644.25 316.07)">Y<tspan class="cls-32" x="5.81" y="0">ears ago</tspan></text><rect class="cls-3" x="506.59" y="44.7" width="124.46" height="28.24"/><line class="cls-33" x1="519.29" y1="58.82" x2="533.11" y2="58.82"/><line class="cls-21" x1="585.54" y1="58.82" x2="599.36" y2="58.82"/><text class="cls-23" transform="translate(540.32 62.06)">Individual</text><text class="cls-23" transform="translate(606.57 62.06)">Joint</text><rect class="cls-3" x="642.01" y="44.7" width="188.5" height="28.24"/><line class="cls-7" x1="654.69" y1="58.82" x2="668.52" y2="58.82"/><rect class="cls-9" x="653.69" y="50.89" width="15.86" height="15.86"/><line class="cls-8" x1="734.95" y1="58.82" x2="748.79" y2="58.82"/><rect class="cls-10" x="733.94" y="50.89" width="15.86" height="15.86"/><text class="cls-23" transform="translate(675.74 62.06)">Han Chinese</text><text class="cls-23" transform="translate(755.99 62.06)">Nige<tspan class="cls-24" x="18.51" y="0">r</tspan><tspan class="cls-34" x="21.63" y="0">ian </tspan><tspan class="cls-25" x="36.14" y="0">Y</tspan><tspan x="40.89" y="0">o</tspan><tspan class="cls-24" x="45.89" y="0">r</tspan><tspan class="cls-34" x="49.01" y="0">uban</tspan></text><text class="cls-26" transform="translate(438.02 44.7)">b</text><g class="cls-35"><rect class="cls-3" x="6.02" y="361.73" width="284.35" height="204.77"/><rect class="cls-4" x="6.02" y="361.73" width="284.35" height="204.77"/></g><g class="cls-36"><rect class="cls-3" x="57.01" y="367.22" width="227.88" height="128.18"/><polyline class="cls-21" points="57.01 413.44 71.86 413.44 83.81 413.44 95.77 413.44 107.72 413.44 119.67 413.44 123.72 413.44 131.63 413.44 143.57 413.44 151.56 413.44 155.53 413.44 167.47 413.44 179.43 413.44 191.38 413.44 191.38 407.19 203.34 407.19 203.34 394.61 215.28 394.61 215.28 387.12 227.24 387.12 227.24 385.85 239.19 385.85 239.19 390.4 251.13 390.4 251.13 398.88 263.1 398.88 263.1 408.17"/><polyline class="cls-21" points="71.86 411.24 83.81 411.24 83.81 428.56 95.77 428.56 95.77 443.46 107.72 443.46 107.72 455.06 119.67 455.06 119.67 462.29 123.72 462.29 123.72 463.6 131.63 463.6 131.63 464.31 143.57 464.31 143.57 460.69 151.56 460.69 151.56 455.2 155.53 455.2 155.53 451.67 167.47 451.67 167.47 438.33 179.43 438.33 179.43 422.67 191.38 422.67 191.38 407.19 203.34 407.19 203.34 394.61 215.28 394.61 215.28 387.12 227.24 387.12 227.24 385.85 239.19 385.85 239.19 390.4 251.13 390.4 251.13 398.88 263.1 398.88 263.1 408.17"/><line class="cls-11" x1="151.56" y1="495.4" x2="151.56" y2="367.21"/><line class="cls-11" x1="144.06" y1="495.4" x2="144.06" y2="367.21"/><polyline class="cls-7" points="74.63 385.74 84.66 385.74 84.66 428.77 94.67 428.77 94.67 444.48 104.69 444.48 104.69 460.06 114.72 460.06 114.72 468.69 124.75 468.69 124.75 464.71 134.78 464.71 134.78 457.49 144.79 457.49 144.79 458.82 154.82 458.82 154.82 453.75 164.84 453.75 164.84 442.88 174.87 442.88 174.87 438.21 184.9 438.21 184.9 433.27 194.91 433.27 194.91 415.25 204.94 415.25 204.94 402.06 214.97 402.06 214.97 385.27 224.99 385.27 224.99 398.42 235.01 398.42 235.01 393.06 245.03 393.06 245.03 394.07 255.06 394.07 255.06 399.52 265.08 399.52 265.08 408.02"/><line class="cls-8" x1="57.01" y1="396.79" x2="74.62" y2="396.79"/><polyline class="cls-8" points="84.66 413.51 94.67 413.51 94.67 409.58 104.69 409.58 104.69 417.75 114.72 417.75 114.72 420.4 124.75 420.4 124.75 415.01 134.78 415.01 134.78 413.11 144.79 413.11 144.79 417.86 154.82 417.86 154.82 413.94 164.84 413.94 164.84 416.96 174.87 416.96 174.87 412.9 184.9 412.9 184.9 422.23 194.91 422.23 194.91 414.56 204.94 414.56 204.94 408.75 214.97 408.75 214.97 402.42"/><polyline class="cls-30" points="84.66 407.86 94.67 407.86 94.67 402.48 104.69 402.48 104.69 418.13 114.72 418.13 114.72 409.19 124.75 409.19 124.75 408.18 134.78 408.18 134.78 406.29 144.79 406.29 144.79 405.43 154.82 405.43 154.82 400.92 164.84 400.92 164.84 399.63 174.87 399.63 174.87 399.75 184.9 399.75 184.9 403.17 194.91 403.17 194.91 395.8 204.94 395.8 204.94 388.33 214.97 388.33 214.97 384.62 224.99 384.62 224.99 382.73 235.01 382.73 235.01 387.14 245.03 387.14 245.03 394.63 255.06 394.63 255.06 400.82 265.08 400.82 265.08 407.64"/><line class="cls-13" x1="13.21" y1="495.4" x2="13.21" y2="492.55"/><line class="cls-13" x1="26.15" y1="495.4" x2="26.15" y2="492.55"/><line class="cls-13" x1="36.19" y1="495.4" x2="36.19" y2="489.73"/><line class="cls-13" x1="44.38" y1="495.4" x2="44.38" y2="492.55"/><line class="cls-13" x1="51.31" y1="495.4" x2="51.31" y2="492.55"/><line class="cls-13" x1="57.33" y1="495.4" x2="57.33" y2="492.55"/><line class="cls-13" x1="62.63" y1="495.4" x2="62.63" y2="492.55"/><line class="cls-13" x1="67.37" y1="495.4" x2="67.37" y2="486.88"/><line class="cls-13" x1="98.55" y1="495.4" x2="98.55" y2="492.55"/><line class="cls-13" x1="116.79" y1="495.4" x2="116.79" y2="492.55"/><line class="cls-13" x1="129.73" y1="495.4" x2="129.73" y2="492.55"/><line class="cls-13" x1="139.76" y1="495.4" x2="139.76" y2="489.73"/><line class="cls-13" x1="147.96" y1="495.4" x2="147.96" y2="492.55"/><line class="cls-13" x1="154.9" y1="495.4" x2="154.9" y2="492.55"/><line class="cls-13" x1="160.9" y1="495.4" x2="160.9" y2="492.55"/><line class="cls-13" x1="166.2" y1="495.4" x2="166.2" y2="492.55"/><line class="cls-13" x1="170.95" y1="495.4" x2="170.95" y2="486.88"/><line class="cls-13" x1="202.12" y1="495.4" x2="202.12" y2="492.55"/><line class="cls-13" x1="220.37" y1="495.4" x2="220.37" y2="492.55"/><line class="cls-13" x1="233.31" y1="495.4" x2="233.31" y2="492.55"/><line class="cls-13" x1="243.34" y1="495.4" x2="243.34" y2="489.73"/><line class="cls-13" x1="251.54" y1="495.4" x2="251.54" y2="492.55"/><line class="cls-13" x1="258.48" y1="495.4" x2="258.48" y2="492.55"/><line class="cls-13" x1="264.49" y1="495.4" x2="264.49" y2="492.55"/><line class="cls-13" x1="269.79" y1="495.4" x2="269.79" y2="492.55"/><line class="cls-13" x1="274.52" y1="495.4" x2="274.52" y2="486.88"/><line class="cls-13" x1="305.71" y1="495.4" x2="305.71" y2="492.55"/><line class="cls-13" x1="323.95" y1="495.4" x2="323.95" y2="492.55"/><line class="cls-13" x1="336.89" y1="495.4" x2="336.89" y2="492.55"/><line class="cls-13" x1="346.93" y1="495.4" x2="346.93" y2="489.73"/><line class="cls-13" x1="355.12" y1="495.4" x2="355.12" y2="492.55"/><line class="cls-13" x1="362.05" y1="495.4" x2="362.05" y2="492.55"/><line class="cls-13" x1="368.06" y1="495.4" x2="368.06" y2="492.55"/><line class="cls-13" x1="373.36" y1="495.4" x2="373.36" y2="492.55"/><line class="cls-13" x1="378.11" y1="495.4" x2="378.11" y2="486.88"/><line class="cls-13" x1="57.01" y1="514.65" x2="65.51" y2="514.65"/><line class="cls-13" x1="57.01" y1="489.56" x2="59.83" y2="489.56"/><line class="cls-13" x1="57.01" y1="474.88" x2="59.83" y2="474.88"/><line class="cls-13" x1="57.01" y1="464.48" x2="59.83" y2="464.48"/><line class="cls-13" x1="57.01" y1="456.4" x2="62.67" y2="456.4"/><line class="cls-13" x1="57.01" y1="449.8" x2="59.83" y2="449.8"/><line class="cls-13" x1="57.01" y1="444.21" x2="59.83" y2="444.21"/><line class="cls-13" x1="57.01" y1="439.39" x2="59.83" y2="439.39"/><line class="cls-13" x1="57.01" y1="435.12" x2="59.83" y2="435.12"/><line class="cls-13" x1="57.01" y1="431.31" x2="65.51" y2="431.31"/><line class="cls-13" x1="57.01" y1="406.2" x2="59.83" y2="406.2"/><line class="cls-13" x1="57.01" y1="391.54" x2="59.83" y2="391.54"/><line class="cls-13" x1="57.01" y1="381.12" x2="59.83" y2="381.12"/><line class="cls-13" x1="57.01" y1="373.04" x2="62.67" y2="373.04"/><line class="cls-13" x1="57.01" y1="366.43" x2="59.83" y2="366.43"/><line class="cls-13" x1="57.01" y1="360.86" x2="59.83" y2="360.86"/><line class="cls-13" x1="57.01" y1="356.03" x2="59.83" y2="356.03"/><line class="cls-13" x1="57.01" y1="351.76" x2="59.83" y2="351.76"/><line class="cls-13" x1="57.01" y1="347.95" x2="65.51" y2="347.95"/><rect class="cls-14" x="57.01" y="367.22" width="227.88" height="128.18"/></g><text class="cls-15" transform="translate(29.56 478.12)">3,000</text><text class="cls-15" transform="translate(24.56 434.54)">10,000</text><text class="cls-15" transform="translate(24.56 394.77)">30,000</text><line class="cls-16" x1="54.26" y1="474.88" x2="57.01" y2="474.88"/><line class="cls-16" x1="54.26" y1="431.31" x2="57.01" y2="431.31"/><line class="cls-16" x1="54.26" y1="391.54" x2="57.01" y2="391.54"/><text class="cls-17" transform="translate(19.39 468.25) rotate(-90)"><tspan class="cls-37">P</tspan><tspan x="6.79" y="0">opulation si</tspan><tspan class="cls-38" x="62.44" y="0">z</tspan><tspan x="67.78" y="0">e</tspan></text><line class="cls-16" x1="67.37" y1="498.13" x2="67.37" y2="495.4"/><line class="cls-16" x1="170.95" y1="498.13" x2="170.95" y2="495.4"/><line class="cls-16" x1="274.52" y1="498.13" x2="274.52" y2="495.4"/><text class="cls-15" transform="translate(60.1 506.79)">10k</text><text class="cls-15" transform="translate(161.18 506.79)">100k</text><text class="cls-15" transform="translate(261.01 506.79)">1,000k</text><text class="cls-17" transform="translate(146.64 519.41)"><tspan class="cls-20">Y</tspan><tspan x="5.81" y="0">ears ago</tspan></text><text class="cls-26" transform="translate(11.49 367.21)">c</text><g class="cls-39"><rect class="cls-3" x="290.36" y="361.73" width="284.35" height="204.77"/><rect class="cls-4" x="290.36" y="361.73" width="284.35" height="204.77"/></g><g class="cls-40"><rect class="cls-3" x="341.36" y="367.22" width="227.88" height="128.18"/><polyline class="cls-21" points="341.36 413.44 356.2 413.44 368.17 413.44 380.12 413.44 392.06 413.44 404.01 413.44 408.06 413.44 415.96 413.44 427.92 413.44 435.92 413.44 439.88 413.44 451.82 413.44 463.77 413.44 475.73 413.44 475.73 407.19 487.68 407.19 487.68 394.61 499.63 394.61 499.63 387.12 511.58 387.12 511.58 385.85 523.53 385.85 523.53 390.4 535.49 390.4 535.49 398.88 547.43 398.88 547.43 408.17"/><polyline class="cls-21" points="356.2 411.24 368.17 411.24 368.17 428.56 380.12 428.56 380.12 443.46 392.06 443.46 392.06 455.06 404.01 455.06 404.01 462.29 408.06 462.29 408.06 463.6 415.96 463.6 415.96 464.31 427.92 464.31 427.92 460.69 435.92 460.69 435.92 455.2 439.88 455.2 439.88 451.67 451.82 451.67 451.82 438.33 463.77 438.33 463.77 422.67 475.73 422.67 475.73 407.19 487.68 407.19 487.68 394.61 499.63 394.61 499.63 387.12 511.58 387.12 511.58 385.85 523.53 385.85 523.53 390.4 535.49 390.4 535.49 398.88 547.43 398.88 547.43 408.17"/><line class="cls-11" x1="435.92" y1="495.4" x2="435.92" y2="367.21"/><line class="cls-11" x1="428.39" y1="495.4" x2="428.39" y2="367.21"/><polyline class="cls-7" points="358.98 424.04 369 424.04 369 439.44 379.02 439.44 379.02 449.83 389.05 449.83 389.05 457 399.07 457 399.07 473.96 409.1 473.96 409.1 462.39 419.12 462.39 419.12 447.08 429.14 447.08 429.14 442.5 439.17 442.5 439.17 433.94 449.19 433.94 449.19 427.27 459.21 427.27 459.21 419.69 469.24 419.69 469.24 418.21 479.26 418.21 479.26 412.08 489.29 412.08 489.29 396.82 499.31 396.82 499.31 385.74 509.33 385.74 509.33 401.35 519.37 401.35 519.37 391.75 529.38 391.75 529.38 394.67 539.4 394.67 539.4 400.19 549.43 400.19 549.43 408.52"/><polyline class="cls-8" points="341.36 447.31 358.98 447.31 358.98 398.68 369 398.68 369 416.29 379.02 416.29 379.02 417.82 389.05 417.82 389.05 419.77 399.07 419.77 399.07 413.83 409.1 413.83 409.1 423.33 419.12 423.33 419.12 421.56 429.14 421.56 429.14 413.74 439.17 413.74 439.17 417.25 449.19 417.25 449.19 420.54 459.21 420.54 459.21 420.31 469.24 420.31 469.24 421.69 479.26 421.69 479.26 417.36 489.29 417.36 489.29 404.18 499.31 404.18 499.31 397.81"/><polyline class="cls-30" points="358.98 402.05 369 402.05 369 383.98 379.02 383.98 379.02 418.19 389.05 418.19 389.05 411.71 399.07 411.71 399.07 404.06 409.1 404.06 409.1 412.38 419.12 412.38 419.12 404.99 429.14 404.99 429.14 403.58 439.17 403.58 439.17 399.73 449.19 399.73 449.19 398.01 459.21 398.01 459.21 399.45 469.24 399.45 469.24 404.2 479.26 404.2 479.26 395.83 489.29 395.83 489.29 389.75 499.31 389.75 499.31 384.76 509.33 384.76 509.33 383.43 519.37 383.43 519.37 387.35 529.38 387.35 529.38 394.96 539.4 394.96 539.4 401.23 549.43 401.23 549.43 408.02"/><line class="cls-13" x1="248.12" y1="495.4" x2="248.12" y2="486.88"/><line class="cls-13" x1="279.31" y1="495.4" x2="279.31" y2="492.55"/><line class="cls-13" x1="297.55" y1="495.4" x2="297.55" y2="492.55"/><line class="cls-13" x1="310.49" y1="495.4" x2="310.49" y2="492.55"/><line class="cls-13" x1="320.52" y1="495.4" x2="320.52" y2="489.73"/><line class="cls-13" x1="328.74" y1="495.4" x2="328.74" y2="492.55"/><line class="cls-13" x1="335.67" y1="495.4" x2="335.67" y2="492.55"/><line class="cls-13" x1="341.68" y1="495.4" x2="341.68" y2="492.55"/><line class="cls-13" x1="346.98" y1="495.4" x2="346.98" y2="492.55"/><line class="cls-13" x1="351.71" y1="495.4" x2="351.71" y2="486.88"/><line class="cls-13" x1="382.89" y1="495.4" x2="382.89" y2="492.55"/><line class="cls-13" x1="401.14" y1="495.4" x2="401.14" y2="492.55"/><line class="cls-13" x1="414.08" y1="495.4" x2="414.08" y2="492.55"/><line class="cls-13" x1="424.11" y1="495.4" x2="424.11" y2="489.73"/><line class="cls-13" x1="432.31" y1="495.4" x2="432.31" y2="492.55"/><line class="cls-13" x1="439.24" y1="495.4" x2="439.24" y2="492.55"/><line class="cls-13" x1="445.26" y1="495.4" x2="445.26" y2="492.55"/><line class="cls-13" x1="450.55" y1="495.4" x2="450.55" y2="492.55"/><line class="cls-13" x1="455.3" y1="495.4" x2="455.3" y2="486.88"/><line class="cls-13" x1="486.48" y1="495.4" x2="486.48" y2="492.55"/><line class="cls-13" x1="504.71" y1="495.4" x2="504.71" y2="492.55"/><line class="cls-13" x1="517.65" y1="495.4" x2="517.65" y2="492.55"/><line class="cls-13" x1="527.69" y1="495.4" x2="527.69" y2="489.73"/><line class="cls-13" x1="535.89" y1="495.4" x2="535.89" y2="492.55"/><line class="cls-13" x1="542.82" y1="495.4" x2="542.82" y2="492.55"/><line class="cls-13" x1="548.83" y1="495.4" x2="548.83" y2="492.55"/><line class="cls-13" x1="554.13" y1="495.4" x2="554.13" y2="492.55"/><line class="cls-13" x1="558.88" y1="495.4" x2="558.88" y2="486.88"/><line class="cls-13" x1="590.06" y1="495.4" x2="590.06" y2="492.55"/><line class="cls-13" x1="608.3" y1="495.4" x2="608.3" y2="492.55"/><line class="cls-13" x1="621.24" y1="495.4" x2="621.24" y2="492.55"/><line class="cls-13" x1="631.27" y1="495.4" x2="631.27" y2="489.73"/><line class="cls-13" x1="639.48" y1="495.4" x2="639.48" y2="492.55"/><line class="cls-13" x1="646.4" y1="495.4" x2="646.4" y2="492.55"/><line class="cls-13" x1="652.42" y1="495.4" x2="652.42" y2="492.55"/><line class="cls-13" x1="657.71" y1="495.4" x2="657.71" y2="492.55"/><line class="cls-13" x1="662.45" y1="495.4" x2="662.45" y2="486.88"/><line class="cls-13" x1="341.36" y1="514.65" x2="349.86" y2="514.65"/><line class="cls-13" x1="341.36" y1="489.56" x2="344.18" y2="489.56"/><line class="cls-13" x1="341.36" y1="474.88" x2="344.18" y2="474.88"/><line class="cls-13" x1="341.36" y1="464.48" x2="344.18" y2="464.48"/><line class="cls-13" x1="341.36" y1="456.4" x2="347.02" y2="456.4"/><line class="cls-13" x1="341.36" y1="449.8" x2="344.18" y2="449.8"/><line class="cls-13" x1="341.36" y1="444.21" x2="344.18" y2="444.21"/><line class="cls-13" x1="341.36" y1="439.39" x2="344.18" y2="439.39"/><line class="cls-13" x1="341.36" y1="435.12" x2="344.18" y2="435.12"/><line class="cls-13" x1="341.36" y1="431.31" x2="349.86" y2="431.31"/><line class="cls-13" x1="341.36" y1="406.2" x2="344.18" y2="406.2"/><line class="cls-13" x1="341.36" y1="391.54" x2="344.18" y2="391.54"/><line class="cls-13" x1="341.36" y1="381.12" x2="344.18" y2="381.12"/><line class="cls-13" x1="341.36" y1="373.04" x2="347.02" y2="373.04"/><line class="cls-13" x1="341.36" y1="366.43" x2="344.18" y2="366.43"/><line class="cls-13" x1="341.36" y1="360.86" x2="344.18" y2="360.86"/><line class="cls-13" x1="341.36" y1="356.03" x2="344.18" y2="356.03"/><line class="cls-13" x1="341.36" y1="351.76" x2="344.18" y2="351.76"/><line class="cls-13" x1="341.36" y1="347.95" x2="349.86" y2="347.95"/><rect class="cls-14" x="341.36" y="367.22" width="227.88" height="128.18"/></g><text class="cls-15" transform="translate(313.91 478.12)">3,000</text><text class="cls-15" transform="translate(308.89 434.54)">10,000</text><text class="cls-15" transform="translate(308.89 394.77)">30,000</text><line class="cls-16" x1="338.61" y1="474.88" x2="341.36" y2="474.88"/><line class="cls-16" x1="338.61" y1="431.31" x2="341.36" y2="431.31"/><line class="cls-16" x1="338.61" y1="391.54" x2="341.36" y2="391.54"/><line class="cls-16" x1="351.71" y1="498.13" x2="351.71" y2="495.4"/><line class="cls-16" x1="455.3" y1="498.13" x2="455.3" y2="495.4"/><line class="cls-16" x1="558.88" y1="498.13" x2="558.88" y2="495.4"/><text class="cls-15" transform="translate(344.45 506.79)">10k</text><text class="cls-15" transform="translate(445.54 506.79)">100k</text><text class="cls-15" transform="translate(545.37 506.79)">1,000k</text><text class="cls-41" transform="translate(430.99 519.41)">Y<tspan class="cls-32" x="5.8" y="0">ears ago</tspan></text><text class="cls-26" transform="translate(295.85 367.21)">d</text><g class="cls-42"><rect class="cls-3" x="574.7" y="361.73" width="284.35" height="204.77"/><rect class="cls-4" x="574.7" y="361.73" width="284.35" height="204.77"/></g><g class="cls-43"><rect class="cls-3" x="625.69" y="367.22" width="227.88" height="128.18"/><polyline class="cls-21" points="625.7 413.44 640.55 413.44 652.5 413.44 664.46 413.44 676.41 413.44 688.37 413.44 692.41 413.44 700.32 413.44 712.26 413.44 720.25 413.44 724.22 413.44 736.17 413.44 748.13 413.44 760.08 413.44 760.08 407.19 772.02 407.19 772.02 394.61 783.98 394.61 783.98 387.12 795.92 387.12 795.92 385.85 807.88 385.85 807.88 390.4 819.84 390.4 819.84 398.88 831.78 398.88 831.78 408.17"/><polyline class="cls-21" points="640.55 411.24 652.5 411.24 652.5 428.56 664.46 428.56 664.46 443.46 676.41 443.46 676.41 455.06 688.37 455.06 688.37 462.29 692.41 462.29 692.41 463.6 700.32 463.6 700.32 464.31 712.26 464.31 712.26 460.69 720.25 460.69 720.25 455.2 724.22 455.2 724.22 451.67 736.17 451.67 736.17 438.33 748.13 438.33 748.13 422.67 760.08 422.67 760.08 407.19 772.02 407.19 772.02 394.61 783.98 394.61 783.98 387.12 795.92 387.12 795.92 385.85 807.88 385.85 807.88 390.4 819.84 390.4 819.84 398.88 831.78 398.88 831.78 408.17"/><line class="cls-11" x1="720.25" y1="495.4" x2="720.25" y2="367.21"/><line class="cls-11" x1="712.75" y1="495.4" x2="712.75" y2="367.21"/><polyline class="cls-7" points="643.33 380.76 653.35 380.76 653.35 438.06 663.37 438.06 663.37 452.39 673.39 452.39 673.39 463.92 683.41 463.92 683.41 463.13 693.45 463.13 693.45 463.64 703.47 463.64 703.47 451.36 713.49 451.36 713.49 437.26 723.51 437.26 723.51 427.77 733.53 427.77 733.53 414.38 743.57 414.38 743.57 409.81 753.59 409.81 753.59 415.74 763.62 415.74 763.62 408.56 773.63 408.56 773.63 397.51 783.65 397.51 783.65 383.43 793.68 383.43 793.68 400.9 803.71 400.9 803.71 391.73 813.74 391.73 813.74 394.24 823.75 394.24 823.75 400.65 833.77 400.65 833.77 407.67"/><polyline class="cls-8" points="653.35 427.05 663.37 427.05 663.37 422.44 673.39 422.44 673.39 410.25 683.41 410.25 683.41 415.21 693.45 415.21 693.45 420.8 703.47 420.8 703.47 414.31 713.49 414.31 713.49 421.19 723.51 421.19 723.51 419.31 733.53 419.31 733.53 422.96 743.57 422.96 743.57 421.85 753.59 421.85 753.59 425.18 763.62 425.18 763.62 418.63 773.63 418.63 773.63 407.96 783.65 407.96 783.65 399.89"/><polyline class="cls-30" points="625.7 375.8 643.33 375.8 643.33 395.82 653.35 395.82 653.35 379.56 663.37 379.56 663.37 408.82 673.39 408.82 673.39 410.38 683.41 410.38 683.41 408.36 693.45 408.36 693.45 409.95 703.47 409.95 703.47 410.27 713.49 410.27 713.49 414.92 723.51 414.92 723.51 413.64 733.53 413.64 733.53 413.52 743.57 413.52 743.57 414.65 753.59 414.65 753.59 413.75 763.62 413.75 763.62 405.29 773.63 405.29 773.63 394.89 783.65 394.89 783.65 387.6 793.68 387.6 793.68 385.61 803.71 385.61 803.71 387.5 813.74 387.5 813.74 394.8 823.75 394.8 823.75 400.89 833.77 400.89 833.77 407.36"/><line class="cls-13" x1="532.48" y1="495.4" x2="532.48" y2="486.88"/><line class="cls-13" x1="563.65" y1="495.4" x2="563.65" y2="492.55"/><line class="cls-13" x1="581.89" y1="495.4" x2="581.89" y2="492.55"/><line class="cls-13" x1="594.83" y1="495.4" x2="594.83" y2="492.55"/><line class="cls-13" x1="604.88" y1="495.4" x2="604.88" y2="489.73"/><line class="cls-13" x1="613.07" y1="495.4" x2="613.07" y2="492.55"/><line class="cls-13" x1="620.01" y1="495.4" x2="620.01" y2="492.55"/><line class="cls-13" x1="626.01" y1="495.4" x2="626.01" y2="492.55"/><line class="cls-13" x1="631.32" y1="495.4" x2="631.32" y2="492.55"/><line class="cls-13" x1="636.06" y1="495.4" x2="636.06" y2="486.88"/><line class="cls-13" x1="667.24" y1="495.4" x2="667.24" y2="492.55"/><line class="cls-13" x1="685.48" y1="495.4" x2="685.48" y2="492.55"/><line class="cls-13" x1="698.42" y1="495.4" x2="698.42" y2="492.55"/><line class="cls-13" x1="708.45" y1="495.4" x2="708.45" y2="489.73"/><line class="cls-13" x1="716.65" y1="495.4" x2="716.65" y2="492.55"/><line class="cls-13" x1="723.59" y1="495.4" x2="723.59" y2="492.55"/><line class="cls-13" x1="729.59" y1="495.4" x2="729.59" y2="492.55"/><line class="cls-13" x1="734.89" y1="495.4" x2="734.89" y2="492.55"/><line class="cls-13" x1="739.63" y1="495.4" x2="739.63" y2="486.88"/><line class="cls-13" x1="770.82" y1="495.4" x2="770.82" y2="492.55"/><line class="cls-13" x1="789.06" y1="495.4" x2="789.06" y2="492.55"/><line class="cls-13" x1="802" y1="495.4" x2="802" y2="492.55"/><line class="cls-13" x1="812.04" y1="495.4" x2="812.04" y2="489.73"/><line class="cls-13" x1="820.24" y1="495.4" x2="820.24" y2="492.55"/><line class="cls-13" x1="827.18" y1="495.4" x2="827.18" y2="492.55"/><line class="cls-13" x1="833.19" y1="495.4" x2="833.19" y2="492.55"/><line class="cls-13" x1="838.48" y1="495.4" x2="838.48" y2="492.55"/><line class="cls-13" x1="843.21" y1="495.4" x2="843.21" y2="486.88"/><line class="cls-13" x1="625.69" y1="514.65" x2="634.2" y2="514.65"/><line class="cls-13" x1="625.69" y1="489.56" x2="628.54" y2="489.56"/><line class="cls-13" x1="625.69" y1="474.88" x2="628.54" y2="474.88"/><line class="cls-13" x1="625.69" y1="464.48" x2="628.54" y2="464.48"/><line class="cls-13" x1="625.69" y1="456.4" x2="631.37" y2="456.4"/><line class="cls-13" x1="625.69" y1="449.8" x2="628.54" y2="449.8"/><line class="cls-13" x1="625.69" y1="444.21" x2="628.54" y2="444.21"/><line class="cls-13" x1="625.69" y1="439.39" x2="628.54" y2="439.39"/><line class="cls-13" x1="625.69" y1="435.12" x2="628.54" y2="435.12"/><line class="cls-13" x1="625.69" y1="431.31" x2="634.2" y2="431.31"/><line class="cls-13" x1="625.69" y1="406.2" x2="628.54" y2="406.2"/><line class="cls-13" x1="625.69" y1="391.54" x2="628.54" y2="391.54"/><line class="cls-13" x1="625.69" y1="381.12" x2="628.54" y2="381.12"/><line class="cls-13" x1="625.69" y1="373.04" x2="631.37" y2="373.04"/><line class="cls-13" x1="625.69" y1="366.43" x2="628.54" y2="366.43"/><line class="cls-13" x1="625.69" y1="360.86" x2="628.54" y2="360.86"/><line class="cls-13" x1="625.69" y1="356.03" x2="628.54" y2="356.03"/><line class="cls-13" x1="625.69" y1="351.76" x2="628.54" y2="351.76"/><line class="cls-13" x1="625.69" y1="347.95" x2="634.2" y2="347.95"/><rect class="cls-14" x="625.69" y="367.22" width="227.88" height="128.18"/></g><text class="cls-15" transform="translate(598.24 478.12)">3,000</text><text class="cls-15" transform="translate(593.24 434.54)">10,000</text><text class="cls-15" transform="translate(593.24 394.77)">30,000</text><line class="cls-16" x1="622.95" y1="474.88" x2="625.69" y2="474.88"/><line class="cls-16" x1="622.95" y1="431.31" x2="625.69" y2="431.31"/><line class="cls-16" x1="622.95" y1="391.54" x2="625.69" y2="391.54"/><line class="cls-16" x1="636.06" y1="498.13" x2="636.06" y2="495.4"/><line class="cls-16" x1="739.63" y1="498.13" x2="739.63" y2="495.4"/><line class="cls-16" x1="843.21" y1="498.13" x2="843.21" y2="495.4"/><text class="cls-15" transform="translate(628.8 506.79)">10k</text><text class="cls-15" transform="translate(729.88 506.79)">100k</text><text class="cls-15" transform="translate(829.7 506.79)">1,000k</text><text class="cls-31" transform="translate(715.33 519.41)">Y<tspan class="cls-32" x="5.81" y="0">ears ago</tspan></text><text class="cls-26" transform="translate(580.19 367.21)">e</text><rect class="cls-3" x="224.09" y="532.79" width="462.39" height="28.24"/><rect class="cls-3" x="235.06" y="538.26" width="17.28" height="17.28"/><line class="cls-7" x1="236.79" y1="546.91" x2="250.61" y2="546.91"/><line class="cls-7" x1="236.79" y1="546.91" x2="250.61" y2="546.91"/><line class="cls-7" x1="236.79" y1="546.91" x2="250.61" y2="546.91"/><rect class="cls-3" x="353.48" y="538.26" width="17.28" height="17.28"/><line class="cls-8" x1="355.21" y1="546.91" x2="369.02" y2="546.91"/><line class="cls-8" x1="355.21" y1="546.91" x2="369.02" y2="546.91"/><line class="cls-8" x1="355.21" y1="546.91" x2="369.02" y2="546.91"/><rect class="cls-3" x="464.61" y="538.26" width="17.28" height="17.28"/><line class="cls-30" x1="466.34" y1="546.91" x2="480.17" y2="546.91"/><line class="cls-30" x1="466.34" y1="546.91" x2="480.17" y2="546.91"/><line class="cls-30" x1="466.34" y1="546.91" x2="480.17" y2="546.91"/><rect class="cls-3" x="581.75" y="538.26" width="17.28" height="17.28"/><line class="cls-21" x1="583.49" y1="546.91" x2="597.31" y2="546.91"/><line class="cls-21" x1="583.49" y1="546.91" x2="597.31" y2="546.91"/><line class="cls-21" x1="583.49" y1="546.91" x2="597.31" y2="546.91"/><text class="cls-23" transform="translate(257.81 550.13)">In<tspan class="cls-44" x="7.51" y="0">f</tspan><tspan x="9.75" y="0">erred Joint Eu</tspan><tspan class="cls-45" x="65.78" y="0">r</tspan><tspan x="68.68" y="0">asian</tspan></text><text class="cls-23" transform="translate(376.24 550.13)">In<tspan class="cls-44" x="7.51" y="0">f</tspan><tspan x="9.75" y="0">erred Joint Af</tspan><tspan class="cls-24" x="63.27" y="0">r</tspan><tspan class="cls-34" x="66.39" y="0">ican</tspan></text><text class="cls-23" transform="translate(487.37 550.13)">In<tspan class="cls-46" x="7.51" y="0">f</tspan><tspan x="9.75" y="0">erred Single Af</tspan><tspan class="cls-24" x="69.28" y="0">r</tspan><tspan x="72.4" y="0">ican</tspan></text><text class="cls-23" transform="translate(604.52 550.13)">Si<tspan class="cls-45" x="8" y="0">m</tspan><tspan class="cls-34" x="15.41" y="0">ulated </tspan><tspan class="cls-47" x="42.43" y="0">T</tspan><tspan class="cls-24" x="46.86" y="0">r</tspan><tspan x="49.98" y="0">uth Ne</tspan></text></svg>